# Blender 4.1.1
# www.blender.org
mtllib ../Objetos/Mario/Cogumelo/Cogumelo.mtl
o Sphere001
v 0.000000 2.536762 -0.000000
v 0.000000 2.512360 -0.247764
v -0.048336 2.512360 -0.243004
v -0.094816 2.512360 -0.228905
v -0.137650 2.512360 -0.206009
v -0.175196 2.512360 -0.175197
v -0.206009 2.512360 -0.137650
v -0.228905 2.512360 -0.094816
v -0.243004 2.512360 -0.048336
v -0.247764 2.512360 -0.000000
v -0.243004 2.512360 0.048336
v -0.228905 2.512360 0.094816
v -0.206009 2.512360 0.137650
v -0.175196 2.512360 0.175196
v -0.137650 2.512360 0.206009
v -0.094816 2.512360 0.228905
v -0.048336 2.512360 0.243004
v 0.000000 2.512360 0.247764
v 0.048336 2.512360 0.243004
v 0.094816 2.512360 0.228905
v 0.137650 2.512360 0.206009
v 0.175196 2.512360 0.175196
v 0.206009 2.512360 0.137650
v 0.228905 2.512360 0.094816
v 0.243004 2.512360 0.048336
v 0.247764 2.512360 -0.000000
v 0.243004 2.512360 -0.048336
v 0.228905 2.512360 -0.094816
v 0.206009 2.512360 -0.137650
v 0.175196 2.512360 -0.175197
v 0.137650 2.512360 -0.206009
v 0.094816 2.512360 -0.228905
v 0.048336 2.512360 -0.243004
v 0.000000 2.440089 -0.486009
v -0.094816 2.440089 -0.476669
v -0.185986 2.440089 -0.449014
v -0.270012 2.440089 -0.404101
v -0.343659 2.440089 -0.343660
v -0.404101 2.440089 -0.270012
v -0.449014 2.440089 -0.185987
v -0.476669 2.440089 -0.094816
v -0.486009 2.440089 -0.000000
v -0.476669 2.440089 0.094816
v -0.449014 2.440089 0.185986
v -0.404101 2.440089 0.270012
v -0.343659 2.440089 0.343659
v -0.270012 2.440089 0.404101
v -0.185986 2.440089 0.449013
v -0.094816 2.440089 0.476669
v 0.000000 2.440089 0.486009
v 0.094816 2.440089 0.476669
v 0.185989 2.440089 0.449013
v 0.270012 2.440089 0.404101
v 0.343659 2.440089 0.343659
v 0.404101 2.440089 0.270012
v 0.449014 2.440089 0.185986
v 0.476669 2.440089 0.094816
v 0.486009 2.440089 -0.000000
v 0.476669 2.440089 -0.094816
v 0.449014 2.440089 -0.185989
v 0.404101 2.440089 -0.270012
v 0.343659 2.440089 -0.343660
v 0.270010 2.440089 -0.404101
v 0.185986 2.440089 -0.449014
v 0.094816 2.440089 -0.476669
v 0.000000 2.322728 -0.705574
v -0.137650 2.322728 -0.692018
v -0.270012 2.322728 -0.651866
v -0.391996 2.322728 -0.586664
v -0.498917 2.322728 -0.498917
v -0.586664 2.322728 -0.391996
v -0.651866 2.322728 -0.270012
v -0.692018 2.322728 -0.137650
v -0.705574 2.322728 -0.000000
v -0.692018 2.322728 0.137650
v -0.651866 2.322728 0.270012
v -0.586664 2.322728 0.391996
v -0.498917 2.322728 0.498917
v -0.391996 2.322728 0.586664
v -0.270012 2.322728 0.651865
v -0.137650 2.322728 0.692018
v 0.000000 2.322728 0.705574
v 0.137650 2.322728 0.692018
v 0.270012 2.322728 0.651865
v 0.391996 2.322728 0.586664
v 0.498917 2.322728 0.498914
v 0.586664 2.322728 0.391996
v 0.651866 2.322728 0.270010
v 0.692018 2.322728 0.137650
v 0.705574 2.322728 -0.000000
v 0.692015 2.322728 -0.137653
v 0.651866 2.322728 -0.270012
v 0.586664 2.322728 -0.391998
v 0.498914 2.322728 -0.498917
v 0.391996 2.322728 -0.586664
v 0.270010 2.322728 -0.651866
v 0.137650 2.322728 -0.692018
v 0.000000 2.164786 -0.898025
v -0.175196 2.164786 -0.880771
v -0.343659 2.164786 -0.829668
v -0.498917 2.164786 -0.746681
v -0.635000 2.164786 -0.635000
v -0.746681 2.164786 -0.498917
v -0.829668 2.164786 -0.343660
v -0.880770 2.164786 -0.175197
v -0.898025 2.164786 -0.000000
v -0.880770 2.164786 0.175196
v -0.829668 2.164786 0.343659
v -0.746681 2.164786 0.498917
v -0.635000 2.164786 0.635000
v -0.498917 2.164786 0.746681
v -0.343659 2.164786 0.829668
v -0.175196 2.164786 0.880770
v 0.000000 2.164786 0.898024
v 0.175196 2.164786 0.880770
v 0.343659 2.164786 0.829668
v 0.498917 2.164786 0.746681
v 0.635000 2.164786 0.635000
v 0.746681 2.164786 0.498914
v 0.829668 2.164786 0.343659
v 0.880770 2.164786 0.175194
v 0.898025 2.164786 -0.000003
v 0.880770 2.164786 -0.175197
v 0.829668 2.164786 -0.343662
v 0.746681 2.164786 -0.498917
v 0.635000 2.164786 -0.635000
v 0.498914 2.164786 -0.746681
v 0.343657 2.164786 -0.829668
v 0.175194 2.164786 -0.880771
v 0.000000 1.972335 -1.055967
v -0.206009 1.972335 -1.035677
v -0.404101 1.972335 -0.975586
v -0.586664 1.972335 -0.878004
v -0.746681 1.972335 -0.746681
v -0.878004 1.972335 -0.586664
v -0.975586 1.972335 -0.404101
v -1.035677 1.972335 -0.206009
v -1.055967 1.972335 -0.000000
v -1.035677 1.972335 0.206009
v -0.975586 1.972335 0.404101
v -0.878004 1.972335 0.586664
v -0.746681 1.972335 0.746681
v -0.586664 1.972335 0.878004
v -0.404101 1.972335 0.975586
v -0.206007 1.972335 1.035677
v 0.000000 1.972335 1.055967
v 0.206009 1.972335 1.035677
v 0.404101 1.972335 0.975586
v 0.586664 1.972335 0.878004
v 0.746681 1.972335 0.746681
v 0.878004 1.972335 0.586661
v 0.975586 1.972335 0.404099
v 1.035677 1.972335 0.206007
v 1.055967 1.972335 -0.000003
v 1.035675 1.972335 -0.206012
v 0.975586 1.972335 -0.404104
v 0.878002 1.972335 -0.586666
v 0.746679 1.972335 -0.746681
v 0.586661 1.972335 -0.878004
v 0.404099 1.972335 -0.975586
v 0.206007 1.972335 -1.035677
v 0.000000 1.752770 -1.173328
v -0.228905 1.752770 -1.150783
v -0.449014 1.752770 -1.084014
v -0.651866 1.752770 -0.975586
v -0.829668 1.752770 -0.829668
v -0.975586 1.752770 -0.651866
v -1.084014 1.752770 -0.449014
v -1.150783 1.752770 -0.228905
v -1.173328 1.752770 -0.000000
v -1.150783 1.752770 0.228905
v -1.084014 1.752770 0.449013
v -0.975586 1.752770 0.651866
v -0.829668 1.752770 0.829668
v -0.651866 1.752770 0.975586
v -0.449011 1.752770 1.084013
v -0.228905 1.752770 1.150782
v 0.000000 1.752770 1.173327
v 0.228905 1.752770 1.150782
v 0.449014 1.752770 1.084011
v 0.651866 1.752770 0.975586
v 0.829668 1.752770 0.829666
v 0.975586 1.752770 0.651863
v 1.084014 1.752770 0.449011
v 1.150783 1.752770 0.228902
v 1.173328 1.752770 -0.000003
v 1.150783 1.752770 -0.228907
v 1.084011 1.752770 -0.449014
v 0.975583 1.752770 -0.651868
v 0.829666 1.752770 -0.829668
v 0.651863 1.752770 -0.975586
v 0.449011 1.752770 -1.084014
v 0.228902 1.752770 -1.150783
v 0.000000 1.514526 -1.245598
v -0.243004 1.514526 -1.221664
v -0.476669 1.514526 -1.150783
v -0.692018 1.514526 -1.035677
v -0.880770 1.514526 -0.880770
v -1.035677 1.514526 -0.692018
v -1.150783 1.514526 -0.476669
v -1.221664 1.514526 -0.243004
v -1.245598 1.514526 -0.000000
v -1.221664 1.514526 0.243004
v -1.150783 1.514526 0.476669
v -1.035675 1.514526 0.692018
v -0.880770 1.514526 0.880770
v -0.692015 1.514526 1.035677
v -0.476669 1.514526 1.150782
v -0.243002 1.514526 1.221664
v 0.000000 1.514526 1.245598
v 0.243004 1.514526 1.221664
v 0.476672 1.514526 1.150780
v 0.692018 1.514526 1.035675
v 0.880770 1.514526 0.880768
v 1.035677 1.514526 0.692015
v 1.150783 1.514526 0.476666
v 1.221664 1.514526 0.243002
v 1.245598 1.514526 -0.000003
v 1.221664 1.514526 -0.243007
v 1.150780 1.514526 -0.476672
v 1.035675 1.514526 -0.692018
v 0.880768 1.514526 -0.880773
v 0.692015 1.514526 -1.035677
v 0.476667 1.514526 -1.150783
v 0.243002 1.514526 -1.221664
v 0.000000 1.266762 -1.270000
v -0.247764 1.266762 -1.245598
v -0.486009 1.266762 -1.173328
v -0.705574 1.266762 -1.055967
v -0.898025 1.266762 -0.898025
v -1.055967 1.266762 -0.705574
v -1.173328 1.266762 -0.486009
v -1.245598 1.266762 -0.247764
v -1.270000 1.266762 -0.000000
v -1.245598 1.266762 0.247764
v -1.173328 1.266762 0.486009
v -1.055967 1.266762 0.705574
v -0.898025 1.266762 0.898027
v -0.705574 1.266762 1.055967
v -0.486006 1.266762 1.173328
v -0.247764 1.266762 1.245598
v 0.000000 1.266762 1.270000
v 0.247767 1.266762 1.245598
v 0.486009 1.266762 1.173328
v 0.705576 1.266762 1.055964
v 0.898027 1.266762 0.898025
v 1.055967 1.266762 0.705574
v 1.173328 1.266762 0.486006
v 1.245598 1.266762 0.247762
v 1.270000 1.266762 -0.000003
v 1.245596 1.266762 -0.247767
v 1.173325 1.266762 -0.486011
v 1.055964 1.266762 -0.705576
v 0.898025 1.266762 -0.898027
v 0.705571 1.266762 -1.055967
v 0.486006 1.266762 -1.173328
v 0.247762 1.266762 -1.245598
v 0.000000 1.018997 -1.245598
v -0.243004 1.018997 -1.221664
v -0.476669 1.018997 -1.150783
v -0.692018 1.018997 -1.035677
v -0.880770 1.018997 -0.880770
v -1.035677 1.018997 -0.692018
v -1.150783 1.018997 -0.476669
v -1.221664 1.018997 -0.243004
v -1.245598 1.018997 -0.000000
v -1.221664 1.018997 0.243004
v -1.150783 1.018997 0.476669
v -1.035675 1.018997 0.692018
v -0.880770 1.018997 0.880770
v -0.692015 1.018997 1.035677
v -0.476669 1.018997 1.150783
v -0.243002 1.018997 1.221664
v 0.000000 1.018997 1.245598
v 0.243004 1.018997 1.221664
v 0.476672 1.018997 1.150783
v 0.692018 1.018997 1.035675
v 0.880770 1.018997 0.880770
v 1.035677 1.018997 0.692015
v 1.150783 1.018997 0.476667
v 1.221664 1.018997 0.243002
v 1.245598 1.018997 -0.000003
v 1.221664 1.018997 -0.243007
v 1.150780 1.018997 -0.476672
v 1.035675 1.018997 -0.692018
v 0.880768 1.018997 -0.880773
v 0.692015 1.018997 -1.035677
v 0.476667 1.018997 -1.150783
v 0.243002 1.018997 -1.221664
v 0.000000 0.918969 -1.200117
v -0.234132 0.918969 -1.177059
v -0.459265 0.918969 -1.108766
v -0.666750 0.918969 -0.997862
v -0.848611 0.918969 -0.848612
v -0.997862 0.918969 -0.666750
v -1.108766 0.918969 -0.459265
v -1.177059 0.918969 -0.234132
v -1.200117 0.918969 -0.000000
v -1.177059 0.918969 0.234132
v -1.108763 0.918969 0.459265
v -0.997862 0.918969 0.666750
v -0.848611 0.918970 0.848611
v -0.666750 0.918970 0.997862
v -0.459265 0.918970 1.108766
v -0.234130 0.918970 1.177059
v 0.000000 0.918970 1.200117
v 0.234132 0.918970 1.177059
v 0.459268 0.918970 1.108763
v 0.666750 0.918970 0.997862
v 0.848614 0.918970 0.848611
v 0.997862 0.918969 0.666747
v 1.108766 0.918969 0.459265
v 1.177059 0.918969 0.234130
v 1.200117 0.918969 -0.000003
v 1.177059 0.918969 -0.234135
v 1.108763 0.918969 -0.459268
v 0.997862 0.918969 -0.666753
v 0.848609 0.918969 -0.848614
v 0.666747 0.918969 -0.997862
v 0.459262 0.918969 -1.108766
v 0.234130 0.918969 -1.177059
v 0.000000 0.857133 -1.135952
v -0.221612 0.857133 -1.114125
v 0.000000 0.833486 -1.053097
v -0.205448 0.833486 -1.032861
v -0.434711 0.857133 -1.049482
v -0.403001 0.833486 -0.972934
v -0.631101 0.857133 -0.944509
v -0.585069 0.833486 -0.875617
v -0.803239 0.857133 -0.803239
v -0.744652 0.833486 -0.744652
v -0.944509 0.857133 -0.631101
v -0.875617 0.833486 -0.585069
v -1.049482 0.857133 -0.434708
v -0.972934 0.833486 -0.403002
v -1.114125 0.857133 -0.221613
v -1.032861 0.833486 -0.205448
v -1.135952 0.857133 -0.000000
v -1.053097 0.833486 -0.000000
v -1.114125 0.857133 0.221612
v -1.032861 0.833486 0.205450
v -1.049482 0.857133 0.434711
v -0.972934 0.833486 0.403004
v -0.944509 0.857133 0.631101
v -0.875617 0.833486 0.585069
v -0.803239 0.857133 0.803239
v -0.744652 0.833486 0.744652
v -0.631101 0.857133 0.944509
v -0.585069 0.833486 0.875619
v -0.434708 0.857133 1.049482
v -0.403001 0.833486 0.972934
v -0.221612 0.857133 1.114125
v -0.205448 0.833486 1.032861
v 0.000000 0.857133 1.135952
v 0.000000 0.833486 1.053097
v 0.221615 0.857133 1.114125
v 0.205450 0.833486 1.032861
v 0.434711 0.857133 1.049482
v 0.403004 0.833486 0.972934
v 0.631101 0.857133 0.944509
v 0.585071 0.833486 0.875617
v 0.803239 0.857133 0.803237
v 0.744652 0.833486 0.744652
v 0.944509 0.857133 0.631098
v 0.875619 0.833486 0.585069
v 1.049482 0.857133 0.434708
v 0.972934 0.833486 0.403001
v 1.114125 0.857133 0.221612
v 1.032863 0.833486 0.205448
v 1.135952 0.857133 -0.000003
v 1.053097 0.833486 -0.000003
v 1.114123 0.857133 -0.221615
v 1.032861 0.833486 -0.205450
v 1.049482 0.857133 -0.434711
v 0.972934 0.833486 -0.403004
v 0.944507 0.857133 -0.631104
v 0.875617 0.833486 -0.585071
v 0.803237 0.857133 -0.803239
v 0.744649 0.833486 -0.744654
v 0.631099 0.857133 -0.944509
v 0.585066 0.833486 -0.875619
v 0.434708 0.857133 -1.049482
v 0.403001 0.833486 -0.972934
v 0.221610 0.857133 -1.114125
v 0.205448 0.833486 -1.032863
v 0.898213 0.281795 -0.178666
v 0.933270 0.848027 -0.185641
v 0.951555 0.848027 -0.000003
v 0.915810 0.281795 -0.000000
v 0.846097 0.281795 -0.350464
v 0.879119 0.848027 -0.364145
v 0.761469 0.281795 -0.508798
v 0.791187 0.848027 -0.528655
v 0.647576 0.281795 -0.647576
v 0.672849 0.848027 -0.672851
v 0.508798 0.281795 -0.761469
v 0.528653 0.848027 -0.791190
v 0.350464 0.281795 -0.846097
v 0.364142 0.848027 -0.879122
v 0.178666 0.281795 -0.898213
v 0.185636 0.848027 -0.933270
v 0.000000 0.281795 -0.915810
v 0.000000 0.848027 -0.951555
v -0.178666 0.281795 -0.898213
v -0.185638 0.848027 -0.933270
v -0.350464 0.281795 -0.846099
v -0.364145 0.848027 -0.879122
v -0.508798 0.281795 -0.761469
v -0.528655 0.848027 -0.791187
v -0.647576 0.281795 -0.647576
v -0.672851 0.848027 -0.672851
v -0.761469 0.281795 -0.508798
v -0.791187 0.848027 -0.528655
v -0.846099 0.281795 -0.350464
v -0.879122 0.848027 -0.364145
v -0.898213 0.281795 -0.178666
v -0.933270 0.848027 -0.185638
v -0.915810 0.281795 -0.000000
v -0.951555 0.848027 -0.000000
v -0.898213 0.281795 0.178666
v -0.933270 0.848027 0.185638
v -0.846097 0.281795 0.350467
v -0.879122 0.848027 0.364145
v -0.761469 0.281795 0.508798
v -0.791187 0.848027 0.528655
v -0.647576 0.281795 0.647576
v -0.672851 0.848027 0.672851
v -0.508795 0.281795 0.761469
v -0.528655 0.848027 0.791190
v -0.350464 0.281795 0.846099
v -0.364142 0.848027 0.879122
v -0.178666 0.281795 0.898213
v -0.185638 0.848027 0.933270
v 0.000000 0.281795 0.915810
v 0.000000 0.848029 0.951555
v 0.178666 0.281795 0.898213
v 0.185641 0.848027 0.933270
v 0.350467 0.281795 0.846097
v 0.364145 0.848027 0.879122
v 0.508798 0.281795 0.761467
v 0.528655 0.848027 0.791187
v 0.647576 0.281795 0.647576
v 0.672851 0.848027 0.672849
v 0.761469 0.281795 0.508795
v 0.791190 0.848027 0.528653
v 0.846099 0.281795 0.350464
v 0.879122 0.848027 0.364142
v 0.898213 0.281795 0.178664
v 0.933270 0.848027 0.185638
v 0.634014 0.000000 0.000000
v 0.000000 0.000000 0.000000
v 0.621833 -0.000000 -0.123690
v 0.585754 -0.000000 -0.242628
v 0.527164 -0.000000 -0.352240
v 0.448318 -0.000000 -0.448318
v 0.352240 -0.000000 -0.527164
v 0.242628 -0.000000 -0.585754
v 0.123690 -0.000000 -0.621833
v 0.000000 -0.000000 -0.634014
v -0.123690 -0.000000 -0.621833
v -0.242626 -0.000000 -0.585754
v -0.352240 -0.000000 -0.527164
v -0.448318 -0.000000 -0.448318
v -0.527164 -0.000000 -0.352240
v -0.585754 -0.000000 -0.242626
v -0.621833 -0.000000 -0.123690
v -0.634014 0.000000 0.000000
v -0.621833 0.000000 0.123690
v -0.585754 0.000000 0.242628
v -0.527164 0.000000 0.352240
v -0.448315 0.000000 0.448318
v -0.352240 0.000000 0.527164
v -0.242626 0.000000 0.585754
v -0.123690 0.000000 0.621833
v 0.000000 0.000000 0.634014
v 0.123690 0.000000 0.621833
v 0.242628 0.000000 0.585754
v 0.352240 0.000000 0.527164
v 0.448318 0.000000 0.448315
v 0.527164 0.000000 0.352240
v 0.585754 0.000000 0.242626
v 0.621833 0.000000 0.123690
v 0.898197 0.158509 -0.000000
v 0.880938 0.158509 -0.175230
v 0.829826 0.158509 -0.343726
v 0.746823 0.158509 -0.499011
v 0.635122 0.158509 -0.635122
v 0.499011 0.158509 -0.746823
v 0.343726 0.158509 -0.829826
v 0.175230 0.158509 -0.880938
v 0.000000 0.158509 -0.898197
v -0.175230 0.158509 -0.880938
v -0.343726 0.158509 -0.829826
v -0.499011 0.158509 -0.746823
v -0.635122 0.158509 -0.635122
v -0.746823 0.158509 -0.499011
v -0.829826 0.158509 -0.343726
v -0.880938 0.158509 -0.175230
v -0.898197 0.158509 -0.000000
v -0.880938 0.158509 0.175230
v -0.829826 0.158509 0.343726
v -0.746823 0.158509 0.499013
v -0.635122 0.158509 0.635122
v -0.499011 0.158509 0.746823
v -0.343726 0.158509 0.829828
v -0.175230 0.158509 0.880941
v 0.000000 0.158509 0.898197
v 0.175230 0.158509 0.880938
v 0.343726 0.158509 0.829826
v 0.499013 0.158509 0.746823
v 0.635122 0.158509 0.635122
v 0.746826 0.158509 0.499011
v 0.829828 0.158509 0.343723
v 0.880941 0.158509 0.175230
v 0.845360 0.070449 -0.000000
v 0.829117 0.070449 -0.164922
v 0.757301 0.017612 -0.000000
v 0.742749 0.017612 -0.147742
v 0.781012 0.070449 -0.323505
v 0.699656 0.017612 -0.289806
v 0.702892 0.070449 -0.469659
v 0.629674 0.017612 -0.420733
v 0.597761 0.070449 -0.597761
v 0.535493 0.017612 -0.535493
v 0.469659 0.070449 -0.702892
v 0.420733 0.017612 -0.629674
v 0.323505 0.070449 -0.781012
v 0.289806 0.017612 -0.699656
v 0.164922 0.070449 -0.829117
v 0.147742 0.017612 -0.742749
v 0.000000 0.070449 -0.845360
v 0.000000 0.017612 -0.757301
v -0.164922 0.070449 -0.829117
v -0.147742 0.017612 -0.742749
v -0.323505 0.070449 -0.781012
v -0.289806 0.017612 -0.699656
v -0.469659 0.070449 -0.702892
v -0.420733 0.017612 -0.629674
v -0.597761 0.070449 -0.597761
v -0.535493 0.017612 -0.535493
v -0.702892 0.070449 -0.469659
v -0.629674 0.017612 -0.420733
v -0.781012 0.070449 -0.323505
v -0.699656 0.017612 -0.289806
v -0.829117 0.070449 -0.164922
v -0.742749 0.017612 -0.147742
v -0.845360 0.070449 -0.000000
v -0.757301 0.017612 -0.000000
v -0.829117 0.070449 0.164922
v -0.742749 0.017612 0.147742
v -0.781012 0.070449 0.323507
v -0.699653 0.017612 0.289806
v -0.702892 0.070449 0.469659
v -0.629671 0.017612 0.420733
v -0.597761 0.070449 0.597761
v -0.535493 0.017612 0.535493
v -0.469656 0.070449 0.702892
v -0.420733 0.017612 0.629674
v -0.323505 0.070449 0.781012
v -0.289806 0.017612 0.699656
v -0.164922 0.070449 0.829117
v -0.147742 0.017612 0.742749
v 0.000000 0.070449 0.845360
v 0.000000 0.017612 0.757301
v 0.164922 0.070449 0.829117
v 0.147742 0.017612 0.742749
v 0.323507 0.070449 0.781012
v 0.289806 0.017612 0.699653
v 0.469659 0.070449 0.702892
v 0.420733 0.017612 0.629671
v 0.597761 0.070449 0.597761
v 0.535493 0.017612 0.535490
v 0.702892 0.070449 0.469656
v 0.629674 0.017612 0.420733
v 0.781012 0.070449 0.323505
v 0.699656 0.017612 0.289806
v 0.829117 0.070449 0.164920
v 0.742749 0.017612 0.147742
vn -0.0000 1.0000 -0.0000
vn -0.0000 0.9796 -0.2010
vn -0.0392 0.9796 -0.1971
vn -0.0769 0.9796 -0.1857
vn -0.1116 0.9796 -0.1671
vn -0.1421 0.9796 -0.1421
vn -0.1671 0.9796 -0.1116
vn -0.1857 0.9796 -0.0769
vn -0.1971 0.9796 -0.0392
vn -0.2010 0.9796 -0.0000
vn -0.1971 0.9796 0.0392
vn -0.1857 0.9796 0.0769
vn -0.1671 0.9796 0.1116
vn -0.1421 0.9796 0.1421
vn -0.1116 0.9796 0.1671
vn -0.0769 0.9796 0.1857
vn -0.0392 0.9796 0.1971
vn -0.0000 0.9796 0.2010
vn 0.0392 0.9796 0.1971
vn 0.0769 0.9796 0.1857
vn 0.1116 0.9796 0.1671
vn 0.1421 0.9796 0.1421
vn 0.1671 0.9796 0.1116
vn 0.1857 0.9796 0.0769
vn 0.1971 0.9796 0.0392
vn 0.2010 0.9796 -0.0000
vn 0.1971 0.9796 -0.0392
vn 0.1857 0.9796 -0.0769
vn 0.1671 0.9796 -0.1116
vn 0.1421 0.9796 -0.1421
vn 0.1116 0.9796 -0.1671
vn 0.0769 0.9796 -0.1857
vn 0.0392 0.9796 -0.1971
vn -0.0000 0.9217 -0.3879
vn -0.0757 0.9217 -0.3804
vn -0.1484 0.9217 -0.3584
vn -0.2155 0.9217 -0.3225
vn -0.3225 0.9217 -0.2155
vn -0.2743 0.9217 -0.2743
vn -0.3584 0.9217 -0.1484
vn -0.3804 0.9217 -0.0757
vn -0.3879 0.9217 -0.0000
vn -0.3804 0.9217 0.0757
vn -0.3584 0.9217 0.1484
vn -0.3225 0.9217 0.2155
vn -0.2155 0.9217 0.3225
vn -0.2743 0.9217 0.2743
vn -0.1484 0.9217 0.3584
vn -0.0757 0.9217 0.3804
vn -0.0000 0.9217 0.3879
vn 0.0757 0.9217 0.3804
vn 0.1484 0.9217 0.3584
vn 0.2155 0.9217 0.3225
vn 0.3225 0.9217 0.2155
vn 0.2743 0.9217 0.2743
vn 0.3584 0.9217 0.1484
vn 0.3804 0.9217 0.0757
vn 0.3879 0.9217 -0.0000
vn 0.3804 0.9217 -0.0757
vn 0.3584 0.9217 -0.1484
vn 0.3225 0.9217 -0.2155
vn 0.2155 0.9217 -0.3225
vn 0.2743 0.9217 -0.2743
vn 0.0757 0.9217 -0.3804
vn 0.1484 0.9217 -0.3584
vn -0.1092 0.8286 -0.5490
vn -0.0000 0.8286 -0.5598
vn -0.2142 0.8286 -0.5172
vn -0.3962 0.8284 -0.3959
vn -0.3110 0.8284 -0.4658
vn -0.3959 0.8284 -0.3962
vn -0.5172 0.8286 -0.2142
vn -0.4656 0.8284 -0.3114
vn -0.5490 0.8286 -0.1092
vn -0.5490 0.8286 0.1092
vn -0.5598 0.8286 -0.0000
vn -0.5172 0.8286 0.2142
vn -0.3959 0.8284 0.3962
vn -0.4658 0.8284 0.3110
vn -0.3962 0.8284 0.3959
vn -0.2142 0.8286 0.5172
vn -0.3114 0.8284 0.4656
vn -0.1092 0.8286 0.5490
vn 0.1092 0.8286 0.5490
vn -0.0000 0.8286 0.5598
vn 0.3114 0.8284 0.4656
vn 0.2142 0.8286 0.5172
vn 0.3962 0.8284 0.3959
vn 0.3110 0.8284 0.4658
vn 0.3959 0.8284 0.3962
vn 0.5172 0.8286 0.2142
vn 0.4656 0.8284 0.3114
vn 0.5490 0.8286 0.1092
vn 0.5490 0.8286 -0.1092
vn 0.5598 0.8286 -0.0000
vn 0.5172 0.8286 -0.2142
vn 0.3959 0.8284 -0.3962
vn 0.4658 0.8284 -0.3111
vn 0.3111 0.8284 -0.4658
vn 0.3962 0.8284 -0.3959
vn 0.2142 0.8286 -0.5172
vn 0.3114 0.8284 -0.4656
vn 0.1092 0.8286 -0.5490
vn -0.0000 0.7041 -0.7101
vn -0.2718 0.7041 -0.6561
vn -0.1385 0.7041 -0.6965
vn -0.3945 0.7041 -0.5905
vn -0.3958 0.8288 -0.3954
vn -0.3106 0.8288 -0.4653
vn -0.5905 0.7041 -0.3945
vn -0.3954 0.8288 -0.3958
vn -0.5021 0.7041 -0.5021
vn -0.6561 0.7041 -0.2718
vn -0.4651 0.8288 -0.3111
vn -0.7101 0.7041 -0.0000
vn -0.6965 0.7041 -0.1385
vn -0.6561 0.7041 0.2718
vn -0.6965 0.7041 0.1385
vn -0.5905 0.7041 0.3945
vn -0.3954 0.8288 0.3958
vn -0.4653 0.8288 0.3106
vn -0.3945 0.7041 0.5905
vn -0.3958 0.8288 0.3954
vn -0.5021 0.7041 0.5021
vn -0.2718 0.7041 0.6561
vn -0.3111 0.8288 0.4651
vn -0.0000 0.7041 0.7101
vn -0.1385 0.7041 0.6965
vn 0.2718 0.7041 0.6561
vn 0.1385 0.7041 0.6965
vn 0.3945 0.7041 0.5905
vn 0.5021 0.7041 0.5021
vn 0.3106 0.8288 0.4653
vn 0.5905 0.7041 0.3945
vn 0.3954 0.8288 0.3958
vn 0.6561 0.7041 0.2718
vn 0.4651 0.8288 0.3111
vn 0.6965 0.7041 0.1385
vn 0.7101 0.7041 -0.0000
vn 0.6965 0.7041 -0.1385
vn 0.6561 0.7041 -0.2718
vn 0.4651 0.8288 -0.3110
vn 0.5021 0.7041 -0.5021
vn 0.4653 0.8288 -0.3106
vn 0.5905 0.7041 -0.3945
vn 0.3945 0.7041 -0.5905
vn 0.3958 0.8288 -0.3954
vn 0.3111 0.8288 -0.4651
vn 0.2718 0.7041 -0.6561
vn 0.1385 0.7041 -0.6965
vn -0.0000 0.5528 -0.8333
vn -0.1626 0.5528 -0.8173
vn -0.3189 0.5528 -0.7699
vn -0.5893 0.5528 -0.5893
vn -0.4630 0.5528 -0.6929
vn -0.7699 0.5528 -0.3189
vn -0.6929 0.5528 -0.4630
vn -0.8173 0.5528 -0.1626
vn -0.8333 0.5528 -0.0000
vn -0.8173 0.5528 0.1626
vn -0.7699 0.5528 0.3189
vn -0.5893 0.5528 0.5893
vn -0.6929 0.5528 0.4630
vn -0.3189 0.5528 0.7699
vn -0.4630 0.5528 0.6929
vn -0.1626 0.5528 0.8173
vn -0.0000 0.5528 0.8333
vn 0.1626 0.5528 0.8173
vn 0.3189 0.5528 0.7699
vn 0.5893 0.5528 0.5893
vn 0.4630 0.5528 0.6929
vn 0.6929 0.5528 0.4630
vn 0.7699 0.5528 0.3189
vn 0.8333 0.5528 -0.0000
vn 0.8173 0.5528 0.1626
vn 0.8173 0.5528 -0.1626
vn 0.7699 0.5528 -0.3189
vn 0.6929 0.5528 -0.4630
vn 0.5893 0.5528 -0.5893
vn 0.3189 0.5528 -0.7699
vn 0.4630 0.5528 -0.6929
vn 0.1626 0.5528 -0.8173
vn -0.0000 0.3805 -0.9248
vn -0.3539 0.3805 -0.8544
vn -0.1804 0.3805 -0.9070
vn -0.5138 0.3805 -0.7689
vn -0.7689 0.3805 -0.5138
vn -0.6539 0.3805 -0.6539
vn -0.8544 0.3805 -0.3539
vn -0.9248 0.3805 -0.0000
vn -0.9070 0.3805 -0.1804
vn -0.8544 0.3805 0.3539
vn -0.9070 0.3805 0.1804
vn -0.7689 0.3805 0.5138
vn -0.5138 0.3805 0.7689
vn -0.6539 0.3805 0.6539
vn -0.3539 0.3805 0.8544
vn -0.0000 0.3805 0.9248
vn -0.1804 0.3805 0.9070
vn 0.3539 0.3805 0.8544
vn 0.1804 0.3805 0.9070
vn 0.5138 0.3805 0.7689
vn 0.6539 0.3805 0.6539
vn 0.7689 0.3805 0.5138
vn 0.8544 0.3805 0.3539
vn 0.9070 0.3805 0.1804
vn 0.9070 0.3805 -0.1804
vn 0.9248 0.3805 -0.0000
vn 0.8544 0.3805 -0.3539
vn 0.7689 0.3805 -0.5138
vn 0.6539 0.3805 -0.6539
vn 0.5138 0.3805 -0.7689
vn 0.3539 0.3805 -0.8544
vn 0.1804 0.3805 -0.9070
vn -0.0000 0.1939 -0.9810
vn -0.3754 0.1939 -0.9063
vn -0.1914 0.1939 -0.9622
vn -0.5450 0.1939 -0.8157
vn -0.8157 0.1939 -0.5450
vn -0.6937 0.1939 -0.6937
vn -0.9063 0.1939 -0.3754
vn -0.9810 0.1939 -0.0000
vn -0.9622 0.1939 -0.1914
vn -0.9063 0.1939 0.3754
vn -0.9622 0.1939 0.1914
vn -0.8157 0.1939 0.5450
vn -0.6937 0.1939 0.6937
vn -0.5450 0.1939 0.8157
vn -0.3754 0.1939 0.9063
vn -0.1914 0.1939 0.9622
vn -0.0000 0.1939 0.9810
vn 0.1914 0.1939 0.9622
vn 0.3754 0.1939 0.9063
vn 0.5450 0.1939 0.8157
vn 0.8157 0.1939 0.5450
vn 0.6937 0.1939 0.6937
vn 0.9063 0.1939 0.3754
vn 0.9810 0.1939 -0.0000
vn 0.9622 0.1939 0.1914
vn 0.9622 0.1939 -0.1914
vn 0.8157 0.1939 -0.5450
vn 0.9063 0.1939 -0.3754
vn 0.6937 0.1939 -0.6937
vn 0.5450 0.1939 -0.8157
vn 0.3754 0.1939 -0.9063
vn 0.1914 0.1939 -0.9622
vn -0.1951 -0.0000 -0.9808
vn -0.0000 -0.0000 -1.0000
vn -0.5556 -0.0000 -0.8315
vn -0.3827 -0.0000 -0.9239
vn -0.7071 -0.0000 -0.7071
vn -0.9239 -0.0000 -0.3827
vn -0.8315 -0.0000 -0.5556
vn -0.9808 -0.0000 -0.1951
vn -0.9808 -0.0000 0.1951
vn -1.0000 -0.0000 -0.0000
vn -0.8315 -0.0000 0.5556
vn -0.9239 -0.0000 0.3827
vn -0.7071 -0.0000 0.7071
vn -0.3827 -0.0000 0.9239
vn -0.5556 -0.0000 0.8315
vn -0.1951 -0.0000 0.9808
vn -0.0000 -0.0000 1.0000
vn 0.3827 -0.0000 0.9239
vn 0.1951 -0.0000 0.9808
vn 0.5556 -0.0000 0.8315
vn 0.8315 -0.0000 0.5556
vn 0.7071 -0.0000 0.7071
vn 0.9239 -0.0000 0.3827
vn 0.9808 -0.0000 0.1951
vn 0.9808 -0.0000 -0.1951
vn 1.0000 -0.0000 -0.0000
vn 0.9239 -0.0000 -0.3827
vn 0.7071 -0.0000 -0.7071
vn 0.8315 -0.0000 -0.5556
vn 0.5556 -0.0000 -0.8315
vn 0.3827 -0.0000 -0.9239
vn 0.1951 -0.0000 -0.9808
vn -0.0000 -0.2569 -0.9664
vn -0.3698 -0.2569 -0.8929
vn -0.1885 -0.2569 -0.9479
vn -0.5369 -0.2569 -0.8036
vn -0.8036 -0.2569 -0.5369
vn -0.6834 -0.2569 -0.6834
vn -0.8929 -0.2569 -0.3698
vn -0.9664 -0.2569 -0.0000
vn -0.9479 -0.2569 -0.1885
vn -0.8929 -0.2569 0.3698
vn -0.9479 -0.2569 0.1885
vn -0.8036 -0.2569 0.5369
vn -0.5369 -0.2569 0.8036
vn -0.6834 -0.2569 0.6834
vn -0.3698 -0.2569 0.8929
vn -0.1885 -0.2569 0.9479
vn 0.1885 -0.2569 0.9479
vn -0.0000 -0.2569 0.9664
vn 0.3698 -0.2569 0.8929
vn 0.6834 -0.2569 0.6834
vn 0.5369 -0.2569 0.8036
vn 0.8036 -0.2569 0.5369
vn 0.9479 -0.2569 0.1885
vn 0.8929 -0.2569 0.3698
vn 0.9664 -0.2569 -0.0000
vn 0.8929 -0.2569 -0.3698
vn 0.9479 -0.2569 -0.1885
vn 0.8036 -0.2569 -0.5369
vn 0.6834 -0.2569 -0.6834
vn 0.5369 -0.2569 -0.8036
vn 0.1885 -0.2569 -0.9479
vn 0.3698 -0.2569 -0.8929
vn -0.0000 -0.5718 -0.8204
vn -0.3140 -0.5718 -0.7580
vn -0.1601 -0.5718 -0.8047
vn -0.4558 -0.5718 -0.6822
vn -0.6822 -0.5718 -0.4558
vn -0.5801 -0.5718 -0.5801
vn -0.8047 -0.5718 -0.1601
vn -0.7580 -0.5718 -0.3140
vn -0.8204 -0.5718 -0.0000
vn -0.8047 -0.5718 0.1601
vn -0.6822 -0.5718 0.4558
vn -0.7580 -0.5718 0.3140
vn -0.5801 -0.5718 0.5801
vn -0.4558 -0.5718 0.6822
vn -0.3140 -0.5718 0.7580
vn -0.0000 -0.5718 0.8204
vn -0.1601 -0.5718 0.8047
vn 0.1601 -0.5718 0.8047
vn 0.4558 -0.5718 0.6822
vn 0.3140 -0.5718 0.7580
vn 0.5801 -0.5718 0.5801
vn 0.7580 -0.5718 0.3140
vn 0.6822 -0.5718 0.4558
vn 0.8047 -0.5718 0.1601
vn 0.8204 -0.5718 -0.0000
vn 0.8047 -0.5718 -0.1601
vn 0.7580 -0.5718 -0.3140
vn 0.6822 -0.5718 -0.4558
vn 0.5801 -0.5718 -0.5801
vn 0.4558 -0.5718 -0.6822
vn 0.1601 -0.5718 -0.8047
vn 0.3140 -0.5718 -0.7580
vn -0.0995 -0.8601 -0.5004
vn -0.0000 -0.8601 -0.5102
vn -0.0000 -0.9967 -0.0808
vn -0.0000 -0.9899 0.1418
vn -0.0158 -0.9967 -0.0792
vn -0.0309 -0.9967 -0.0746
vn 0.0277 -0.9899 0.1390
vn -0.1952 -0.8601 -0.4714
vn -0.0449 -0.9967 -0.0672
vn 0.0542 -0.9899 0.1310
vn -0.2834 -0.8601 -0.4242
vn -0.0571 -0.9967 -0.0571
vn 0.1002 -0.9899 0.1002
vn 0.0788 -0.9899 0.1179
vn -0.4242 -0.8601 -0.2835
vn -0.3608 -0.8601 -0.3608
vn -0.0672 -0.9967 -0.0449
vn -0.0746 -0.9967 -0.0309
vn 0.1310 -0.9899 0.0542
vn 0.1179 -0.9899 0.0788
vn -0.4714 -0.8601 -0.1952
vn -0.0792 -0.9967 -0.0158
vn 0.1390 -0.9899 0.0277
vn -0.5004 -0.8601 -0.0995
vn -0.0808 -0.9967 -0.0000
vn 0.1418 -0.9899 -0.0000
vn -0.5004 -0.8601 0.0995
vn -0.5102 -0.8601 -0.0000
vn 0.1390 -0.9899 -0.0277
vn -0.0792 -0.9967 0.0158
vn -0.4714 -0.8601 0.1952
vn 0.1310 -0.9899 -0.0542
vn -0.0746 -0.9967 0.0309
vn -0.4242 -0.8601 0.2835
vn -0.0672 -0.9967 0.0449
vn -0.0571 -0.9967 0.0571
vn 0.1002 -0.9899 -0.1002
vn 0.1179 -0.9899 -0.0788
vn -0.2835 -0.8601 0.4242
vn -0.3608 -0.8601 0.3608
vn 0.0788 -0.9899 -0.1179
vn -0.0449 -0.9967 0.0672
vn -0.1952 -0.8601 0.4714
vn -0.0309 -0.9967 0.0746
vn -0.0995 -0.8601 0.5004
vn -0.0158 -0.9967 0.0792
vn 0.0542 -0.9899 -0.1310
vn -0.0000 -0.8601 0.5102
vn -0.0000 -0.9967 0.0808
vn -0.0000 -0.6764 -0.7365
vn 0.0330 -0.9802 -0.1953
vn 0.0995 -0.8601 0.5004
vn 0.0158 -0.9967 0.0792
vn 0.1952 -0.8601 0.4714
vn -0.0542 -0.9899 -0.1310
vn -0.0330 -0.9802 -0.1953
vn 0.2835 -0.8601 0.4242
vn 0.0309 -0.9967 0.0746
vn -0.0788 -0.9899 -0.1179
vn 0.0449 -0.9967 0.0672
vn 0.3608 -0.8601 0.3608
vn 0.0571 -0.9967 0.0571
vn 0.0672 -0.9967 0.0449
vn -0.1002 -0.9899 -0.1002
vn 0.4714 -0.8601 0.1952
vn 0.4242 -0.8601 0.2835
vn 0.0746 -0.9967 0.0309
vn -0.1179 -0.9899 -0.0788
vn 0.5004 -0.8601 0.0995
vn 0.0792 -0.9967 0.0158
vn -0.1390 -0.9899 -0.0277
vn -0.1310 -0.9899 -0.0542
vn 0.5102 -0.8601 -0.0000
vn -0.1418 -0.9899 -0.0000
vn 0.5004 -0.8601 -0.0995
vn 0.0808 -0.9967 -0.0000
vn 0.0792 -0.9967 -0.0158
vn 0.4714 -0.8601 -0.1952
vn 0.0746 -0.9967 -0.0309
vn -0.1390 -0.9899 0.0277
vn 0.4242 -0.8601 -0.2834
vn 0.0672 -0.9967 -0.0449
vn -0.1179 -0.9899 0.0788
vn -0.1310 -0.9899 0.0542
vn 0.3608 -0.8601 -0.3608
vn -0.1002 -0.9899 0.1002
vn 0.2834 -0.8601 -0.4242
vn 0.0571 -0.9967 -0.0571
vn -0.0788 -0.9899 0.1179
vn 0.1952 -0.8601 -0.4714
vn 0.0449 -0.9967 -0.0672
vn 0.0309 -0.9967 -0.0746
vn 0.0995 -0.8601 -0.5004
vn 0.0158 -0.9967 -0.0792
vn -0.0542 -0.9899 0.1310
vn -0.0277 -0.9899 0.1390
vn 1.0000 -0.0004 -0.0000
vn 0.9784 -0.0695 -0.1946
vn 0.9808 -0.0006 -0.1951
vn 0.9216 -0.0708 -0.3817
vn 0.9239 -0.0008 -0.3827
vn 0.8294 -0.0709 -0.5542
vn 0.8315 -0.0010 -0.5556
vn 0.7049 -0.0706 -0.7057
vn 0.5542 -0.0709 -0.8294
vn 0.5556 -0.0010 -0.8315
vn 0.3817 -0.0709 -0.9216
vn 0.3827 -0.0008 -0.9239
vn 0.1946 -0.0695 -0.9784
vn 0.1951 -0.0006 -0.9808
vn -0.0000 -0.0703 -0.9975
vn -0.1951 -0.0008 -0.9808
vn -0.1946 -0.0694 -0.9784
vn -0.3817 -0.0709 -0.9216
vn -0.3827 -0.0008 -0.9239
vn -0.5542 -0.0709 -0.8294
vn -0.5556 -0.0010 -0.8315
vn -0.7057 -0.0706 -0.7049
vn -0.8315 -0.0010 -0.5556
vn -0.7049 -0.0706 -0.7057
vn -0.8294 -0.0709 -0.5542
vn -0.9239 -0.0008 -0.3827
vn -0.9216 -0.0709 -0.3817
vn -0.9808 -0.0008 -0.1951
vn -0.9784 -0.0694 -0.1946
vn -0.9975 -0.0703 -0.0000
vn -0.9808 -0.0006 0.1951
vn -0.9784 -0.0693 0.1946
vn -0.9239 -0.0008 0.3827
vn -0.9216 -0.0709 0.3817
vn -0.8315 -0.0012 0.5556
vn -0.8294 -0.0710 0.5542
vn -0.7049 -0.0706 0.7057
vn -0.5556 -0.0010 0.8315
vn -0.7057 -0.0707 0.7049
vn -0.5542 -0.0709 0.8294
vn -0.3827 -0.0010 0.9239
vn -0.3817 -0.0710 0.9215
vn -0.1946 -0.0693 0.9784
vn -0.1827 0.0004 0.9832
vn -0.0099 -0.0719 0.9974
vn 0.1828 0.0002 0.9832
vn 0.1946 -0.0693 0.9784
vn 0.3817 -0.0710 0.9215
vn 0.3827 -0.0004 0.9239
vn 0.5556 -0.0012 0.8315
vn 0.5542 -0.0709 0.8294
vn 0.7057 -0.0706 0.7049
vn 0.8294 -0.0710 0.5542
vn 0.8315 -0.0010 0.5556
vn 0.9216 -0.0710 0.3817
vn 0.9239 -0.0004 0.3827
vn 0.9808 -0.0008 0.1951
vn 0.9784 -0.0692 0.1946
vn 0.9942 -0.1023 0.0318
vn 0.0753 -0.9972 -0.0000
vn -0.0000 -1.0000 -0.0000
vn 0.0738 -0.9972 -0.0147
vn 0.0696 -0.9972 -0.0288
vn 0.0626 -0.9972 -0.0418
vn 0.0532 -0.9972 -0.0532
vn 0.0418 -0.9972 -0.0626
vn 0.0288 -0.9972 -0.0696
vn 0.0147 -0.9972 -0.0738
vn -0.0000 -0.9972 -0.0753
vn -0.0147 -0.9972 -0.0738
vn -0.0288 -0.9972 -0.0696
vn -0.0418 -0.9972 -0.0626
vn -0.0532 -0.9972 -0.0532
vn -0.0626 -0.9972 -0.0418
vn -0.0696 -0.9972 -0.0288
vn -0.0738 -0.9972 -0.0147
vn -0.0753 -0.9972 -0.0000
vn -0.0738 -0.9972 0.0147
vn -0.0696 -0.9972 0.0288
vn -0.0626 -0.9972 0.0418
vn -0.0532 -0.9972 0.0532
vn -0.0418 -0.9972 0.0626
vn -0.0288 -0.9972 0.0696
vn -0.0147 -0.9972 0.0738
vn -0.0000 -0.9972 0.0753
vn 0.0147 -0.9972 0.0738
vn 0.0288 -0.9972 0.0696
vn 0.0418 -0.9972 0.0626
vn 0.0532 -0.9972 0.0532
vn 0.0626 -0.9972 0.0418
vn 0.0696 -0.9972 0.0288
vn 0.0738 -0.9972 0.0147
vn 0.9256 -0.3307 -0.1841
vn 0.9437 -0.3308 -0.0000
vn 0.7847 -0.3308 -0.5243
vn 0.8719 -0.3307 -0.3611
vn 0.6675 -0.3307 -0.6671
vn 0.6671 -0.3307 -0.6675
vn 0.7056 -0.0703 -0.7051
vn 0.5243 -0.3308 -0.7847
vn 0.1841 -0.3307 -0.9256
vn 0.3611 -0.3307 -0.8719
vn -0.1841 -0.3308 -0.9256
vn -0.0000 -0.3308 -0.9437
vn -0.3611 -0.3308 -0.8719
vn -0.6671 -0.3307 -0.6675
vn -0.5243 -0.3308 -0.7847
vn -0.6675 -0.3307 -0.6671
vn -0.7051 -0.0703 -0.7056
vn -0.8719 -0.3308 -0.3611
vn -0.7847 -0.3308 -0.5243
vn -0.9256 -0.3308 -0.1841
vn -0.9256 -0.3308 0.1841
vn -0.9437 -0.3308 -0.0000
vn -0.8719 -0.3307 0.3611
vn -0.7847 -0.3307 0.5243
vn -0.7051 -0.0703 0.7056
vn -0.5243 -0.3308 0.7847
vn -0.7056 -0.0703 0.7051
vn -0.6675 -0.3307 0.6671
vn -0.3611 -0.3308 0.8719
vn -0.1841 -0.3308 0.9256
vn 0.1841 -0.3308 0.9256
vn -0.0000 -0.3308 0.9437
vn 0.3611 -0.3307 0.8719
vn 0.5243 -0.3307 0.7847
vn 0.6673 -0.3307 0.6673
vn 0.7847 -0.3308 0.5243
vn 0.7051 -0.0703 0.7056
vn 0.6674 -0.3307 0.6673
vn 0.8719 -0.3308 0.3611
vn 0.9256 -0.3308 0.1841
vn 0.7145 -0.6996 -0.0000
vn 0.3388 -0.9384 -0.0674
vn 0.3455 -0.9384 -0.0000
vn 0.6601 -0.6996 -0.2734
vn 0.7008 -0.6996 -0.1394
vn 0.3192 -0.9384 -0.1322
vn 0.2872 -0.9384 -0.1919
vn 0.5941 -0.6996 -0.3970
vn 0.2443 -0.9384 -0.2443
vn 0.3970 -0.6996 -0.5941
vn 0.5052 -0.6997 -0.5051
vn 0.5053 -0.6995 -0.5053
vn 0.1919 -0.9384 -0.2872
vn 0.2734 -0.6996 -0.6601
vn 0.1322 -0.9384 -0.3192
vn 0.1394 -0.6996 -0.7008
vn 0.0674 -0.9384 -0.3388
vn -0.0000 -0.6996 -0.7145
vn -0.0674 -0.9384 -0.3388
vn -0.0000 -0.9384 -0.3455
vn -0.2734 -0.6996 -0.6601
vn -0.1394 -0.6996 -0.7008
vn -0.1322 -0.9384 -0.3192
vn -0.1919 -0.9384 -0.2872
vn -0.3970 -0.6996 -0.5941
vn -0.2443 -0.9384 -0.2443
vn -0.5941 -0.6996 -0.3970
vn -0.5051 -0.6997 -0.5052
vn -0.5053 -0.6995 -0.5053
vn -0.2872 -0.9384 -0.1919
vn -0.6601 -0.6996 -0.2734
vn -0.3192 -0.9384 -0.1322
vn -0.7008 -0.6996 -0.1394
vn -0.3388 -0.9384 -0.0674
vn -0.7145 -0.6996 -0.0000
vn -0.3388 -0.9384 0.0674
vn -0.3455 -0.9384 -0.0000
vn -0.7008 -0.6996 0.1394
vn -0.3192 -0.9384 0.1322
vn -0.6601 -0.6996 0.2734
vn -0.2872 -0.9384 0.1919
vn -0.5051 -0.6997 0.5052
vn -0.5941 -0.6996 0.3970
vn -0.2443 -0.9384 0.2443
vn -0.5052 -0.6997 0.5051
vn -0.3970 -0.6996 0.5941
vn -0.5053 -0.6995 0.5053
vn -0.1919 -0.9384 0.2872
vn -0.2734 -0.6996 0.6601
vn -0.1322 -0.9384 0.3192
vn -0.1394 -0.6996 0.7008
vn -0.0674 -0.9384 0.3388
vn -0.0000 -0.6996 0.7145
vn 0.0674 -0.9384 0.3388
vn -0.0000 -0.9384 0.3455
vn 0.1394 -0.6996 0.7008
vn 0.1322 -0.9384 0.3192
vn 0.2734 -0.6996 0.6601
vn 0.1919 -0.9384 0.2872
vn 0.5052 -0.6997 0.5051
vn 0.3970 -0.6996 0.5941
vn 0.5053 -0.6995 0.5053
vn 0.5941 -0.6996 0.3970
vn 0.5051 -0.6997 0.5052
vn 0.2443 -0.9384 0.2443
vn 0.6601 -0.6996 0.2734
vn 0.3192 -0.9384 0.1322
vn 0.2873 -0.9384 0.1919
vn 0.7008 -0.6996 0.1394
vn 0.3388 -0.9384 0.0674
vn -0.3114 0.8284 -0.4656
vn -0.4658 0.8284 -0.3111
vn -0.4656 0.8284 0.3114
vn -0.3111 0.8284 0.4658
vn 0.4658 0.8284 0.3110
vn 0.4656 0.8284 -0.3114
vn -0.3110 0.8288 -0.4651
vn -0.4653 0.8288 -0.3106
vn -0.4651 0.8288 0.3110
vn -0.3106 0.8288 0.4653
vn 0.3110 0.8288 0.4651
vn 0.3958 0.8288 0.3954
vn 0.4653 0.8288 0.3106
vn 0.3954 0.8288 -0.3958
vn 0.3106 0.8288 -0.4653
vn 0.7057 -0.0706 -0.7049
vn 0.7049 -0.0706 0.7057
vn 0.7051 -0.0703 -0.7056
vn -0.7056 -0.0703 -0.7051
vn -0.6671 -0.3307 0.6675
vn 0.7056 -0.0703 0.7051
vn 0.5051 -0.6997 -0.5052
vn -0.5052 -0.6997 -0.5051
vt 0.495834 0.833395
vt 0.494738 0.788678
vt 0.502751 0.789463
vt 0.510629 0.791407
vt 0.518215 0.794477
vt 0.525361 0.798619
vt 0.531920 0.803753
vt 0.537754 0.809784
vt 0.542734 0.816588
vt 0.546736 0.824024
vt 0.549648 0.831928
vt 0.551365 0.840111
vt 0.551797 0.848361
vt 0.550864 0.856445
vt 0.548507 0.864099
vt 0.544690 0.871038
vt 0.539413 0.876952
vt 0.532725 0.881514
vt 0.462977 0.871068
vt 0.455895 0.867587
vt 0.450079 0.862725
vt 0.445638 0.856776
vt 0.442622 0.850031
vt 0.441034 0.842771
vt 0.440845 0.835260
vt 0.441996 0.827741
vt 0.444407 0.820435
vt 0.447980 0.813541
vt 0.452603 0.807235
vt 0.458149 0.801670
vt 0.464483 0.796976
vt 0.471462 0.793258
vt 0.478935 0.790600
vt 0.486746 0.789061
vt 0.494037 0.747863
vt 0.507959 0.749078
vt 0.521648 0.752284
vt 0.534860 0.757428
vt 0.558937 0.773172
vt 0.547363 0.764429
vt 0.569377 0.783518
vt 0.578490 0.795295
vt 0.586099 0.808312
vt 0.592037 0.822345
vt 0.596142 0.837147
vt 0.598253 0.852436
vt 0.595802 0.883146
vt 0.598201 0.867892
vt 0.590851 0.897764
vt 0.583124 0.911225
vt 0.572388 0.922891
vt 0.429306 0.908518
vt 0.416905 0.899351
vt 0.407371 0.887968
vt 0.400633 0.875045
vt 0.395036 0.846795
vt 0.396569 0.861156
vt 0.395878 0.832384
vt 0.398932 0.818296
vt 0.404028 0.804854
vt 0.410986 0.792345
vt 0.419611 0.781021
vt 0.429700 0.771101
vt 0.453377 0.756178
vt 0.441032 0.762769
vt 0.480130 0.748658
vt 0.466492 0.751446
vt 0.512972 0.709937
vt 0.493888 0.708356
vt 0.531724 0.714186
vt 0.566993 0.730359
vt 0.549828 0.721030
vt 0.597444 0.755849
vt 0.582947 0.742024
vt 0.610266 0.771628
vt 0.630144 0.808116
vt 0.621222 0.789133
vt 0.636875 0.828313
vt 0.643128 0.871170
vt 0.641260 0.849434
vt 0.638363 0.915041
vt 0.642260 0.893173
vt 0.631021 0.936284
vt 0.373629 0.925371
vt 0.388755 0.941916
vt 0.355712 0.886627
vt 0.362751 0.906660
vt 0.352172 0.865931
vt 0.354504 0.824634
vt 0.351849 0.845114
vt 0.359922 0.804893
vt 0.378207 0.769032
vt 0.367895 0.786251
vt 0.390626 0.753528
vt 0.420758 0.728660
vt 0.404901 0.739996
vt 0.437901 0.719705
vt 0.456021 0.713276
vt 0.474794 0.709473
vt 0.494267 0.669568
vt 0.541498 0.676689
vt 0.518103 0.671503
vt 0.564078 0.685030
vt 0.605435 0.710559
vt 0.585495 0.696382
vt 0.623626 0.727342
vt 0.653888 0.767727
vt 0.639838 0.746486
vt 0.674974 0.815398
vt 0.665635 0.790791
vt 0.681818 0.841269
vt 0.687630 0.895688
vt 0.686080 0.868125
vt 0.686242 0.923672
vt 0.672771 0.979622
vt 0.681518 0.951768
vt 0.341522 0.968671
vt 0.316674 0.918369
vt 0.326638 0.944226
vt 0.310968 0.891800
vt 0.309075 0.865070
vt 0.310692 0.838648
vt 0.315595 0.812955
vt 0.323593 0.788381
vt 0.334496 0.765297
vt 0.348093 0.744051
vt 0.364146 0.724966
vt 0.402475 0.694427
vt 0.382378 0.708338
vt 0.424094 0.683450
vt 0.446861 0.675578
vt 0.470386 0.670929
vt 0.495144 0.631240
vt 0.523466 0.633536
vt 0.551237 0.639603
vt 0.603416 0.662496
vt 0.578020 0.649317
vt 0.648692 0.698293
vt 0.627072 0.678910
vt 0.668043 0.720349
vt 0.684956 0.744770
vt 0.699336 0.771244
vt 0.711147 0.799468
vt 0.727186 0.860053
vt 0.720411 0.829157
vt 0.733434 0.924624
vt 0.731528 0.891935
vt 0.732745 0.958005
vt 0.289100 0.986903
vt 0.277244 0.955251
vt 0.270045 0.923194
vt 0.267330 0.859298
vt 0.266854 0.891092
vt 0.271300 0.828168
vt 0.278658 0.798070
vt 0.303116 0.742475
vt 0.289306 0.769378
vt 0.319914 0.717738
vt 0.339468 0.695530
vt 0.361489 0.676190
vt 0.385633 0.660019
vt 0.438696 0.638145
vt 0.411512 0.647271
vt 0.466730 0.632777
vt 0.496490 0.593215
vt 0.561089 0.602809
vt 0.529124 0.595889
vt 0.591889 0.613819
vt 0.648251 0.647156
vt 0.621073 0.628694
vt 0.673103 0.668881
vt 0.714969 0.720692
vt 0.695392 0.693515
vt 0.745877 0.781241
vt 0.731782 0.750049
vt 0.757396 0.813955
vt 0.773710 0.882952
vt 0.766573 0.847928
vt 0.779134 0.918898
vt 0.785675 0.993671
vt 0.783109 0.955745
vt 0.233561 0.995496
vt 0.223769 0.921495
vt 0.226922 0.958310
vt 0.223803 0.885085
vt 0.227016 0.849264
vt 0.233506 0.814301
vt 0.243371 0.780532
vt 0.256651 0.748338
vt 0.293214 0.690334
vt 0.273307 0.718131
vt 0.316158 0.665361
vt 0.341843 0.643604
vt 0.369897 0.625414
vt 0.399889 0.611086
vt 0.431333 0.600852
vt 0.463713 0.594868
vt 0.498287 0.555360
vt 0.571163 0.566203
vt 0.535121 0.558437
vt 0.605857 0.578466
vt 0.669263 0.615341
vt 0.638700 0.594958
vt 0.697202 0.639227
vt 0.744343 0.695806
vt 0.722273 0.666194
vt 0.779570 0.761262
vt 0.763402 0.727631
vt 0.793105 0.796334
vt 0.804419 0.832538
vt 0.814075 0.869636
vt 0.822783 0.907463
vt 0.831342 0.945961
vt 0.177219 0.994078
vt 0.177129 0.953666
vt 0.178646 0.913796
vt 0.182147 0.874389
vt 0.197140 0.797584
vt 0.188154 0.835567
vt 0.209453 0.760792
vt 0.244712 0.692526
vt 0.225291 0.725616
vt 0.267644 0.662010
vt 0.323147 0.610605
vt 0.293890 0.634552
vt 0.355019 0.590580
vt 0.389026 0.574819
vt 0.424632 0.563591
vt 0.461255 0.557075
vt 0.541506 0.521029
vt 0.500525 0.517516
vt 0.620090 0.543167
vt 0.581568 0.529656
vt 0.656518 0.561241
vt 0.721309 0.609416
vt 0.690381 0.583477
vt 0.749047 0.638555
vt 0.794612 0.704359
vt 0.773475 0.670375
vt 0.827915 0.776893
vt 0.812640 0.740014
vt 0.840997 0.814607
vt 0.864044 0.891289
vt 0.852681 0.852828
vt 0.876458 0.929753
vt 0.891482 0.968031
vt 0.122483 0.983002
vt 0.135344 0.900779
vt 0.129258 0.941928
vt 0.142077 0.859676
vt 0.161962 0.778534
vt 0.150656 0.818818
vt 0.176586 0.739262
vt 0.194877 0.701519
vt 0.242864 0.632890
vt 0.216979 0.665869
vt 0.272352 0.603147
vt 0.340766 0.555445
vt 0.305128 0.577174
vt 0.378744 0.538357
vt 0.418466 0.526221
vt 0.459285 0.519242
vt 0.503207 0.479428
vt 0.592450 0.492956
vt 0.548357 0.483425
vt 0.634803 0.507751
vt 0.711942 0.551527
vt 0.674806 0.527431
vt 0.745811 0.579495
vt 0.802833 0.644657
vt 0.776148 0.610745
vt 0.845601 0.718009
vt 0.825910 0.680612
vt 0.862328 0.756286
vt 0.889816 0.833473
vt 0.876750 0.794929
vt 0.902859 0.871465
vt 0.917736 0.908382
vt 0.084633 0.924008
vt 0.071947 0.963420
vt 0.094283 0.883380
vt 0.114246 0.799739
vt 0.103546 0.841807
vt 0.127586 0.757719
vt 0.164963 0.676335
vt 0.144339 0.716362
vt 0.189670 0.638329
vt 0.251169 0.571122
vt 0.218464 0.603035
vt 0.287458 0.543209
vt 0.326870 0.519847
vt 0.368834 0.501494
vt 0.457736 0.481113
vt 0.412695 0.488505
vt 0.504525 0.462420
vt 0.597453 0.476606
vt 0.551549 0.466651
vt 0.641525 0.491995
vt 0.721718 0.537358
vt 0.683125 0.512414
vt 0.788367 0.598445
vt 0.756891 0.566248
vt 0.816030 0.633285
vt 0.839928 0.670095
vt 0.877581 0.747033
vt 0.860299 0.708219
vt 0.892456 0.785954
vt 0.905901 0.824431
vt 0.919293 0.861897
vt 0.954718 0.930619
vt 0.934599 0.897655
vt 0.051711 0.951900
vt 0.066266 0.914607
vt 0.086967 0.833329
vt 0.076923 0.874801
vt 0.098406 0.790899
vt 0.130141 0.705995
vt 0.112523 0.748213
vt 0.151751 0.664990
vt 0.177583 0.625958
vt 0.207652 0.589648
vt 0.241782 0.556775
vt 0.279636 0.528002
vt 0.320737 0.503915
vt 0.364489 0.485002
vt 0.457149 0.464074
vt 0.410209 0.471639
vt 0.554209 0.452960
vt 0.505644 0.448530
vt 0.506766 0.434957
vt 0.508181 0.418375
vt 0.556849 0.439588
vt 0.605708 0.450259
vt 0.560145 0.423270
vt 0.601602 0.463271
vt 0.652577 0.466648
vt 0.610819 0.434406
vt 0.647083 0.479159
vt 0.696772 0.488303
vt 0.705179 0.473890
vt 0.659400 0.451439
vt 0.729777 0.525846
vt 0.689993 0.500194
vt 0.737724 0.514665
vt 0.774994 0.545086
vt 0.786092 0.532567
vt 0.747562 0.501162
vt 0.766011 0.555500
vt 0.808293 0.578855
vt 0.820475 0.567345
vt 0.798412 0.588482
vt 0.837500 0.615223
vt 0.850586 0.604694
vt 0.851414 0.661596
vt 0.826861 0.624086
vt 0.876488 0.643797
vt 0.862675 0.653428
vt 0.872314 0.700305
vt 0.898438 0.683837
vt 0.884068 0.692717
vt 0.890013 0.739536
vt 0.902140 0.732355
vt 0.917585 0.771632
vt 0.932580 0.763527
vt 0.916904 0.724011
vt 0.918864 0.816998
vt 0.905201 0.778643
vt 0.946424 0.801580
vt 0.931382 0.809839
vt 0.932380 0.853931
vt 0.944883 0.846201
vt 0.947723 0.888586
vt 0.959995 0.879704
vt 0.959722 0.837267
vt 0.967914 0.919534
vt 0.979611 0.908528
vt 0.995019 0.893942
vt 0.974214 0.869427
vt 0.036589 0.941647
vt 0.023110 0.931373
vt 0.051959 0.906521
vt 0.005649 0.918144
vt 0.038593 0.898580
vt 0.063139 0.867584
vt 0.034517 0.852462
vt 0.023180 0.889560
vt 0.073669 0.826294
vt 0.050014 0.860557
vt 0.045590 0.811536
vt 0.060882 0.819474
vt 0.085623 0.783624
vt 0.073255 0.776580
vt 0.088461 0.732880
vt 0.058338 0.768301
vt 0.118605 0.697518
vt 0.100318 0.740424
vt 0.107363 0.689296
vt 0.074071 0.723936
vt 0.140994 0.655723
vt 0.130489 0.646722
vt 0.117636 0.635911
vt 0.093658 0.679480
vt 0.167730 0.615857
vt 0.146265 0.594169
vt 0.198831 0.578714
vt 0.158091 0.606030
vt 0.190190 0.568064
vt 0.234120 0.545055
vt 0.226609 0.533625
vt 0.179568 0.555160
vt 0.273253 0.515576
vt 0.266991 0.503447
vt 0.259275 0.488673
vt 0.217361 0.519735
vt 0.315735 0.490895
vt 0.304785 0.462659
vt 0.360955 0.471524
vt 0.310831 0.478177
vt 0.353228 0.442263
vt 0.408202 0.457857
vt 0.357492 0.458352
vt 0.406243 0.444384
vt 0.456703 0.450153
vt 0.456282 0.436545
vt 0.403840 0.427919
vt 0.455784 0.419913
vt 0.714372 0.176682
vt 0.631015 0.179608
vt 0.698300 0.141388
vt 0.615887 0.155650
vt 0.677004 0.108496
vt 0.597233 0.134296
vt 0.650792 0.078921
vt 0.575451 0.116096
vt 0.620167 0.053517
vt 0.551043 0.101535
vt 0.585798 0.033036
vt 0.524598 0.091013
vt 0.548498 0.018096
vt 0.496777 0.084827
vt 0.509193 0.009160
vt 0.468286 0.083159
vt 0.468884 0.006516
vt 0.428611 0.010265
vt 0.439857 0.086071
vt 0.412227 0.093497
vt 0.389422 0.020318
vt 0.386106 0.105249
vt 0.352323 0.036400
vt 0.362164 0.121021
vt 0.318257 0.058058
vt 0.288054 0.084681
vt 0.341000 0.140404
vt 0.262413 0.115520
vt 0.323131 0.162895
vt 0.241867 0.149719
vt 0.308971 0.187919
vt 0.298821 0.214854
vt 0.226760 0.186352
vt 0.217237 0.224459
vt 0.292858 0.243054
vt 0.213222 0.263090
vt 0.291133 0.271877
vt 0.214416 0.301349
vt 0.293570 0.300718
vt 0.299962 0.329047
vt 0.220283 0.338445
vt 0.230045 0.373736
vt 0.309968 0.356455
vt 0.242653 0.406788
vt 0.323077 0.382712
vt 0.338491 0.407892
vt 0.256765 0.437441
vt 0.354706 0.432844
vt 0.700374 0.421097
vt 0.605764 0.426327
vt 0.618337 0.399509
vt 0.630509 0.372834
vt 0.711012 0.390591
vt 0.720561 0.358112
vt 0.640768 0.345677
vt 0.648279 0.317890
vt 0.727682 0.323718
vt 0.652494 0.289604
vt 0.731315 0.287742
vt 0.653040 0.261139
vt 0.730650 0.250740
vt 0.725116 0.213438
vt 0.649687 0.232950
vt 0.642335 0.205577
vt 0.576120 0.232082
vt 0.471719 0.265223
vt 0.569227 0.215284
vt 0.559902 0.199930
vt 0.548369 0.186362
vt 0.534906 0.174887
vt 0.519841 0.165775
vt 0.503549 0.159245
vt 0.486438 0.155457
vt 0.468941 0.154507
vt 0.451505 0.156423
vt 0.434577 0.161163
vt 0.418591 0.168615
vt 0.403959 0.178602
vt 0.391058 0.190887
vt 0.380220 0.205176
vt 0.371727 0.221133
vt 0.365804 0.238386
vt 0.362616 0.256537
vt 0.362273 0.275167
vt 0.364832 0.293842
vt 0.370310 0.312108
vt 0.378701 0.329467
vt 0.390013 0.345332
vt 0.404308 0.358905
vt 0.421748 0.368938
vt 0.531442 0.370147
vt 0.547488 0.357444
vt 0.560235 0.341905
vt 0.569965 0.324622
vt 0.576808 0.306302
vt 0.580812 0.287466
vt 0.582003 0.268553
vt 0.580417 0.249963
vt 0.614286 0.189335
vt 0.624406 0.212903
vt 0.583979 0.148363
vt 0.600720 0.167648
vt 0.564432 0.131960
vt 0.542535 0.118863
vt 0.493883 0.103890
vt 0.518822 0.109421
vt 0.442890 0.105092
vt 0.468354 0.102430
vt 0.418146 0.111817
vt 0.373337 0.136683
vt 0.394763 0.122437
vt 0.338454 0.174523
vt 0.354411 0.154193
vt 0.325846 0.197166
vt 0.311710 0.247162
vt 0.316872 0.221571
vt 0.310435 0.273366
vt 0.313017 0.299638
vt 0.329156 0.350524
vt 0.319329 0.325490
vt 0.342209 0.374474
vt 0.358145 0.397249
vt 0.597793 0.390954
vt 0.582961 0.415496
vt 0.610706 0.366370
vt 0.621143 0.341296
vt 0.628670 0.315670
vt 0.632952 0.289655
vt 0.633748 0.263567
vt 0.630914 0.237822
vt 0.609505 0.218922
vt 0.586380 0.205476
vt 0.594500 0.224913
vt 0.588117 0.177620
vt 0.600381 0.197390
vt 0.575434 0.187667
vt 0.561908 0.171892
vt 0.572973 0.160073
vt 0.546116 0.158522
vt 0.535491 0.133302
vt 0.555291 0.145176
vt 0.528437 0.147884
vt 0.514055 0.124757
vt 0.509307 0.140242
vt 0.491522 0.119769
vt 0.489204 0.135795
vt 0.468462 0.118475
vt 0.448139 0.136874
vt 0.468640 0.134660
vt 0.423129 0.127049
vt 0.445467 0.120920
vt 0.428229 0.142388
vt 0.409422 0.151070
vt 0.402023 0.136713
vt 0.392202 0.162709
vt 0.365628 0.165600
vt 0.382693 0.149671
vt 0.377009 0.177018
vt 0.351256 0.184105
vt 0.364229 0.193650
vt 0.339931 0.204731
vt 0.354184 0.212205
vt 0.331918 0.226985
vt 0.343220 0.253304
vt 0.347123 0.232244
vt 0.327398 0.250348
vt 0.342578 0.274912
vt 0.326458 0.274300
vt 0.345225 0.296598
vt 0.335259 0.321988
vt 0.329103 0.298335
vt 0.351135 0.317903
vt 0.344800 0.344848
vt 0.360249 0.338389
vt 0.357580 0.366574
vt 0.372516 0.357609
vt 0.373518 0.386870
vt 0.387984 0.375031
vt 0.392812 0.405330
vt 0.565299 0.403906
vt 0.565591 0.372033
vt 0.549103 0.389862
vt 0.581370 0.382291
vt 0.578850 0.352525
vt 0.594625 0.359981
vt 0.589100 0.331903
vt 0.612503 0.313352
vt 0.605059 0.336964
vt 0.616779 0.289379
vt 0.596355 0.310536
vt 0.617744 0.265375
vt 0.601656 0.266982
vt 0.600559 0.288773
vt 0.615320 0.241741
vt 0.599626 0.245557
vt 0.619663 0.956266
vt 0.728998 0.992056
vt 0.840486 0.985254
vt 0.936859 0.943419
vt 0.255728 0.471200
vt 0.705336 0.454019
vt 0.376636 0.419012
vt 0.406948 0.389754
s 1
usemtl Material_#26
f 1/1/1 2/2/2 3/3/3
f 1/1/1 3/3/3 4/4/4
f 1/1/1 4/4/4 5/5/5
f 1/1/1 5/5/5 6/6/6
f 1/1/1 6/6/6 7/7/7
f 1/1/1 7/7/7 8/8/8
f 1/1/1 8/8/8 9/9/9
f 1/1/1 9/9/9 10/10/10
f 1/1/1 10/10/10 11/11/11
f 1/1/1 11/11/11 12/12/12
f 1/1/1 12/12/12 13/13/13
f 1/1/1 13/13/13 14/14/14
f 1/1/1 14/14/14 15/15/15
f 1/1/1 15/15/15 16/16/16
f 1/1/1 16/16/16 17/17/17
f 1/1/1 17/17/17 18/18/18
f 1/1/1 18/19/18 19/20/19
f 1/1/1 19/20/19 20/21/20
f 1/1/1 20/21/20 21/22/21
f 1/1/1 21/22/21 22/23/22
f 1/1/1 22/23/22 23/24/23
f 1/1/1 23/24/23 24/25/24
f 1/1/1 24/25/24 25/26/25
f 1/1/1 25/26/25 26/27/26
f 1/1/1 26/27/26 27/28/27
f 1/1/1 27/28/27 28/29/28
f 1/1/1 28/29/28 29/30/29
f 1/1/1 29/30/29 30/31/30
f 1/1/1 30/31/30 31/32/31
f 1/1/1 31/32/31 32/33/32
f 1/1/1 32/33/32 33/34/33
f 1/1/1 33/34/33 2/2/2
f 34/35/34 3/3/3 2/2/2
f 35/36/35 4/4/4 3/3/3
f 36/37/36 5/5/5 4/4/4
f 37/38/37 6/6/6 5/5/5
f 39/39/38 6/6/6 38/40/39
f 40/41/40 7/7/7 39/39/38
f 41/42/41 8/8/8 40/41/40
f 42/43/42 9/9/9 41/42/41
f 42/43/42 11/11/11 10/10/10
f 43/44/43 12/12/12 11/11/11
f 44/45/44 13/13/13 12/12/12
f 45/46/45 14/14/14 13/13/13
f 47/47/46 14/14/14 46/48/47
f 48/49/48 15/15/15 47/47/46
f 49/50/49 16/16/16 48/49/48
f 50/51/50 17/17/17 49/50/49
f 50/52/50 19/20/19 18/19/18
f 51/53/51 20/21/20 19/20/19
f 52/54/52 21/22/21 20/21/20
f 53/55/53 22/23/22 21/22/21
f 55/56/54 22/23/22 54/57/55
f 56/58/56 23/24/23 55/56/54
f 57/59/57 24/25/24 56/58/56
f 58/60/58 25/26/25 57/59/57
f 58/60/58 27/28/27 26/27/26
f 59/61/59 28/29/28 27/28/27
f 60/62/60 29/30/29 28/29/28
f 61/63/61 30/31/30 29/30/29
f 63/64/62 30/31/30 62/65/63
f 63/64/62 32/33/32 31/32/31
f 65/66/64 32/33/32 64/67/65
f 34/35/34 33/34/33 65/66/64
f 67/68/66 34/35/34 66/69/67
f 67/68/66 36/37/36 35/36/35
f 68/70/68 37/38/37 36/37/36
f 70/71/69 37/38/37 69/72/70
f 70/71/71 39/39/38 38/40/39
f 72/73/72 39/39/38 71/74/73
f 73/75/74 40/41/40 72/73/72
f 73/75/74 42/43/42 41/42/41
f 75/76/75 42/43/42 74/77/76
f 75/76/75 44/45/44 43/44/43
f 76/78/77 45/46/45 44/45/44
f 78/79/78 45/46/45 77/80/79
f 78/79/80 47/47/46 46/48/47
f 80/81/81 47/47/46 79/82/82
f 81/83/83 48/49/48 80/81/81
f 81/83/83 50/51/50 49/50/49
f 83/84/84 50/52/50 82/85/85
f 83/84/84 52/54/52 51/53/51
f 85/86/86 52/54/52 84/87/87
f 86/88/88 53/55/53 85/86/89
f 86/88/90 55/56/54 54/57/55
f 88/89/91 55/56/54 87/90/92
f 88/89/91 57/59/57 56/58/56
f 89/91/93 58/60/58 57/59/57
f 91/92/94 58/60/58 90/93/95
f 91/92/94 60/62/60 59/61/59
f 92/94/96 61/63/61 60/62/60
f 94/95/97 61/63/61 93/96/98
f 95/97/99 62/65/63 94/95/100
f 96/98/101 63/64/62 95/97/102
f 96/98/101 65/66/64 64/67/65
f 97/99/103 34/35/34 65/66/64
f 98/100/104 67/68/66 66/69/67
f 100/101/105 67/68/66 99/102/106
f 101/103/107 68/70/68 100/101/105
f 101/103/107 70/71/108 69/72/109
f 103/104/110 70/71/111 102/105/112
f 104/106/113 71/74/114 103/104/110
f 104/106/113 73/75/74 72/73/72
f 106/107/115 73/75/74 105/108/116
f 106/107/115 75/76/75 74/77/76
f 108/109/117 75/76/75 107/110/118
f 109/111/119 76/78/77 108/109/117
f 109/111/119 78/79/120 77/80/121
f 111/112/122 78/79/123 110/113/124
f 112/114/125 79/82/126 111/112/122
f 112/114/125 81/83/83 80/81/81
f 114/115/127 81/83/83 113/116/128
f 114/117/127 83/84/84 82/85/85
f 116/118/129 83/84/84 115/119/130
f 117/120/131 84/87/87 116/118/129
f 118/121/132 85/86/133 117/120/131
f 119/122/134 86/88/135 118/121/132
f 120/123/136 87/90/137 119/122/134
f 120/123/136 89/91/93 88/89/91
f 121/124/138 90/93/95 89/91/93
f 122/125/139 91/92/94 90/93/95
f 123/126/140 92/94/96 91/92/94
f 124/127/141 93/96/142 92/94/96
f 126/128/143 93/96/144 125/129/145
f 127/130/146 94/95/147 126/128/143
f 127/130/146 96/98/101 95/97/148
f 128/131/149 97/99/103 96/98/101
f 98/100/104 97/99/103 129/132/150
f 130/133/151 99/102/106 98/100/104
f 131/134/152 100/101/105 99/102/106
f 132/135/153 101/103/107 100/101/105
f 134/136/154 101/103/107 133/137/155
f 134/136/154 103/104/110 102/105/112
f 136/138/156 103/104/110 135/139/157
f 137/140/158 104/106/113 136/138/156
f 138/141/159 105/108/116 137/140/158
f 138/141/159 107/110/118 106/107/115
f 139/142/160 108/109/117 107/110/118
f 140/143/161 109/111/119 108/109/117
f 142/144/162 109/111/119 141/145/163
f 142/144/162 111/112/122 110/113/124
f 144/146/164 111/112/122 143/147/165
f 144/146/164 113/116/128 112/114/125
f 145/148/166 114/115/127 113/116/128
f 146/149/167 115/119/130 114/117/127
f 147/150/168 116/118/129 115/119/130
f 148/151/169 117/120/131 116/118/129
f 150/152/170 117/120/131 149/153/171
f 151/154/172 118/121/132 150/152/170
f 151/154/172 120/123/136 119/122/134
f 152/155/173 121/124/138 120/123/136
f 154/156/174 121/124/138 153/157/175
f 154/156/174 123/126/140 122/125/139
f 155/158/176 124/127/141 123/126/140
f 156/159/177 125/129/145 124/127/141
f 157/160/178 126/128/143 125/129/145
f 158/161/179 127/130/146 126/128/143
f 160/162/180 127/130/146 159/163/181
f 161/164/182 128/131/149 160/162/180
f 130/133/151 129/132/150 161/164/182
f 162/165/183 131/134/152 130/133/151
f 164/166/184 131/134/152 163/167/185
f 165/168/186 132/135/153 164/166/184
f 165/168/186 134/136/154 133/137/155
f 167/169/187 134/136/154 166/170/188
f 167/169/187 136/138/156 135/139/157
f 168/171/189 137/140/158 136/138/156
f 170/172/190 137/140/158 169/173/191
f 170/172/190 139/142/160 138/141/159
f 172/174/192 139/142/160 171/175/193
f 173/176/194 140/143/161 172/174/192
f 173/176/194 142/144/162 141/145/163
f 175/177/195 142/144/162 174/178/196
f 175/177/195 144/146/164 143/147/165
f 176/179/197 145/148/166 144/146/164
f 178/180/198 145/148/166 177/181/199
f 178/182/198 147/150/168 146/149/167
f 180/183/200 147/150/168 179/184/201
f 180/183/200 149/153/171 148/151/169
f 181/185/202 150/152/170 149/153/171
f 182/186/203 151/154/172 150/152/170
f 183/187/204 152/155/173 151/154/172
f 184/188/205 153/157/175 152/155/173
f 185/189/206 154/156/174 153/157/175
f 187/190/207 154/156/174 186/191/208
f 188/192/209 155/158/176 187/190/207
f 189/193/210 156/159/177 188/192/209
f 190/194/211 157/160/178 189/193/210
f 191/195/212 158/161/179 190/194/211
f 191/195/212 160/162/180 159/163/181
f 192/196/213 161/164/182 160/162/180
f 193/197/214 130/133/151 161/164/182
f 194/198/215 163/167/185 162/165/183
f 196/199/216 163/167/185 195/200/217
f 197/201/218 164/166/184 196/199/216
f 197/201/218 166/170/188 165/168/186
f 199/202/219 166/170/188 198/203/220
f 199/202/219 168/171/189 167/169/187
f 200/204/221 169/173/191 168/171/189
f 202/205/222 169/173/191 201/206/223
f 202/205/222 171/175/193 170/172/190
f 204/207/224 171/175/193 203/208/225
f 204/207/224 173/176/194 172/174/192
f 205/209/226 174/178/196 173/176/194
f 206/210/227 175/177/195 174/178/196
f 207/211/228 176/179/197 175/177/195
f 208/212/229 177/181/199 176/179/197
f 209/213/230 178/180/198 177/181/199
f 210/214/231 179/184/201 178/182/198
f 211/215/232 180/183/200 179/184/201
f 212/216/233 181/185/202 180/183/200
f 213/217/234 182/186/203 181/185/202
f 215/218/235 182/186/203 214/219/236
f 215/218/235 184/188/205 183/187/204
f 216/220/237 185/189/206 184/188/205
f 218/221/238 185/189/206 217/222/239
f 218/221/238 187/190/207 186/191/208
f 219/223/240 188/192/209 187/190/207
f 221/224/241 188/192/209 220/225/242
f 221/224/241 190/194/211 189/193/210
f 222/226/243 191/195/212 190/194/211
f 223/227/244 192/196/213 191/195/212
f 224/228/245 193/197/214 192/196/213
f 194/198/215 193/197/214 225/229/246
f 227/230/247 194/198/215 226/231/248
f 227/230/247 196/199/216 195/200/217
f 229/232/249 196/199/216 228/233/250
f 230/234/251 197/201/218 229/232/249
f 230/234/251 199/202/219 198/203/220
f 232/235/252 199/202/219 231/236/253
f 233/237/254 200/204/221 232/235/252
f 233/237/254 202/205/222 201/206/223
f 235/238/255 202/205/222 234/239/256
f 235/238/255 204/207/224 203/208/225
f 237/240/257 204/207/224 236/241/258
f 238/242/259 205/209/226 237/240/257
f 238/242/259 207/211/228 206/210/227
f 240/243/260 207/211/228 239/244/261
f 241/245/262 208/212/229 240/243/260
f 242/246/263 209/213/230 241/245/262
f 242/247/263 211/215/232 210/214/231
f 244/248/264 211/215/232 243/249/265
f 245/250/266 212/216/233 244/248/264
f 245/250/266 214/219/236 213/217/234
f 247/251/267 214/219/236 246/252/268
f 248/253/269 215/218/235 247/251/267
f 249/254/270 216/220/237 248/253/269
f 249/254/270 218/221/238 217/222/239
f 251/255/271 218/221/238 250/256/272
f 251/255/271 220/225/242 219/223/240
f 252/257/273 221/224/241 220/225/242
f 254/258/274 221/224/241 253/259/275
f 255/260/276 222/226/243 254/258/274
f 256/261/277 223/227/244 255/260/276
f 257/262/278 224/228/245 256/261/277
f 257/262/278 194/198/215 225/229/246
f 258/263/279 227/230/247 226/231/248
f 260/264/280 227/230/247 259/265/281
f 261/266/282 228/233/250 260/264/280
f 261/266/282 230/234/251 229/232/249
f 263/267/283 230/234/251 262/268/284
f 264/269/285 231/236/253 263/267/283
f 264/269/285 233/237/254 232/235/252
f 266/270/286 233/237/254 265/271/287
f 266/270/286 235/238/255 234/239/256
f 268/272/288 235/238/255 267/273/289
f 268/272/288 237/240/257 236/241/258
f 269/274/290 238/242/259 237/240/257
f 271/275/291 238/242/259 270/276/292
f 272/277/293 239/244/261 271/275/291
f 273/278/294 240/243/260 272/277/293
f 273/278/294 242/246/263 241/245/262
f 275/279/295 242/247/263 274/280/296
f 276/281/297 243/249/265 275/279/295
f 276/281/297 245/250/266 244/248/264
f 278/282/298 245/250/266 277/283/299
f 279/284/300 246/252/268 278/282/298
f 279/284/300 248/253/269 247/251/267
f 281/285/301 248/253/269 280/286/302
f 282/287/303 249/254/270 281/285/301
f 282/287/303 251/255/271 250/256/272
f 284/288/304 251/255/271 283/289/305
f 285/290/306 252/257/273 284/288/304
f 285/290/306 254/258/274 253/259/275
f 286/291/307 255/260/276 254/258/274
f 287/292/308 256/261/277 255/260/276
f 289/293/309 256/261/277 288/294/310
f 258/263/279 257/262/278 289/293/309
f 290/295/311 259/265/281 258/263/279
f 292/296/312 259/265/281 291/297/313
f 293/298/314 260/264/280 292/296/312
f 293/298/314 262/268/284 261/266/282
f 295/299/315 262/268/284 294/300/316
f 295/299/315 264/269/285 263/267/283
f 297/301/317 264/269/285 296/302/318
f 298/303/319 265/271/287 297/301/317
f 298/303/319 267/273/289 266/270/286
f 299/304/320 268/272/288 267/273/289
f 301/305/321 268/272/288 300/306/322
f 302/307/323 269/274/290 301/305/321
f 303/308/324 270/276/292 302/307/323
f 304/309/325 271/275/291 303/308/324
f 304/309/325 273/278/294 272/277/293
f 306/310/326 273/278/294 305/311/327
f 306/312/326 275/279/295 274/280/296
f 307/313/328 276/281/297 275/279/295
f 309/314/329 276/281/297 308/315/330
f 310/316/331 277/283/299 309/314/329
f 310/316/331 279/284/300 278/282/298
f 312/317/332 279/284/300 311/318/333
f 313/319/334 280/286/302 312/317/332
f 314/320/335 281/285/301 313/319/334
f 314/320/335 283/289/305 282/287/303
f 315/321/336 284/288/304 283/289/305
f 316/322/337 285/290/306 284/288/304
f 317/323/338 286/291/307 285/290/306
f 318/324/339 287/292/308 286/291/307
f 319/325/340 288/294/310 287/292/308
f 321/326/341 288/294/310 320/327/342
f 290/295/311 289/293/309 321/326/341
f 323/328/343 290/295/311 322/329/344
f 324/330/345 323/328/343 322/329/344
f 403/331/346 325/332/347 324/330/345
f 323/328/343 292/296/312 291/297/313
f 327/333/348 323/328/343 325/332/347
f 405/334/349 327/333/348 325/332/347
f 326/335/350 293/298/314 292/296/312
f 329/336/351 326/335/350 327/333/348
f 407/337/352 329/336/351 327/333/348
f 328/338/353 294/300/316 293/298/314
f 331/339/354 328/338/353 329/336/351
f 411/340/355 329/336/351 409/341/356
f 332/342/357 294/300/316 330/343/358
f 331/339/354 332/342/357 330/343/358
f 411/340/355 333/344/359 331/339/354
f 332/342/357 296/302/318 295/299/315
f 335/345/360 332/342/357 333/344/359
f 415/346/361 333/344/359 413/347/362
f 334/348/363 297/301/317 296/302/318
f 337/349/364 334/348/363 335/345/360
f 417/350/365 335/345/360 415/346/361
f 336/351/366 298/303/319 297/301/317
f 339/352/367 336/351/366 337/349/364
f 419/353/368 337/349/364 417/350/365
f 340/354/369 298/303/319 338/355/370
f 339/352/367 340/354/369 338/355/370
f 421/356/371 339/352/367 419/353/368
f 340/354/369 300/306/322 299/304/320
f 341/357/372 342/358/373 340/354/369
f 423/359/374 341/357/372 421/356/371
f 342/358/373 301/305/321 300/306/322
f 343/360/375 344/361/376 342/358/373
f 423/359/374 345/362/377 343/360/375
f 344/361/376 302/307/323 301/305/321
f 347/363/378 344/361/376 345/362/377
f 427/364/379 345/362/377 425/365/380
f 348/366/381 302/307/323 346/367/382
f 347/363/378 348/366/381 346/367/382
f 429/368/383 347/363/378 427/364/379
f 348/366/381 304/309/325 303/308/324
f 349/369/384 350/370/385 348/366/381
f 429/368/383 351/371/386 349/369/384
f 352/372/387 304/309/325 350/370/385
f 353/373/388 350/370/385 351/371/386
f 431/374/389 353/373/388 351/371/386
f 354/375/390 305/311/327 352/372/387
f 355/376/391 352/372/387 353/373/388
f 435/377/392 353/373/388 433/378/393
f 354/379/390 307/313/328 306/312/326
f 355/380/391 356/381/394 354/379/390
f 435/382/392 357/383/395 355/380/391
f 356/381/394 308/315/330 307/313/328
f 357/383/395 358/384/396 356/381/394
f 439/385/397 357/383/395 437/386/398
f 360/387/399 308/315/330 358/384/396
f 359/388/400 360/387/399 358/384/396
f 441/389/401 359/388/400 439/385/397
f 360/387/399 310/316/331 309/314/329
f 361/390/402 362/391/403 360/387/399
f 441/389/401 363/392/404 361/390/402
f 362/391/403 311/318/333 310/316/331
f 365/393/405 362/391/403 363/392/404
f 443/394/406 365/393/405 363/392/404
f 366/395/407 311/318/333 364/396/408
f 367/397/409 364/396/408 365/393/405
f 445/398/410 367/397/409 365/393/405
f 368/399/411 312/317/332 366/395/407
f 369/400/412 366/395/407 367/397/409
f 449/401/413 367/397/409 447/402/414
f 370/403/415 313/319/334 368/399/411
f 369/400/412 370/403/415 368/399/411
f 388/404/416 369/400/412 449/401/413
f 372/405/417 314/320/335 370/403/415
f 371/406/418 372/405/417 370/403/415
f 388/404/416 373/407/419 371/406/418
f 374/408/420 315/321/336 372/405/417
f 375/409/421 372/405/417 373/407/419
f 387/410/422 375/409/421 373/407/419
f 376/411/423 316/322/337 374/408/420
f 377/412/424 374/408/420 375/409/421
f 393/413/425 375/409/421 391/414/426
f 376/411/423 318/324/339 317/323/338
f 377/412/424 378/415/427 376/411/423
f 395/416/428 377/412/424 393/413/425
f 380/417/429 318/324/339 378/415/427
f 379/418/430 380/417/429 378/415/427
f 397/419/431 379/418/430 395/416/428
f 382/420/432 319/325/340 380/417/429
f 381/421/433 382/420/432 380/417/429
f 397/419/431 383/422/434 381/421/433
f 384/423/435 320/327/342 382/420/432
f 385/424/436 382/420/432 383/422/434
f 399/425/437 385/424/436 383/422/434
f 384/423/435 290/295/311 321/326/341
f 324/330/345 384/423/435 385/424/436
f 401/426/438 324/330/345 385/424/436
f 388/427/439 386/428/440 387/429/441
f 387/429/441 390/430/442 391/431/443
f 391/431/443 392/432/444 393/433/445
f 393/433/445 394/434/446 395/435/274
f 395/435/274 396/436/447 397/437/448
f 397/437/448 398/438/449 399/439/450
f 399/439/450 400/440/451 401/441/452
f 401/441/452 402/442/453 403/443/248
f 405/444/454 402/442/453 404/445/455
f 405/444/454 406/446/456 407/447/457
f 407/447/457 408/448/458 409/449/459
f 409/449/459 410/450/460 411/451/251
f 413/452/461 410/450/462 412/453/463
f 415/454/464 412/453/463 414/455/465
f 417/456/466 414/455/465 416/457/467
f 417/456/466 418/458/468 419/459/256
f 421/460/469 418/458/468 420/461/470
f 423/462/471 420/461/470 422/463/472
f 425/464/473 422/463/472 424/465/474
f 425/464/473 426/466/475 427/467/259
f 429/468/476 426/466/477 428/469/478
f 431/470/479 428/469/478 430/471/480
f 431/470/479 432/472/481 433/473/482
f 434/474/483 433/473/482 432/472/481
f 437/475/484 434/476/483 436/477/485
f 437/475/484 438/478/486 439/479/487
f 441/480/488 438/478/486 440/481/489
f 441/480/488 442/482/490 443/483/268
f 443/483/268 444/484/491 445/485/492
f 445/485/492 446/486/493 447/487/494
f 449/488/495 446/486/493 448/489/496
f 449/488/495 389/490/497 388/427/439
f 450/491/498 451/492/499 452/493/500
f 452/493/500 451/492/499 453/494/501
f 453/494/501 451/492/499 454/495/502
f 454/495/502 451/492/499 455/496/503
f 455/496/503 451/492/499 456/497/504
f 456/497/504 451/492/499 457/498/505
f 457/498/505 451/492/499 458/499/506
f 458/499/506 451/492/499 459/500/507
f 459/500/507 451/492/499 460/501/508
f 460/501/508 451/492/499 461/502/509
f 461/502/509 451/492/499 462/503/510
f 462/503/510 451/492/499 463/504/511
f 463/504/511 451/492/499 464/505/512
f 464/505/512 451/492/499 465/506/513
f 465/506/513 451/492/499 466/507/514
f 466/507/514 451/492/499 467/508/515
f 467/508/515 451/492/499 468/509/516
f 468/509/516 451/492/499 469/510/517
f 469/510/517 451/492/499 470/511/518
f 470/511/518 451/492/499 471/512/519
f 471/512/519 451/492/499 472/513/520
f 472/513/520 451/492/499 473/514/521
f 473/514/521 451/492/499 474/515/522
f 474/515/522 451/492/499 475/516/523
f 475/517/523 451/492/499 476/518/524
f 476/518/524 451/492/499 477/519/525
f 477/519/525 451/492/499 478/520/526
f 478/520/526 451/492/499 479/521/527
f 479/521/527 451/492/499 480/522/528
f 480/522/528 451/492/499 481/523/529
f 481/523/529 451/492/499 482/524/530
f 482/524/530 451/492/499 450/491/498
f 484/525/531 389/490/497 483/526/532
f 484/525/531 390/430/442 386/428/440
f 486/527/533 390/430/442 485/528/534
f 487/529/535 392/432/444 486/527/533
f 487/529/536 396/436/447 394/434/537
f 488/530/538 398/438/449 396/436/447
f 490/531/539 398/438/449 489/532/540
f 490/531/539 402/442/453 400/440/451
f 492/533/541 402/442/453 491/534/542
f 492/533/541 406/446/456 404/445/455
f 493/535/543 408/448/458 406/446/456
f 495/536/544 408/448/458 494/537/545
f 495/536/546 412/453/463 410/450/547
f 497/538/548 412/453/463 496/539/549
f 498/540/550 414/455/465 497/538/548
f 498/540/550 418/458/468 416/457/467
f 500/541/551 418/458/468 499/542/552
f 501/543/553 420/461/470 500/541/551
f 502/544/554 422/463/472 501/543/553
f 502/544/554 426/466/555 424/465/474
f 504/545/556 426/466/557 503/546/558
f 505/547/559 428/469/478 504/545/556
f 505/547/559 432/472/481 430/471/480
f 506/548/560 434/474/483 432/472/481
f 508/549/561 434/476/483 507/550/562
f 509/551/563 436/477/485 508/549/561
f 510/552/564 438/478/486 509/551/563
f 511/553/565 440/481/489 510/552/564
f 512/554/566 442/482/567 511/553/568
f 512/554/566 446/486/493 444/484/491
f 513/555/569 448/489/496 446/486/493
f 483/526/532 448/489/496 514/556/570
f 515/557/571 484/525/531 483/526/532
f 518/558/572 515/557/571 517/559/573
f 450/491/498 518/558/572 517/559/573
f 519/560/574 484/525/531 516/561/575
f 520/562/576 516/561/575 518/558/572
f 453/494/501 518/558/572 452/493/500
f 519/560/574 486/527/533 485/528/534
f 522/563/577 519/560/574 520/562/576
f 453/494/501 522/563/577 520/562/576
f 521/564/578 487/529/535 486/527/533
f 524/565/579 521/564/578 522/563/577
f 455/496/503 522/563/577 454/495/502
f 525/566/580 487/529/536 523/567/581
f 524/565/579 525/566/580 523/567/582
f 455/496/503 526/568/583 524/565/579
f 527/569/584 488/530/538 525/566/580
f 526/568/583 527/569/584 525/566/580
f 457/498/505 526/568/583 456/497/504
f 527/569/584 490/531/539 489/532/540
f 528/570/585 529/571/586 527/569/584
f 457/498/505 530/572/587 528/570/585
f 531/573/588 490/531/539 529/571/586
f 530/572/587 531/573/588 529/571/586
f 459/500/507 530/572/587 458/499/506
f 531/573/588 492/533/541 491/534/542
f 534/574/589 531/573/588 532/575/590
f 459/500/507 534/574/589 532/575/590
f 535/576/591 492/533/541 533/577/592
f 536/578/593 533/577/592 534/574/589
f 461/502/509 534/574/589 460/501/508
f 535/576/591 494/537/545 493/535/543
f 538/579/594 535/576/591 536/578/593
f 461/502/509 538/579/594 536/578/593
f 537/580/595 495/536/544 494/537/545
f 540/581/596 537/580/595 538/579/594
f 463/504/511 538/579/594 462/503/510
f 541/582/597 495/536/546 539/583/598
f 540/581/596 541/582/597 539/583/599
f 463/504/511 542/584/600 540/581/596
f 543/585/601 496/539/549 541/582/597
f 542/584/600 543/585/601 541/582/597
f 465/506/513 542/584/600 464/505/512
f 543/585/601 498/540/550 497/538/548
f 544/586/602 545/587/603 543/585/601
f 465/506/513 546/588/604 544/586/602
f 547/589/605 498/540/550 545/587/603
f 546/588/604 547/589/605 545/587/603
f 467/508/515 546/588/604 466/507/514
f 547/589/605 500/541/551 499/542/552
f 550/590/606 547/589/605 548/591/607
f 467/508/515 550/590/606 548/591/607
f 549/592/608 501/543/553 500/541/551
f 552/593/609 549/592/608 550/590/606
f 468/509/516 552/593/609 550/590/606
f 551/594/610 502/544/554 501/543/553
f 554/595/611 551/594/610 552/593/609
f 469/510/517 554/595/611 552/593/609
f 555/596/612 502/544/554 553/597/613
f 556/598/614 553/597/613 554/595/611
f 471/512/519 554/595/611 470/511/518
f 555/596/615 504/545/556 503/546/558
f 556/598/614 557/599/616 555/596/617
f 471/512/519 558/600/618 556/598/614
f 559/601/619 504/545/556 557/599/616
f 560/602/620 557/599/616 558/600/618
f 473/514/521 558/600/618 472/513/520
f 561/603/621 505/547/559 559/601/619
f 560/602/620 561/603/621 559/601/619
f 473/514/521 562/604/622 560/602/620
f 563/605/623 506/548/560 561/603/621
f 562/604/622 563/605/623 561/603/621
f 475/516/523 562/604/622 474/515/522
f 563/606/623 508/549/561 507/550/562
f 566/607/624 563/606/623 564/608/625
f 475/517/523 566/607/624 564/608/625
f 565/609/626 509/551/563 508/549/561
f 568/610/627 565/609/626 566/607/624
f 476/518/524 568/610/627 566/607/624
f 567/611/628 510/552/564 509/551/563
f 570/612/629 567/611/628 568/610/627
f 477/519/525 570/612/629 568/610/627
f 571/613/630 510/552/564 569/614/631
f 570/612/629 571/613/632 569/614/631
f 479/521/527 570/612/629 478/520/526
f 573/615/633 511/553/568 571/613/634
f 572/616/635 573/615/633 571/613/632
f 480/522/528 572/616/635 479/521/527
f 575/617/636 512/554/566 573/615/633
f 576/618/637 573/615/633 574/619/638
f 481/523/529 574/619/638 480/522/528
f 577/620/639 513/555/569 575/617/636
f 578/621/640 575/617/636 576/618/637
f 481/523/529 578/621/640 576/618/637
f 577/620/639 483/526/532 514/556/570
f 517/559/573 577/620/639 578/621/640
f 450/491/498 578/621/640 482/524/530
f 34/35/34 35/36/35 3/3/3
f 35/36/35 36/37/36 4/4/4
f 36/37/36 37/38/37 5/5/5
f 37/38/37 38/40/39 6/6/6
f 39/39/38 7/7/7 6/6/6
f 40/41/40 8/8/8 7/7/7
f 41/42/41 9/9/9 8/8/8
f 42/43/42 10/10/10 9/9/9
f 42/43/42 43/44/43 11/11/11
f 43/44/43 44/45/44 12/12/12
f 44/45/44 45/46/45 13/13/13
f 45/46/45 46/48/47 14/14/14
f 47/47/46 15/15/15 14/14/14
f 48/49/48 16/16/16 15/15/15
f 49/50/49 17/17/17 16/16/16
f 50/51/50 18/18/18 17/17/17
f 50/52/50 51/53/51 19/20/19
f 51/53/51 52/54/52 20/21/20
f 52/54/52 53/55/53 21/22/21
f 53/55/53 54/57/55 22/23/22
f 55/56/54 23/24/23 22/23/22
f 56/58/56 24/25/24 23/24/23
f 57/59/57 25/26/25 24/25/24
f 58/60/58 26/27/26 25/26/25
f 58/60/58 59/61/59 27/28/27
f 59/61/59 60/62/60 28/29/28
f 60/62/60 61/63/61 29/30/29
f 61/63/61 62/65/63 30/31/30
f 63/64/62 31/32/31 30/31/30
f 63/64/62 64/67/65 32/33/32
f 65/66/64 33/34/33 32/33/32
f 34/35/34 2/2/2 33/34/33
f 67/68/66 35/36/35 34/35/34
f 67/68/66 68/70/68 36/37/36
f 68/70/68 69/72/641 37/38/37
f 70/71/69 38/40/39 37/38/37
f 70/71/71 71/74/642 39/39/38
f 72/73/72 40/41/40 39/39/38
f 73/75/74 41/42/41 40/41/40
f 73/75/74 74/77/76 42/43/42
f 75/76/75 43/44/43 42/43/42
f 75/76/75 76/78/77 44/45/44
f 76/78/77 77/80/643 45/46/45
f 78/79/78 46/48/47 45/46/45
f 78/79/80 79/82/644 47/47/46
f 80/81/81 48/49/48 47/47/46
f 81/83/83 49/50/49 48/49/48
f 81/83/83 82/622/85 50/51/50
f 83/84/84 51/53/51 50/52/50
f 83/84/84 84/87/87 52/54/52
f 85/86/86 53/55/53 52/54/52
f 86/88/88 54/57/55 53/55/53
f 86/88/90 87/90/645 55/56/54
f 88/89/91 56/58/56 55/56/54
f 88/89/91 89/91/93 57/59/57
f 89/91/93 90/93/95 58/60/58
f 91/92/94 59/61/59 58/60/58
f 91/92/94 92/94/96 60/62/60
f 92/94/96 93/96/646 61/63/61
f 94/95/97 62/65/63 61/63/61
f 95/97/99 63/64/62 62/65/63
f 96/98/101 64/67/65 63/64/62
f 96/98/101 97/99/103 65/66/64
f 97/99/103 66/69/67 34/35/34
f 98/100/104 99/102/106 67/68/66
f 100/101/105 68/70/68 67/68/66
f 101/103/107 69/72/647 68/70/68
f 101/103/107 102/105/112 70/71/108
f 103/104/110 71/74/648 70/71/111
f 104/106/113 72/73/72 71/74/114
f 104/106/113 105/108/116 73/75/74
f 106/107/115 74/77/76 73/75/74
f 106/107/115 107/110/118 75/76/75
f 108/109/117 76/78/77 75/76/75
f 109/111/119 77/80/649 76/78/77
f 109/111/119 110/113/124 78/79/120
f 111/112/122 79/82/650 78/79/123
f 112/114/125 80/81/81 79/82/126
f 112/114/125 113/116/128 81/83/83
f 114/115/127 82/622/85 81/83/83
f 114/117/127 115/119/130 83/84/84
f 116/118/129 84/87/87 83/84/84
f 117/120/131 85/86/651 84/87/87
f 118/121/132 86/88/652 85/86/133
f 119/122/134 87/90/653 86/88/135
f 120/123/136 88/89/91 87/90/137
f 120/123/136 121/124/138 89/91/93
f 121/124/138 122/125/139 90/93/95
f 122/125/139 123/126/140 91/92/94
f 123/126/140 124/127/141 92/94/96
f 124/127/141 125/129/145 93/96/142
f 126/128/143 94/95/654 93/96/144
f 127/130/146 95/97/655 94/95/147
f 127/130/146 128/131/149 96/98/101
f 128/131/149 129/132/150 97/99/103
f 98/100/104 66/69/67 97/99/103
f 130/133/151 131/134/152 99/102/106
f 131/134/152 132/135/153 100/101/105
f 132/135/153 133/137/155 101/103/107
f 134/136/154 102/105/112 101/103/107
f 134/136/154 135/139/157 103/104/110
f 136/138/156 104/106/113 103/104/110
f 137/140/158 105/108/116 104/106/113
f 138/141/159 106/107/115 105/108/116
f 138/141/159 139/142/160 107/110/118
f 139/142/160 140/143/161 108/109/117
f 140/143/161 141/145/163 109/111/119
f 142/144/162 110/113/124 109/111/119
f 142/144/162 143/147/165 111/112/122
f 144/146/164 112/114/125 111/112/122
f 144/146/164 145/148/166 113/116/128
f 145/148/166 146/623/167 114/115/127
f 146/149/167 147/150/168 115/119/130
f 147/150/168 148/151/169 116/118/129
f 148/151/169 149/153/171 117/120/131
f 150/152/170 118/121/132 117/120/131
f 151/154/172 119/122/134 118/121/132
f 151/154/172 152/155/173 120/123/136
f 152/155/173 153/157/175 121/124/138
f 154/156/174 122/125/139 121/124/138
f 154/156/174 155/158/176 123/126/140
f 155/158/176 156/159/177 124/127/141
f 156/159/177 157/160/178 125/129/145
f 157/160/178 158/161/179 126/128/143
f 158/161/179 159/163/181 127/130/146
f 160/162/180 128/131/149 127/130/146
f 161/164/182 129/132/150 128/131/149
f 130/133/151 98/100/104 129/132/150
f 162/165/183 163/167/185 131/134/152
f 164/166/184 132/135/153 131/134/152
f 165/168/186 133/137/155 132/135/153
f 165/168/186 166/170/188 134/136/154
f 167/169/187 135/139/157 134/136/154
f 167/169/187 168/171/189 136/138/156
f 168/171/189 169/173/191 137/140/158
f 170/172/190 138/141/159 137/140/158
f 170/172/190 171/175/193 139/142/160
f 172/174/192 140/143/161 139/142/160
f 173/176/194 141/145/163 140/143/161
f 173/176/194 174/178/196 142/144/162
f 175/177/195 143/147/165 142/144/162
f 175/177/195 176/179/197 144/146/164
f 176/179/197 177/181/199 145/148/166
f 178/180/198 146/623/167 145/148/166
f 178/182/198 179/184/201 147/150/168
f 180/183/200 148/151/169 147/150/168
f 180/183/200 181/185/202 149/153/171
f 181/185/202 182/186/203 150/152/170
f 182/186/203 183/187/204 151/154/172
f 183/187/204 184/188/205 152/155/173
f 184/188/205 185/189/206 153/157/175
f 185/189/206 186/191/208 154/156/174
f 187/190/207 155/158/176 154/156/174
f 188/192/209 156/159/177 155/158/176
f 189/193/210 157/160/178 156/159/177
f 190/194/211 158/161/179 157/160/178
f 191/195/212 159/163/181 158/161/179
f 191/195/212 192/196/213 160/162/180
f 192/196/213 193/197/214 161/164/182
f 193/197/214 162/165/183 130/133/151
f 194/198/215 195/200/217 163/167/185
f 196/199/216 164/166/184 163/167/185
f 197/201/218 165/168/186 164/166/184
f 197/201/218 198/203/220 166/170/188
f 199/202/219 167/169/187 166/170/188
f 199/202/219 200/204/221 168/171/189
f 200/204/221 201/206/223 169/173/191
f 202/205/222 170/172/190 169/173/191
f 202/205/222 203/208/225 171/175/193
f 204/207/224 172/174/192 171/175/193
f 204/207/224 205/209/226 173/176/194
f 205/209/226 206/210/227 174/178/196
f 206/210/227 207/211/228 175/177/195
f 207/211/228 208/212/229 176/179/197
f 208/212/229 209/213/230 177/181/199
f 209/213/230 210/624/231 178/180/198
f 210/214/231 211/215/232 179/184/201
f 211/215/232 212/216/233 180/183/200
f 212/216/233 213/217/234 181/185/202
f 213/217/234 214/219/236 182/186/203
f 215/218/235 183/187/204 182/186/203
f 215/218/235 216/220/237 184/188/205
f 216/220/237 217/222/239 185/189/206
f 218/221/238 186/191/208 185/189/206
f 218/221/238 219/223/240 187/190/207
f 219/223/240 220/225/242 188/192/209
f 221/224/241 189/193/210 188/192/209
f 221/224/241 222/226/243 190/194/211
f 222/226/243 223/227/244 191/195/212
f 223/227/244 224/228/245 192/196/213
f 224/228/245 225/229/246 193/197/214
f 194/198/215 162/165/183 193/197/214
f 227/230/247 195/200/217 194/198/215
f 227/230/247 228/233/250 196/199/216
f 229/232/249 197/201/218 196/199/216
f 230/234/251 198/203/220 197/201/218
f 230/234/251 231/236/253 199/202/219
f 232/235/252 200/204/221 199/202/219
f 233/237/254 201/206/223 200/204/221
f 233/237/254 234/239/256 202/205/222
f 235/238/255 203/208/225 202/205/222
f 235/238/255 236/241/258 204/207/224
f 237/240/257 205/209/226 204/207/224
f 238/242/259 206/210/227 205/209/226
f 238/242/259 239/244/261 207/211/228
f 240/243/260 208/212/229 207/211/228
f 241/245/262 209/213/230 208/212/229
f 242/246/263 210/624/231 209/213/230
f 242/247/263 243/249/265 211/215/232
f 244/248/264 212/216/233 211/215/232
f 245/250/266 213/217/234 212/216/233
f 245/250/266 246/252/268 214/219/236
f 247/251/267 215/218/235 214/219/236
f 248/253/269 216/220/237 215/218/235
f 249/254/270 217/222/239 216/220/237
f 249/254/270 250/256/272 218/221/238
f 251/255/271 219/223/240 218/221/238
f 251/255/271 252/257/273 220/225/242
f 252/257/273 253/259/275 221/224/241
f 254/258/274 222/226/243 221/224/241
f 255/260/276 223/227/244 222/226/243
f 256/261/277 224/228/245 223/227/244
f 257/262/278 225/229/246 224/228/245
f 257/262/278 226/231/248 194/198/215
f 258/263/279 259/265/281 227/230/247
f 260/264/280 228/233/250 227/230/247
f 261/266/282 229/232/249 228/233/250
f 261/266/282 262/268/284 230/234/251
f 263/267/283 231/236/253 230/234/251
f 264/269/285 232/235/252 231/236/253
f 264/269/285 265/271/287 233/237/254
f 266/270/286 234/239/256 233/237/254
f 266/270/286 267/273/289 235/238/255
f 268/272/288 236/241/258 235/238/255
f 268/272/288 269/274/290 237/240/257
f 269/274/290 270/276/292 238/242/259
f 271/275/291 239/244/261 238/242/259
f 272/277/293 240/243/260 239/244/261
f 273/278/294 241/245/262 240/243/260
f 273/278/294 274/625/296 242/246/263
f 275/279/295 243/249/265 242/247/263
f 276/281/297 244/248/264 243/249/265
f 276/281/297 277/283/299 245/250/266
f 278/282/298 246/252/268 245/250/266
f 279/284/300 247/251/267 246/252/268
f 279/284/300 280/286/302 248/253/269
f 281/285/301 249/254/270 248/253/269
f 282/287/303 250/256/272 249/254/270
f 282/287/303 283/289/305 251/255/271
f 284/288/304 252/257/273 251/255/271
f 285/290/306 253/259/275 252/257/273
f 285/290/306 286/291/307 254/258/274
f 286/291/307 287/292/308 255/260/276
f 287/292/308 288/294/310 256/261/277
f 289/293/309 257/262/278 256/261/277
f 258/263/279 226/231/248 257/262/278
f 290/295/311 291/297/313 259/265/281
f 292/296/312 260/264/280 259/265/281
f 293/298/314 261/266/282 260/264/280
f 293/298/314 294/300/316 262/268/284
f 295/299/315 263/267/283 262/268/284
f 295/299/315 296/302/318 264/269/285
f 297/301/317 265/271/287 264/269/285
f 298/303/319 266/270/286 265/271/287
f 298/303/319 299/304/320 267/273/289
f 299/304/320 300/306/322 268/272/288
f 301/305/321 269/274/290 268/272/288
f 302/307/323 270/276/292 269/274/290
f 303/308/324 271/275/291 270/276/292
f 304/309/325 272/277/293 271/275/291
f 304/309/325 305/311/327 273/278/294
f 306/310/326 274/625/296 273/278/294
f 306/312/326 307/313/328 275/279/295
f 307/313/328 308/315/330 276/281/297
f 309/314/329 277/283/299 276/281/297
f 310/316/331 278/282/298 277/283/299
f 310/316/331 311/318/333 279/284/300
f 312/317/332 280/286/302 279/284/300
f 313/319/334 281/285/301 280/286/302
f 314/320/335 282/287/303 281/285/301
f 314/320/335 315/321/336 283/289/305
f 315/321/336 316/322/337 284/288/304
f 316/322/337 317/323/338 285/290/306
f 317/323/338 318/324/339 286/291/307
f 318/324/339 319/325/340 287/292/308
f 319/325/340 320/327/342 288/294/310
f 321/326/341 289/293/309 288/294/310
f 290/295/311 258/263/279 289/293/309
f 323/328/343 291/297/313 290/295/311
f 324/330/345 325/332/347 323/328/343
f 403/331/346 405/334/349 325/332/347
f 323/328/343 326/335/350 292/296/312
f 327/333/348 326/335/350 323/328/343
f 405/334/349 407/337/352 327/333/348
f 326/335/350 328/338/353 293/298/314
f 329/336/351 328/338/353 326/335/350
f 407/337/352 409/341/356 329/336/351
f 328/338/353 330/343/358 294/300/316
f 331/339/354 330/343/358 328/338/353
f 411/340/355 331/339/354 329/336/351
f 332/342/357 295/299/315 294/300/316
f 331/339/354 333/344/359 332/342/357
f 411/340/355 413/347/362 333/344/359
f 332/342/357 334/348/363 296/302/318
f 335/345/360 334/348/363 332/342/357
f 415/346/361 335/345/360 333/344/359
f 334/348/363 336/351/366 297/301/317
f 337/349/364 336/351/366 334/348/363
f 417/350/365 337/349/364 335/345/360
f 336/351/366 338/355/370 298/303/319
f 339/352/367 338/355/370 336/351/366
f 419/353/368 339/352/367 337/349/364
f 340/354/369 299/304/320 298/303/319
f 339/352/367 341/357/372 340/354/369
f 421/356/371 341/357/372 339/352/367
f 340/354/369 342/358/373 300/306/322
f 341/357/372 343/360/375 342/358/373
f 423/359/374 343/360/375 341/357/372
f 342/358/373 344/361/376 301/305/321
f 343/360/375 345/362/377 344/361/376
f 423/359/374 425/365/380 345/362/377
f 344/361/376 346/367/382 302/307/323
f 347/363/378 346/367/382 344/361/376
f 427/364/379 347/363/378 345/362/377
f 348/366/381 303/308/324 302/307/323
f 347/363/378 349/369/384 348/366/381
f 429/368/383 349/369/384 347/363/378
f 348/366/381 350/370/385 304/309/325
f 349/369/384 351/371/386 350/370/385
f 429/368/383 431/374/389 351/371/386
f 352/372/387 305/311/327 304/309/325
f 353/373/388 352/372/387 350/370/385
f 431/374/389 433/378/393 353/373/388
f 354/375/390 306/310/326 305/311/327
f 355/376/391 354/375/390 352/372/387
f 435/377/392 355/376/391 353/373/388
f 354/379/390 356/381/394 307/313/328
f 355/380/391 357/383/395 356/381/394
f 435/382/392 437/386/398 357/383/395
f 356/381/394 358/384/396 308/315/330
f 357/383/395 359/388/400 358/384/396
f 439/385/397 359/388/400 357/383/395
f 360/387/399 309/314/329 308/315/330
f 359/388/400 361/390/402 360/387/399
f 441/389/401 361/390/402 359/388/400
f 360/387/399 362/391/403 310/316/331
f 361/390/402 363/392/404 362/391/403
f 441/389/401 443/394/406 363/392/404
f 362/391/403 364/396/408 311/318/333
f 365/393/405 364/396/408 362/391/403
f 443/394/406 445/398/410 365/393/405
f 366/395/407 312/317/332 311/318/333
f 367/397/409 366/395/407 364/396/408
f 445/398/410 447/402/414 367/397/409
f 368/399/411 313/319/334 312/317/332
f 369/400/412 368/399/411 366/395/407
f 449/401/413 369/400/412 367/397/409
f 370/403/415 314/320/335 313/319/334
f 369/400/412 371/406/418 370/403/415
f 388/404/416 371/406/418 369/400/412
f 372/405/417 315/321/336 314/320/335
f 371/406/418 373/407/419 372/405/417
f 388/404/416 387/410/422 373/407/419
f 374/408/420 316/322/337 315/321/336
f 375/409/421 374/408/420 372/405/417
f 387/410/422 391/414/426 375/409/421
f 376/411/423 317/323/338 316/322/337
f 377/412/424 376/411/423 374/408/420
f 393/413/425 377/412/424 375/409/421
f 376/411/423 378/415/427 318/324/339
f 377/412/424 379/418/430 378/415/427
f 395/416/428 379/418/430 377/412/424
f 380/417/429 319/325/340 318/324/339
f 379/418/430 381/421/433 380/417/429
f 397/419/431 381/421/433 379/418/430
f 382/420/432 320/327/342 319/325/340
f 381/421/433 383/422/434 382/420/432
f 397/419/431 399/425/437 383/422/434
f 384/423/435 321/326/341 320/327/342
f 385/424/436 384/423/435 382/420/432
f 399/425/437 401/426/438 385/424/436
f 384/423/435 322/329/344 290/295/311
f 324/330/345 322/329/344 384/423/435
f 401/426/438 403/331/346 324/330/345
f 388/427/439 389/490/497 386/428/440
f 387/429/441 386/428/440 390/430/442
f 391/431/443 390/430/442 392/432/444
f 393/433/445 392/432/444 394/434/446
f 395/435/274 394/434/656 396/436/447
f 397/437/448 396/436/447 398/438/449
f 399/439/450 398/438/449 400/440/451
f 401/441/452 400/440/451 402/442/453
f 405/444/454 403/443/248 402/442/453
f 405/444/454 404/445/455 406/446/456
f 407/447/457 406/446/456 408/448/458
f 409/449/459 408/448/458 410/450/460
f 413/452/461 411/451/251 410/450/462
f 415/454/464 413/452/461 412/453/463
f 417/456/466 415/454/464 414/455/465
f 417/456/466 416/457/467 418/458/468
f 421/460/469 419/459/256 418/458/468
f 423/462/471 421/460/469 420/461/470
f 425/464/473 423/462/471 422/463/472
f 425/464/473 424/465/474 426/466/475
f 429/468/476 427/467/259 426/466/477
f 431/470/479 429/468/476 428/469/478
f 431/470/479 430/471/480 432/472/481
f 434/474/483 435/626/263 433/473/482
f 437/475/484 435/627/263 434/476/483
f 437/475/484 436/477/485 438/478/486
f 441/480/488 439/479/487 438/478/486
f 441/480/488 440/481/489 442/482/490
f 443/483/268 442/482/657 444/484/491
f 445/485/492 444/484/491 446/486/493
f 449/488/495 447/487/494 446/486/493
f 449/488/495 448/489/496 389/490/497
f 484/525/531 386/428/440 389/490/497
f 484/525/531 485/528/534 390/430/442
f 486/527/533 392/432/444 390/430/442
f 487/529/535 394/434/658 392/432/444
f 487/529/536 488/530/538 396/436/447
f 488/530/538 489/532/540 398/438/449
f 490/531/539 400/440/451 398/438/449
f 490/531/539 491/534/542 402/442/453
f 492/533/541 404/445/455 402/442/453
f 492/533/541 493/535/543 406/446/456
f 493/535/543 494/537/545 408/448/458
f 495/536/544 410/450/659 408/448/458
f 495/536/546 496/539/549 412/453/463
f 497/538/548 414/455/465 412/453/463
f 498/540/550 416/457/467 414/455/465
f 498/540/550 499/542/552 418/458/468
f 500/541/551 420/461/470 418/458/468
f 501/543/553 422/463/472 420/461/470
f 502/544/554 424/465/474 422/463/472
f 502/544/554 503/546/660 426/466/555
f 504/545/556 428/469/478 426/466/557
f 505/547/559 430/471/480 428/469/478
f 505/547/559 506/548/560 432/472/481
f 506/548/560 507/628/562 434/474/483
f 508/549/561 436/477/485 434/476/483
f 509/551/563 438/478/486 436/477/485
f 510/552/564 440/481/489 438/478/486
f 511/553/565 442/482/661 440/481/489
f 512/554/566 444/484/491 442/482/567
f 512/554/566 513/555/569 446/486/493
f 513/555/569 514/556/570 448/489/496
f 483/526/532 389/490/497 448/489/496
f 515/557/571 516/561/575 484/525/531
f 518/558/572 516/561/575 515/557/571
f 450/491/498 452/493/500 518/558/572
f 519/560/574 485/528/534 484/525/531
f 520/562/576 519/560/574 516/561/575
f 453/494/501 520/562/576 518/558/572
f 519/560/574 521/564/578 486/527/533
f 522/563/577 521/564/578 519/560/574
f 453/494/501 454/495/502 522/563/577
f 521/564/578 523/567/662 487/529/535
f 524/565/579 523/567/582 521/564/578
f 455/496/503 524/565/579 522/563/577
f 525/566/580 488/530/538 487/529/536
f 524/565/579 526/568/583 525/566/580
f 455/496/503 456/497/504 526/568/583
f 527/569/584 489/532/540 488/530/538
f 526/568/583 528/570/585 527/569/584
f 457/498/505 528/570/585 526/568/583
f 527/569/584 529/571/586 490/531/539
f 528/570/585 530/572/587 529/571/586
f 457/498/505 458/499/506 530/572/587
f 531/573/588 491/534/542 490/531/539
f 530/572/587 532/575/590 531/573/588
f 459/500/507 532/575/590 530/572/587
f 531/573/588 533/577/592 492/533/541
f 534/574/589 533/577/592 531/573/588
f 459/500/507 460/501/508 534/574/589
f 535/576/591 493/535/543 492/533/541
f 536/578/593 535/576/591 533/577/592
f 461/502/509 536/578/593 534/574/589
f 535/576/591 537/580/595 494/537/545
f 538/579/594 537/580/595 535/576/591
f 461/502/509 462/503/510 538/579/594
f 537/580/595 539/583/663 495/536/544
f 540/581/596 539/583/599 537/580/595
f 463/504/511 540/581/596 538/579/594
f 541/582/597 496/539/549 495/536/546
f 540/581/596 542/584/600 541/582/597
f 463/504/511 464/505/512 542/584/600
f 543/585/601 497/538/548 496/539/549
f 542/584/600 544/586/602 543/585/601
f 465/506/513 544/586/602 542/584/600
f 543/585/601 545/587/603 498/540/550
f 544/586/602 546/588/604 545/587/603
f 465/506/513 466/507/514 546/588/604
f 547/589/605 499/542/552 498/540/550
f 546/588/604 548/591/607 547/589/605
f 467/508/515 548/591/607 546/588/604
f 547/589/605 549/592/608 500/541/551
f 550/590/606 549/592/608 547/589/605
f 467/508/515 468/509/516 550/590/606
f 549/592/608 551/594/610 501/543/553
f 552/593/609 551/594/610 549/592/608
f 468/509/516 469/510/517 552/593/609
f 551/594/610 553/597/613 502/544/554
f 554/595/611 553/597/613 551/594/610
f 469/510/517 470/511/518 554/595/611
f 555/596/612 503/546/660 502/544/554
f 556/598/614 555/596/617 553/597/613
f 471/512/519 556/598/614 554/595/611
f 555/596/615 557/599/616 504/545/556
f 556/598/614 558/600/618 557/599/616
f 471/512/519 472/513/520 558/600/618
f 559/601/619 505/547/559 504/545/556
f 560/602/620 559/601/619 557/599/616
f 473/514/521 560/602/620 558/600/618
f 561/603/621 506/548/560 505/547/559
f 560/602/620 562/604/622 561/603/621
f 473/514/521 474/515/522 562/604/622
f 563/605/623 507/628/562 506/548/560
f 562/604/622 564/629/625 563/605/623
f 475/516/523 564/629/625 562/604/622
f 563/606/623 565/609/626 508/549/561
f 566/607/624 565/609/626 563/606/623
f 475/517/523 476/518/524 566/607/624
f 565/609/626 567/611/628 509/551/563
f 568/610/627 567/611/628 565/609/626
f 476/518/524 477/519/525 568/610/627
f 567/611/628 569/614/631 510/552/564
f 570/612/629 569/614/631 567/611/628
f 477/519/525 478/520/526 570/612/629
f 571/613/630 511/553/565 510/552/564
f 570/612/629 572/616/635 571/613/632
f 479/521/527 572/616/635 570/612/629
f 573/615/633 512/554/566 511/553/568
f 572/616/635 574/619/638 573/615/633
f 480/522/528 574/619/638 572/616/635
f 575/617/636 513/555/569 512/554/566
f 576/618/637 575/617/636 573/615/633
f 481/523/529 576/618/637 574/619/638
f 577/620/639 514/556/570 513/555/569
f 578/621/640 577/620/639 575/617/636
f 481/523/529 482/524/530 578/621/640
f 577/620/639 515/557/571 483/526/532
f 517/559/573 515/557/571 577/620/639
f 450/491/498 517/559/573 578/621/640
