# Blender 4.1.1
# www.blender.org
mtllib ../Objetos/Mario/Tunel/Tunel.mtl
o isl_Pipe_04_DEF.obj
v 0.500000 0.000000 0.000000
v 0.353553 -0.000000 -0.353553
v 0.000000 -0.000000 -0.500000
v -0.353553 -0.000000 -0.353553
v -0.500000 0.000000 0.000000
v -0.353553 0.000000 0.353553
v 0.000000 0.000000 0.500000
v 0.353553 0.000000 0.353553
v 0.500000 1.750000 -0.000000
v 0.353553 1.750000 -0.353553
v 0.000000 1.750000 -0.500000
v -0.353553 1.750000 -0.353553
v -0.500000 1.750000 -0.000000
v -0.353553 1.750000 0.353553
v 0.000000 1.750000 0.500000
v 0.353553 1.750000 0.353553
v 0.400227 2.000000 0.400227
v -0.000000 2.000000 0.566007
v -0.400227 2.000000 0.400227
v -0.566007 2.000000 -0.000000
v -0.400227 2.000000 -0.400227
v 0.000000 2.000000 -0.566007
v 0.400227 2.000000 -0.400227
v 0.566007 2.000000 -0.000000
v -0.000000 1.750000 0.568397
v 0.401917 1.750000 0.401917
v -0.401917 1.750000 0.401917
v -0.568397 1.750000 -0.000000
v -0.401917 1.750000 -0.401917
v 0.000000 1.750000 -0.568397
v 0.401917 1.750000 -0.401917
v 0.568397 1.750000 -0.000000
v 0.422426 1.971000 0.422426
v 0.422426 1.779000 0.422426
v -0.000000 1.779000 0.597400
v -0.000000 1.971000 0.597400
v -0.422426 1.779000 0.422426
v -0.422426 1.971000 0.422426
v -0.597400 1.779000 -0.000000
v -0.597400 1.971000 -0.000000
v -0.422426 1.779000 -0.422426
v -0.422426 1.971000 -0.422426
v 0.000000 1.971000 -0.597400
v 0.000000 1.779000 -0.597400
v 0.422426 1.971000 -0.422426
v 0.422426 1.779000 -0.422426
v 0.597400 1.971000 -0.000000
v 0.597400 1.779000 -0.000000
v 0.288164 0.500000 0.288164
v -0.000000 0.500000 0.407525
v -0.288164 0.500000 0.288164
v -0.407525 0.500000 -0.000000
v -0.288164 0.500000 -0.288164
v 0.000000 0.500000 -0.407525
v 0.288164 0.500000 -0.288164
v 0.407525 0.500000 -0.000000
v 0.308864 2.000000 0.308864
v -0.000000 2.000000 0.436800
v -0.308864 2.000000 0.308864
v -0.436800 2.000000 -0.000000
v -0.308864 2.000000 -0.308864
v 0.000000 2.000000 -0.436800
v 0.308864 2.000000 -0.308864
v 0.436800 2.000000 -0.000000
v 0.288164 1.970720 0.288164
v -0.000000 1.970720 0.407525
v -0.288164 1.970720 0.288164
v -0.407525 1.970720 -0.000000
v -0.288164 1.970720 -0.288164
v 0.000000 1.970720 -0.407525
v 0.288164 1.970720 -0.288164
v 0.407525 1.970720 -0.000000
vn 0.9239 -0.0000 -0.3827
vn 0.3827 -0.0000 -0.9239
vn -0.3827 -0.0000 -0.9239
vn -0.9239 -0.0000 -0.3827
vn -0.9239 -0.0000 0.3827
vn -0.3827 -0.0000 0.9239
vn 0.3827 -0.0000 0.9239
vn 0.9239 -0.0000 0.3827
vn -0.0000 -1.0000 -0.0000
vn 0.2811 -0.6786 0.6786
vn 0.6786 -0.6786 0.2811
vn -0.2811 -0.6786 0.6786
vn -0.6786 -0.6786 0.2811
vn -0.6786 -0.6786 -0.2811
vn -0.2811 -0.6786 -0.6786
vn 0.2811 -0.6786 -0.6786
vn 0.6786 -0.6786 -0.2811
vn 0.2706 0.7072 0.6532
vn 0.6532 0.7072 0.2706
vn -0.2706 0.7072 0.6532
vn -0.6532 0.7072 0.2706
vn -0.6532 0.7072 -0.2706
vn -0.2706 0.7072 -0.6532
vn 0.2706 0.7072 -0.6532
vn 0.6532 0.7072 -0.2706
vn -0.0000 1.0000 -0.0000
vn -0.2811 0.6785 -0.6787
vn -0.6787 0.6785 -0.2811
vn 0.2811 0.6785 -0.6787
vn 0.6787 0.6785 -0.2811
vn 0.6787 0.6785 0.2811
vn 0.2811 0.6785 0.6787
vn -0.2811 0.6785 0.6787
vn -0.6787 0.6785 0.2811
vn 0.2706 0.7071 0.6532
vn 0.6532 0.7071 0.2706
vn -0.2706 0.7071 0.6532
vn -0.6532 0.7071 0.2706
vn -0.6532 0.7071 -0.2706
vn -0.2706 0.7071 -0.6532
vn 0.2706 0.7071 -0.6532
vn 0.6532 0.7071 -0.2706
vt 0.635875 0.815314
vt 0.723880 0.554478
vt 0.685902 0.149207
s 0
usemtl isl_Pipe_01
f 10/1/1 1/2/1 2/2/1
f 11/1/2 2/2/2 3/2/2
f 11/1/3 4/2/3 12/1/3
f 12/1/4 5/2/4 13/1/4
f 13/1/5 6/2/5 14/1/5
f 14/1/6 7/2/6 15/1/6
f 16/1/7 7/2/7 8/2/7
f 9/1/8 8/2/8 1/2/8
f 15/1/9 26/1/9 25/1/9
f 27/1/9 15/1/9 25/1/9
f 13/1/9 27/1/9 28/1/9
f 29/1/9 13/1/9 28/1/9
f 11/1/9 29/1/9 30/1/9
f 11/1/9 31/1/9 10/1/9
f 9/1/9 31/1/9 32/1/9
f 9/1/9 26/1/9 16/1/9
f 35/1/7 33/1/7 36/1/7
f 37/1/6 36/1/6 38/1/6
f 39/1/5 38/1/5 40/1/5
f 41/1/4 40/1/4 42/1/4
f 41/1/3 43/1/3 44/1/3
f 44/1/2 45/1/2 46/1/2
f 46/1/1 47/1/1 48/1/1
f 48/1/8 33/1/8 34/1/8
f 35/1/10 26/1/10 34/1/10
f 26/1/11 48/1/11 34/1/11
f 27/1/12 35/1/12 37/1/12
f 39/1/13 27/1/13 37/1/13
f 29/1/14 39/1/14 41/1/14
f 44/1/15 29/1/15 41/1/15
f 31/1/16 44/1/16 46/1/16
f 48/1/17 31/1/17 46/1/17
f 17/1/18 36/1/18 33/1/18
f 47/1/19 17/1/19 33/1/19
f 36/1/20 19/1/20 38/1/20
f 19/1/21 40/1/21 38/1/21
f 40/1/22 21/1/22 42/1/22
f 21/1/23 43/1/23 42/1/23
f 43/1/24 23/1/24 45/1/24
f 23/1/25 47/1/25 45/1/25
f 54/3/26 52/3/26 51/3/26
f 54/3/26 50/3/26 55/3/26
f 50/3/26 56/3/26 55/3/26
f 58/1/26 17/1/26 57/1/26
f 19/1/26 58/1/26 59/1/26
f 60/1/26 19/1/26 59/1/26
f 21/1/26 60/1/26 61/1/26
f 21/1/26 62/1/26 22/1/26
f 23/1/26 62/1/26 63/1/26
f 23/1/26 64/1/26 24/1/26
f 17/1/26 64/1/26 57/1/26
f 66/1/3 49/3/3 50/3/3
f 66/1/2 51/3/2 67/1/2
f 68/1/1 51/3/1 52/3/1
f 69/1/8 52/3/8 53/3/8
f 69/1/7 54/3/7 70/1/7
f 71/1/6 54/3/6 55/3/6
f 71/1/5 56/3/5 72/1/5
f 72/1/4 49/3/4 65/1/4
f 58/1/27 65/1/27 66/1/27
f 57/1/28 72/1/28 65/1/28
f 59/1/29 66/1/29 67/1/29
f 68/1/30 59/1/30 67/1/30
f 61/1/31 68/1/31 69/1/31
f 62/1/32 69/1/32 70/1/32
f 63/1/33 70/1/33 71/1/33
f 72/1/34 63/1/34 71/1/34
f 10/1/1 9/1/1 1/2/1
f 11/1/2 10/1/2 2/2/2
f 11/1/3 3/2/3 4/2/3
f 12/1/4 4/2/4 5/2/4
f 13/1/5 5/2/5 6/2/5
f 14/1/6 6/2/6 7/2/6
f 16/1/7 15/1/7 7/2/7
f 9/1/8 16/1/8 8/2/8
f 15/1/9 16/1/9 26/1/9
f 27/1/9 14/1/9 15/1/9
f 13/1/9 14/1/9 27/1/9
f 29/1/9 12/1/9 13/1/9
f 11/1/9 12/1/9 29/1/9
f 11/1/9 30/1/9 31/1/9
f 9/1/9 10/1/9 31/1/9
f 9/1/9 32/1/9 26/1/9
f 35/1/7 34/1/7 33/1/7
f 37/1/6 35/1/6 36/1/6
f 39/1/5 37/1/5 38/1/5
f 41/1/4 39/1/4 40/1/4
f 41/1/3 42/1/3 43/1/3
f 44/1/2 43/1/2 45/1/2
f 46/1/1 45/1/1 47/1/1
f 48/1/8 47/1/8 33/1/8
f 35/1/10 25/1/10 26/1/10
f 26/1/11 32/1/11 48/1/11
f 27/1/12 25/1/12 35/1/12
f 39/1/13 28/1/13 27/1/13
f 29/1/14 28/1/14 39/1/14
f 44/1/15 30/1/15 29/1/15
f 31/1/16 30/1/16 44/1/16
f 48/1/17 32/1/17 31/1/17
f 17/1/35 18/1/35 36/1/35
f 47/1/36 24/1/36 17/1/36
f 36/1/37 18/1/37 19/1/37
f 19/1/38 20/1/38 40/1/38
f 40/1/39 20/1/39 21/1/39
f 21/1/40 22/1/40 43/1/40
f 43/1/41 22/1/41 23/1/41
f 23/1/42 24/1/42 47/1/42
f 54/3/26 53/3/26 52/3/26
f 54/3/26 51/3/26 50/3/26
f 50/3/26 49/3/26 56/3/26
f 58/1/26 18/1/26 17/1/26
f 19/1/26 18/1/26 58/1/26
f 60/1/26 20/1/26 19/1/26
f 21/1/26 20/1/26 60/1/26
f 21/1/26 61/1/26 62/1/26
f 23/1/26 22/1/26 62/1/26
f 23/1/26 63/1/26 64/1/26
f 17/1/26 24/1/26 64/1/26
f 66/1/3 65/1/3 49/3/3
f 66/1/2 50/3/2 51/3/2
f 68/1/1 67/1/1 51/3/1
f 69/1/8 68/1/8 52/3/8
f 69/1/7 53/3/7 54/3/7
f 71/1/6 70/1/6 54/3/6
f 71/1/5 55/3/5 56/3/5
f 72/1/4 56/3/4 49/3/4
f 58/1/27 57/1/27 65/1/27
f 57/1/28 64/1/28 72/1/28
f 59/1/29 58/1/29 66/1/29
f 68/1/30 60/1/30 59/1/30
f 61/1/31 60/1/31 68/1/31
f 62/1/32 61/1/32 69/1/32
f 63/1/33 62/1/33 70/1/33
f 72/1/34 64/1/34 63/1/34
