# Blender 4.1.1
# www.blender.org
mtllib ../Objetos/Mario/Tijolo/Tijolo.mtl
o Cubo
v -1.000000 -1.000000 1.000000
v -1.000000 1.000000 1.000000
v -1.000000 -1.000000 -1.000000
v -1.000000 1.000000 -1.000000
v 1.000000 -1.000000 1.000000
v 1.000000 1.000000 1.000000
v 1.000000 -1.000000 -1.000000
v 1.000000 1.000000 -1.000000
vn -1.0000 -0.0000 -0.0000
vn -0.0000 -0.0000 -1.0000
vn 1.0000 -0.0000 -0.0000
vn -0.0000 -0.0000 1.0000
vn -0.0000 -1.0000 -0.0000
vn -0.0000 1.0000 -0.0000
vt 0.620122 0.032213
vt 0.379878 0.272456
vt 0.379878 0.032213
vt 0.620122 0.272456
vt 0.379878 0.512699
vt 0.620122 0.512699
vt 0.379878 0.752943
vt 0.620122 0.752943
vt 0.379878 0.993186
vt 0.139635 0.752943
vt 0.139635 0.512699
vt 0.860365 0.512699
vt 0.620122 0.993186
vt 0.860365 0.752943
s 0
usemtl Materiais
f 2/1/1 3/2/1 1/3/1
f 4/4/2 7/5/2 3/2/2
f 8/6/3 5/7/3 7/5/3
f 6/8/4 1/9/4 5/7/4
f 7/5/5 1/10/5 3/11/5
f 4/12/6 6/8/6 8/6/6
f 2/1/1 4/4/1 3/2/1
f 4/4/2 8/6/2 7/5/2
f 8/6/3 6/8/3 5/7/3
f 6/8/4 2/13/4 1/9/4
f 7/5/5 5/7/5 1/10/5
f 4/12/6 2/14/6 6/8/6
