# Blender 4.1.1
# www.blender.org
mtllib ../Objetos/Mario/Moeda/Moeda.mtl
o Mario_Coin
v -0.784024 -3.343479 -1.093229
v -0.848520 -3.343479 -0.355970
v -0.703489 -3.398942 -0.477662
v -0.650629 -3.398942 -1.081588
v -4.087389 -1.743202 -1.572335
v -4.345642 -0.888557 -1.594932
v -4.315671 -0.879295 -1.402237
v -4.060097 -1.724982 -1.379879
v -5.682842 -1.152285 -1.521843
v -5.795912 0.000192 -1.531756
v -5.589868 0.000192 -1.703777
v -5.480434 -1.115156 -1.694189
v -5.347959 -2.260475 -1.492542
v -5.156345 -2.187672 -1.665850
v -4.804122 -3.281776 -1.444983
v -4.630039 -3.176094 -1.619817
v -4.072269 -4.176995 -1.380927
v -3.921727 -4.042451 -1.557843
v -3.180458 -4.911641 -1.302900
v -3.058661 -4.753443 -1.482308
v -2.163022 -5.457507 -1.213921
v -2.073990 -5.281778 -1.396176
v -1.059043 -5.793730 -1.117310
v -1.005570 -5.607131 -1.302699
v 0.089032 -5.907221 -1.016848
v 0.105529 -5.716947 -1.205491
v -4.432837 0.000192 -1.602554
v -3.667990 -2.530824 -1.535651
v -3.103560 -3.221184 -1.486241
v -2.415841 -3.787719 -1.426080
v -1.631204 -4.208726 -1.357445
v -0.779852 -4.467975 -1.282953
v 0.105529 -4.555514 -1.205490
v 0.089032 -4.412818 -1.016848
v -0.768637 -4.327997 -1.091904
v -0.742838 -4.281375 -1.279700
v 0.105529 -4.365201 -1.205490
v -3.645100 -2.504375 -1.343559
v -3.086565 -3.187539 -1.294713
v -2.406042 -3.748179 -1.235150
v -1.629597 -4.164784 -1.167242
v -0.787124 -4.421316 -1.093512
v 0.089032 -4.507936 -1.016848
v -4.401947 0.000192 -1.409783
v -4.307174 0.000192 -1.401472
v -4.222697 -0.860730 -1.394089
v -3.972558 -1.688581 -1.372214
v -3.566288 -2.451553 -1.336655
v -3.019581 -3.120287 -1.288852
v -2.353373 -3.669099 -1.230533
v -1.593310 -4.076901 -1.164070
v -4.243290 0.000192 -1.585980
v -4.159732 -0.851467 -1.578674
v -3.912272 -1.670361 -1.557000
v -3.510404 -2.425103 -1.521843
v -2.969553 -3.086641 -1.474523
v -2.310541 -3.629521 -1.416888
v -1.558670 -4.032959 -1.351105
v -4.053782 0.000192 -1.569363
v -3.973860 -0.814339 -1.562378
v -3.737156 -1.597559 -1.541670
v -3.352780 -2.319459 -1.508078
v -2.835546 -2.952098 -1.462801
v -2.205241 -3.471323 -1.407654
v -1.486135 -3.857153 -1.344760
v -0.705901 -4.094776 -1.276489
v 0.105529 -4.175004 -1.205490
v -3.973860 0.814722 -1.562378
v -3.737156 1.597942 -1.541670
v -3.352780 2.319804 -1.508077
v -2.835546 2.952482 -1.462800
v -2.205241 3.471706 -1.407653
v -1.011771 3.245759 -1.303262
v -1.011771 -3.245375 -1.303263
v -0.839257 -3.209586 -1.098085
v -0.908615 -3.209587 -0.305559
v 0.897591 3.343862 -0.203168
v 0.948002 3.209970 -0.143126
v -0.908615 3.209970 -0.305558
v -0.848520 3.343862 -0.355969
v -0.912672 -3.485524 -1.294594
v -0.654151 -3.592929 -1.271953
v -1.236992 -5.793730 0.916389
v -2.340971 -5.457507 0.819821
v -3.358407 -4.911641 0.730799
v -4.250180 -4.176995 0.652772
v -4.982070 -3.281777 0.588716
v -5.525869 -2.260475 0.541157
v -5.860791 -1.152285 0.511856
v -5.973861 0.000191 0.501981
v -0.088879 -5.907221 1.016846
v 1.237145 -5.793730 -0.916429
v 1.059157 -5.793730 1.117270
v -0.941609 -3.235232 -1.297120
v -0.852731 -3.433391 -1.289336
v -0.810014 -3.375861 -1.211993
v -0.872826 -3.225739 -1.217528
v -0.649825 -3.524643 -1.271594
v -0.655337 -3.439209 -1.198347
v 0.916997 -4.094776 -1.134487
v 0.865247 -3.592929 -1.139023
v -0.872826 3.226122 -1.217527
v -0.839257 3.209970 -1.098084
v 0.775871 -3.398942 -0.348224
v 0.897591 -3.343479 -0.203169
v 0.828731 -3.398942 -0.952150
v 0.948002 -3.209587 -0.143127
v 0.962088 -3.343479 -0.940471
v 4.298447 -1.743202 -0.838645
v 4.238161 -1.724982 -0.653859
v 4.493735 -0.879295 -0.631500
v 4.556701 -0.888558 -0.816047
v 5.860944 -1.152285 -0.511895
v 5.691531 -1.115156 -0.716791
v 5.800965 0.000191 -0.707197
v 5.974014 0.000191 -0.501981
v 5.526022 -2.260475 -0.541196
v 5.367442 -2.187672 -0.745130
v 4.982224 -3.281777 -0.588760
v 4.841136 -3.176094 -0.791163
v 4.250333 -4.176995 -0.652816
v 4.132823 -4.042452 -0.853133
v 3.358560 -4.911641 -0.730801
v 3.269758 -4.753443 -0.928673
v 2.341124 -5.457507 -0.819823
v 2.285087 -5.281778 -1.014805
v 1.216666 -5.607131 -1.108282
v 4.643933 0.000192 -0.808420
v 3.879048 -2.530824 -0.875329
v 3.314656 -3.221184 -0.924739
v 2.626937 -3.787719 -0.984901
v 1.842301 -4.208726 -1.053536
v 0.990948 -4.467975 -1.128028
v 0.953973 -4.281375 -1.131276
v 0.946700 -4.327997 -0.941835
v 3.823164 -2.504375 -0.690184
v 3.264667 -3.187539 -0.739030
v 2.584105 -3.748179 -0.798589
v 1.807660 -4.164784 -0.866501
v 0.965188 -4.421316 -0.940232
v 4.580050 0.000191 -0.623955
v 4.485276 0.000191 -0.632223
v 4.400799 -0.860730 -0.639649
v 4.150622 -1.688581 -0.661524
v 3.744352 -2.451553 -0.697045
v 3.197644 -3.120287 -0.744886
v 2.531436 -3.669099 -0.803168
v 1.771451 -4.076901 -0.869669
v 4.370790 -0.851467 -0.832344
v 4.454387 0.000192 -0.824999
v 4.123331 -1.670361 -0.853975
v 3.721462 -2.425103 -0.889137
v 3.180649 -3.086641 -0.936457
v 2.521638 -3.629521 -0.994092
v 1.769805 -4.032959 -1.059876
v 4.264840 0.000192 -0.841616
v 4.184880 -0.814339 -0.848597
v 3.948252 -1.597559 -0.869310
v 3.563877 -2.319459 -0.902902
v 3.046604 -2.952098 -0.948179
v 2.416338 -3.471323 -1.003322
v 1.697232 -3.857153 -1.066215
v 1.222829 -3.245375 -1.107760
v 1.222829 3.245759 -1.107716
v 2.416338 3.471706 -1.003321
v 3.046604 2.952482 -0.948178
v 3.563877 2.319804 -0.902902
v 3.948252 1.597942 -0.869309
v 4.184880 0.814722 -0.848597
v 1.017359 -3.209586 -0.935653
v 1.123769 -3.485524 -1.116387
v 2.163175 -5.457507 1.213876
v 3.180611 -4.911641 1.302899
v 4.072423 -4.176995 1.380921
v 4.804275 -3.281777 1.444939
v 5.348112 -2.260475 1.492503
v 5.682995 -1.152285 1.521799
v 5.796065 0.000191 1.531713
v -0.088879 5.907566 1.016848
v 0.089032 5.907566 -1.016846
v -1.059043 5.794113 -1.117308
v -1.236992 5.794113 0.916391
v 1.063827 -3.433391 -1.121645
v 1.152706 -3.235232 -1.113860
v 1.008173 -3.375861 -1.051407
v 1.071023 -3.225739 -1.045828
v 0.860922 -3.524643 -1.139386
v 0.853496 -3.439209 -1.065053
v 1.071023 3.226122 -1.045827
v 1.017359 3.209970 -0.935652
v -0.784024 3.343862 -1.093228
v -0.650629 3.399325 -1.081587
v -0.703489 3.399325 -0.477660
v -4.087389 1.743585 -1.572334
v -4.060097 1.725366 -1.379879
v -4.315671 0.879678 -1.402237
v -4.345642 0.888941 -1.594932
v -5.682842 1.152668 -1.521842
v -5.480434 1.115539 -1.694189
v -5.347959 2.260858 -1.492541
v -5.156345 2.188056 -1.665849
v -4.804122 3.282160 -1.444982
v -4.630039 3.176477 -1.619817
v -4.072269 4.177377 -1.380926
v -3.921727 4.042835 -1.557841
v -3.180458 4.912024 -1.302899
v -3.058661 4.753827 -1.482307
v -2.163022 5.457928 -1.213876
v -2.073990 5.282161 -1.396174
v -1.005570 5.607513 -1.302697
v 0.105529 5.717368 -1.205489
v -3.667990 2.531207 -1.535651
v -3.103560 3.221568 -1.486240
v -2.415841 3.788102 -1.426078
v -1.631204 4.209109 -1.357443
v -0.779852 4.468358 -1.282952
v 0.105529 4.555897 -1.205489
v 0.089032 4.413201 -1.016847
v 0.105529 4.365623 -1.205489
v -0.742838 4.281758 -1.279698
v -0.768637 4.328379 -1.091903
v -3.645100 2.504758 -1.343559
v -3.086565 3.187922 -1.294712
v -2.406042 3.748563 -1.235149
v -1.629597 4.165167 -1.167241
v -0.787124 4.421698 -1.093510
v 0.089032 4.508318 -1.016847
v -4.222697 0.861113 -1.394089
v -3.972558 1.688964 -1.372214
v -3.566288 2.451936 -1.336654
v -3.019581 3.120670 -1.288851
v -2.353373 3.669483 -1.230532
v -1.593310 4.077283 -1.164069
v -4.159732 0.851851 -1.578674
v -3.912272 1.670745 -1.557000
v -3.510404 2.425487 -1.521842
v -2.969553 3.087024 -1.474522
v -2.310541 3.629905 -1.416887
v -1.558670 4.033342 -1.351104
v -1.486135 3.857537 -1.344759
v -0.705901 4.095159 -1.276488
v 0.105529 4.175387 -1.205489
v -0.655337 3.439592 -1.198346
v 0.853496 3.439592 -1.065052
v 0.828731 3.399325 -0.952149
v -0.912672 3.485907 -1.294593
v -0.654151 3.593312 -1.271952
v -2.340971 5.457928 0.819823
v -3.358407 4.912024 0.730801
v -4.250180 4.177377 0.652773
v -4.982070 3.282160 0.588755
v -5.525869 2.260858 0.541158
v -5.860791 1.152668 0.511857
v 1.059157 5.794113 1.117272
v 1.237145 5.794113 -0.916427
v -0.852731 3.433812 -1.289334
v -0.941609 3.235615 -1.297119
v -0.810014 3.376244 -1.211991
v -0.649825 3.525026 -1.271593
v 0.916997 4.095159 -1.134485
v 0.865247 3.593312 -1.139021
v 0.775871 3.399325 -0.348223
v 0.962088 3.343862 -0.940470
v 4.298447 1.743585 -0.838645
v 4.556701 0.888941 -0.816047
v 4.493735 0.879678 -0.631500
v 4.238161 1.725365 -0.653858
v 5.860944 1.152668 -0.511895
v 5.691531 1.115539 -0.716790
v 5.526022 2.260858 -0.541195
v 5.367442 2.188056 -0.745129
v 4.982224 3.282160 -0.588759
v 4.841136 3.176477 -0.791162
v 4.250333 4.177377 -0.652815
v 4.132823 4.042834 -0.853132
v 3.358560 4.912024 -0.730799
v 3.269758 4.753826 -0.928671
v 2.341124 5.457928 -0.819821
v 2.285087 5.282161 -1.014803
v 1.216666 5.607513 -1.108280
v 3.879048 2.531207 -0.875328
v 3.314656 3.221568 -0.924738
v 2.626937 3.788102 -0.984900
v 1.842301 4.209109 -1.053535
v 0.990948 4.468358 -1.128026
v 0.946700 4.328379 -0.941834
v 0.953973 4.281758 -1.131275
v 3.823164 2.504758 -0.690183
v 3.264667 3.187922 -0.739029
v 2.584105 3.748563 -0.798588
v 1.807660 4.165167 -0.866500
v 0.965188 4.421698 -0.940231
v 4.400799 0.861113 -0.639648
v 4.150622 1.688964 -0.661523
v 3.744352 2.451936 -0.697044
v 3.197644 3.120670 -0.744885
v 2.531436 3.669483 -0.803166
v 1.771451 4.077283 -0.869667
v 4.370790 0.851850 -0.832343
v 4.123331 1.670744 -0.853974
v 3.721462 2.425487 -0.889136
v 3.180649 3.087024 -0.936456
v 2.521638 3.629905 -0.994091
v 1.769805 4.033342 -1.059874
v 1.697232 3.857537 -1.066214
v 1.123769 3.485907 -1.116385
v 2.163175 5.457928 1.213878
v 3.180611 4.912024 1.302900
v 4.072423 4.177377 1.380923
v 4.804275 3.282159 1.444940
v 5.348112 2.260858 1.492504
v 5.682995 1.152667 1.521800
v 1.152706 3.235615 -1.113859
v 1.063827 3.433812 -1.121644
v 1.008173 3.376244 -1.051406
v 0.860922 3.525026 -1.139385
v -0.961934 -3.343479 0.940470
v -0.828578 -3.398942 0.952106
v -0.775718 -3.398942 0.348218
v -0.897438 -3.343479 0.203168
v -4.298294 -1.743202 0.838645
v -4.238008 -1.724983 0.653815
v -4.493582 -0.879295 0.631462
v -4.556547 -0.888558 0.816047
v -5.691378 -1.115157 0.716752
v -5.800811 0.000191 0.707159
v -5.367289 -2.187673 0.745086
v -4.840982 -3.176095 0.791162
v -4.132670 -4.042452 0.853132
v -3.269605 -4.753443 0.928628
v -2.284934 -5.281778 1.014760
v -1.216513 -5.607131 1.108237
v -0.105376 -5.716947 1.205446
v -4.643780 0.000191 0.808382
v -3.878895 -2.530824 0.875328
v -3.314503 -3.221185 0.924695
v -2.626784 -3.787720 0.984862
v -1.842148 -4.208726 1.053492
v -0.990795 -4.467975 1.127983
v -0.105376 -4.555514 1.205446
v -0.088879 -4.412818 1.016847
v -0.105376 -4.365201 1.205446
v -0.953820 -4.281375 1.131237
v -0.946547 -4.327997 0.941795
v -3.823011 -2.504375 0.690140
v -3.264514 -3.187539 0.738986
v -2.583952 -3.748180 0.798549
v -1.807507 -4.164784 0.866457
v -0.965035 -4.421316 0.940188
v -0.088879 -4.507936 1.016847
v -4.579896 0.000191 0.623917
v -4.485123 0.000191 0.632223
v -4.400646 -0.860731 0.639610
v -4.150469 -1.688581 0.661485
v -3.744199 -2.451553 0.697044
v -3.197491 -3.120287 0.744885
v -2.531283 -3.669100 0.803162
v -1.771259 -4.076901 0.869629
v -4.370675 -0.851468 0.832300
v -4.454234 0.000191 0.824999
v -4.123178 -1.670362 0.853936
v -3.721309 -2.425104 0.889093
v -3.180496 -3.086642 0.936418
v -2.521485 -3.629522 0.994091
v -1.769613 -4.032959 1.059874
v -4.264687 0.000191 0.841573
v -4.184765 -0.814339 0.848558
v -3.948099 -1.597559 0.869266
v -3.563724 -2.319460 0.902902
v -3.046489 -2.952099 0.948135
v -2.416185 -3.471324 1.003282
v -1.697079 -3.857154 1.066214
v -0.916844 -4.094776 1.134447
v -0.105376 -4.175004 1.205446
v -1.222676 -3.245376 1.107716
v -1.222676 3.245758 1.107717
v -2.416185 3.471706 1.003284
v -3.046489 2.952481 0.948136
v -3.563724 2.319804 0.902902
v -3.948099 1.597942 0.869266
v -4.184765 0.814722 0.848559
v -1.017206 -3.209587 0.935614
v -0.947848 -3.209587 0.143083
v 0.848673 3.343862 0.355927
v -0.897438 3.343862 0.203169
v -0.947848 3.209970 0.143084
v 0.908768 3.209970 0.305516
v -1.123616 -3.485524 1.116385
v -0.865094 -3.592929 1.138983
v -1.063674 -3.433391 1.121606
v -1.152553 -3.235232 1.113859
v -1.008173 -3.375861 1.052889
v -1.071023 -3.225740 1.047430
v -0.860769 -3.524643 1.139385
v -0.853458 -3.439209 1.066296
v 0.706054 -4.094776 1.276449
v 0.654304 -3.592929 1.271914
v -1.071023 3.226122 1.047431
v -1.017206 3.209969 0.935615
v 0.703642 -3.398942 0.477617
v 0.848673 -3.343479 0.355926
v 0.650782 -3.398942 1.081549
v 0.908768 -3.209587 0.305515
v 0.784177 -3.343479 1.093228
v 4.087542 -1.743202 1.572291
v 4.345795 -0.888558 1.594889
v 4.315825 -0.879295 1.402194
v 4.060250 -1.724983 1.379840
v 5.590021 0.000191 1.703734
v 5.480588 -1.115157 1.694184
v 5.156498 -2.187673 1.665811
v 4.630192 -3.176095 1.619773
v 3.921880 -4.042452 1.557803
v 3.058814 -4.753444 1.482307
v 2.074143 -5.281778 1.396136
v 1.005723 -5.607131 1.302659
v 4.432990 0.000191 1.602516
v 3.668143 -2.530824 1.535608
v 3.103713 -3.221185 1.486240
v 2.415994 -3.787720 1.426035
v 1.631357 -4.208726 1.357405
v 0.780005 -4.467975 1.282909
v 0.768790 -4.327997 1.091864
v 0.743029 -4.281375 1.279698
v 3.645253 -2.504375 1.343516
v 3.086718 -3.187539 1.294669
v 2.406195 -3.748180 1.235149
v 1.629750 -4.164784 1.167198
v 0.787277 -4.421316 1.093510
v 4.402101 0.000191 1.409739
v 4.307327 0.000191 1.401472
v 4.222850 -0.860731 1.394089
v 3.972711 -1.688581 1.372175
v 3.566441 -2.451553 1.336654
v 3.019734 -3.120287 1.288813
v 2.353526 -3.669100 1.230532
v 1.593463 -4.076901 1.164026
v 4.243443 0.000191 1.585937
v 4.159885 -0.851468 1.578636
v 3.912425 -1.670362 1.556961
v 3.510557 -2.425104 1.521799
v 2.969706 -3.086642 1.474479
v 2.310694 -3.629522 1.416844
v 1.558823 -4.032959 1.351060
v 4.053935 0.000191 1.569363
v 3.974013 -0.814339 1.562378
v 3.737309 -1.597559 1.541670
v 3.352933 -2.319460 1.508034
v 2.835699 -2.952099 1.462762
v 2.205395 -3.471324 1.407615
v 1.486288 -3.857154 1.344721
v 1.011924 -3.245376 1.303219
v 3.974013 0.814722 1.562378
v 3.737309 1.597942 1.541670
v 3.352933 2.319804 1.508035
v 2.835699 2.952481 1.462763
v 2.205395 3.471706 1.407616
v 1.011924 3.245758 1.303220
v 0.839449 -3.209587 1.098041
v 0.912825 -3.485524 1.294550
v 0.941763 -3.235232 1.297081
v 0.852922 -3.433391 1.289291
v 0.810282 -3.375861 1.210465
v 0.873132 -3.225740 1.215881
v 0.649978 -3.524643 1.271550
v 0.655567 -3.439209 1.197059
v 0.873132 3.226122 1.215882
v 0.839449 3.209969 1.098042
v -0.961934 3.343861 0.940471
v -0.775718 3.399325 0.348219
v -0.828578 3.399324 0.952107
v -4.298294 1.743585 0.838645
v -4.556547 0.888940 0.816047
v -4.493582 0.879677 0.631462
v -4.238008 1.725365 0.653816
v -5.691378 1.115539 0.716752
v -5.367289 2.188055 0.745087
v -4.840982 3.176477 0.791163
v -4.132670 4.042834 0.853133
v -3.269605 4.753826 0.928630
v -2.284934 5.282161 1.014762
v -1.216513 5.607513 1.108239
v -0.105376 5.717368 1.205448
v -3.878895 2.531207 0.875329
v -3.314503 3.221567 0.924696
v -2.626784 3.788102 0.984863
v -1.842148 4.209109 1.053493
v -0.990795 4.468358 1.127985
v -0.105376 4.555897 1.205447
v -0.088879 4.413201 1.016848
v -0.946547 4.328379 0.941797
v -0.953820 4.281758 1.131238
v -0.105376 4.365623 1.205447
v -3.823011 2.504758 0.690141
v -3.264514 3.187922 0.738987
v -2.583952 3.748562 0.798550
v -1.807507 4.165167 0.866458
v -0.965035 4.421698 0.940189
v -0.088879 4.508318 1.016848
v -4.400646 0.861113 0.639610
v -4.150469 1.688964 0.661486
v -3.744199 2.451936 0.697045
v -3.197491 3.120669 0.744886
v -2.531283 3.669482 0.803163
v -1.771259 4.077283 0.869631
v -4.370675 0.851850 0.832301
v -4.123178 1.670744 0.853937
v -3.721309 2.425486 0.889094
v -3.180496 3.087024 0.936419
v -2.521485 3.629904 0.994092
v -1.769613 4.033342 1.059876
v -1.697079 3.857536 1.066215
v -0.916844 4.095159 1.134449
v -0.105376 4.175387 1.205447
v -0.853458 3.439592 1.066297
v 0.650782 3.399324 1.081550
v 0.655567 3.439592 1.197060
v -1.123616 3.485907 1.116387
v -0.865094 3.593311 1.138984
v -1.152553 3.235615 1.113860
v -1.063674 3.433812 1.121607
v -1.008173 3.376244 1.052890
v -0.860769 3.525026 1.139386
v 0.706054 4.095159 1.276451
v 0.654304 3.593311 1.271915
v 0.703642 3.399325 0.477619
v 0.784177 3.343861 1.093229
v 4.087542 1.743585 1.572292
v 4.060250 1.725365 1.379841
v 4.315825 0.879677 1.402194
v 4.345795 0.888940 1.594889
v 5.480588 1.115539 1.694184
v 5.156498 2.188055 1.665812
v 4.630192 3.176477 1.619774
v 3.921880 4.042834 1.557804
v 3.058814 4.753826 1.482308
v 2.074143 5.282161 1.396138
v 1.005723 5.607513 1.302661
v 3.668143 2.531207 1.535608
v 3.103713 3.221567 1.486241
v 2.415994 3.788102 1.426036
v 1.631357 4.209109 1.357406
v 0.780005 4.468358 1.282910
v 0.743029 4.281758 1.279700
v 0.768790 4.328379 1.091866
v 3.645253 2.504757 1.343516
v 3.086718 3.187922 1.294670
v 2.406195 3.748562 1.235150
v 1.629750 4.165167 1.167199
v 0.787277 4.421698 1.093512
v 4.222850 0.861113 1.394089
v 3.972711 1.688964 1.372176
v 3.566441 2.451935 1.336655
v 3.019734 3.120669 1.288814
v 2.353526 3.669482 1.230533
v 1.593463 4.077283 1.164027
v 4.159885 0.851850 1.578636
v 3.912425 1.670744 1.556962
v 3.510557 2.425486 1.521800
v 2.969706 3.087024 1.474480
v 2.310694 3.629904 1.416845
v 1.558823 4.033342 1.351062
v 1.486288 3.857536 1.344722
v 0.912825 3.485907 1.294551
v 0.852922 3.433812 1.289293
v 0.941763 3.235615 1.297082
v 0.810282 3.376244 1.210466
v 0.649978 3.525026 1.271551
vn 0.7039 0.6952 -0.1457
vn 0.1605 0.9778 -0.1347
vn 0.2033 0.9658 -0.1610
vn 0.9138 0.3711 -0.1647
vn 0.9688 0.1892 -0.1598
vn -0.8905 -0.0000 -0.4549
vn -0.3125 -0.0783 -0.9467
vn -0.8728 -0.1808 -0.4534
vn -0.2898 -0.1537 -0.9447
vn -0.8203 -0.3547 -0.4488
vn -0.7349 -0.5149 -0.4413
vn -0.2528 -0.2231 -0.9414
vn -0.6201 -0.6554 -0.4312
vn -0.2030 -0.2840 -0.9371
vn -0.4802 -0.7706 -0.4190
vn -0.1424 -0.3339 -0.9318
vn -0.3206 -0.8563 -0.4050
vn -0.0733 -0.3710 -0.9257
vn 0.0018 -0.3939 -0.9192
vn -0.1474 -0.9090 -0.3899
vn 0.0798 -0.4016 -0.9123
vn 0.0327 -0.9268 -0.3741
vn 0.0871 -0.0000 -0.9962
vn -0.3202 -0.0000 -0.9474
vn 0.0872 -0.0000 -0.9962
vn 0.0212 -0.9699 -0.2426
vn -0.1672 -0.9512 -0.2592
vn 0.0213 -0.9698 -0.2429
vn 0.8246 0.5388 -0.1725
vn 0.8246 0.5388 -0.1724
vn 0.7044 0.6858 -0.1830
vn 0.5580 0.8064 -0.1957
vn 0.5580 0.8064 -0.1956
vn 0.3910 0.8960 -0.2103
vn 0.3910 0.8961 -0.2103
vn 0.2097 0.9512 -0.2262
vn 0.0212 0.9699 -0.2428
vn 0.9689 0.1892 -0.1598
vn 0.9874 -0.0000 -0.1582
vn 0.0873 -0.0000 -0.9962
vn 0.0874 -0.0000 -0.9962
vn 0.0872 0.0001 -0.9962
vn 0.0872 -0.0001 -0.9962
vn -0.9264 -0.1892 -0.3255
vn -0.9450 -0.0000 -0.3272
vn -0.8714 -0.3711 -0.3209
vn -0.7821 -0.5388 -0.3130
vn -0.6619 -0.6858 -0.3026
vn -0.5155 -0.8064 -0.2898
vn -0.5155 -0.8064 -0.2897
vn -0.3485 -0.8960 -0.2751
vn -0.1673 -0.9512 -0.2591
vn 0.0870 -0.0001 -0.9962
vn 0.9763 0.1877 -0.1077
vn 0.5389 0.7106 -0.4523
vn 0.0859 -0.1692 -0.9818
vn 0.5389 -0.7106 -0.4523
vn -0.4522 -0.7106 -0.5391
vn -0.2129 -0.9090 0.3584
vn -0.3861 -0.8563 0.3432
vn -0.6856 -0.6554 0.3170
vn -0.5457 -0.7706 0.3293
vn -0.8004 -0.5149 0.3069
vn -0.9383 -0.1808 0.2949
vn -0.8857 -0.3547 0.2995
vn -0.9560 -0.0000 0.2934
vn 0.1474 -0.9090 0.3899
vn -0.0326 -0.9269 0.3739
vn 0.2861 0.2117 -0.9345
vn 0.8517 0.1676 -0.4966
vn 0.6201 0.5710 -0.5380
vn 0.1419 0.3030 -0.9424
vn 0.2230 0.7985 -0.5591
vn 0.9763 -0.1877 -0.1077
vn 0.8517 -0.1676 -0.4966
vn 0.9818 0.1694 0.0859
vn 0.9818 -0.1694 0.0859
vn -0.1347 0.9778 -0.1605
vn -0.4522 0.7106 -0.5391
vn 0.0859 0.1693 -0.9818
vn 0.0859 -0.1693 -0.9818
vn -0.6671 0.6950 -0.2682
vn -0.8714 0.3711 -0.3209
vn -0.9264 0.1892 -0.3256
vn 0.4721 -0.0783 -0.8780
vn 0.9560 -0.0000 -0.2933
vn 0.9383 -0.1808 -0.2949
vn 0.4494 -0.1537 -0.8800
vn 0.8857 -0.3547 -0.2995
vn 0.8004 -0.5149 -0.3070
vn 0.6856 -0.6553 -0.3170
vn 0.4124 -0.2231 -0.8832
vn 0.3021 -0.3339 -0.8929
vn 0.5457 -0.7706 -0.3292
vn 0.3861 -0.8563 -0.3432
vn 0.2129 -0.9090 -0.3584
vn 0.2329 -0.3710 -0.8989
vn 0.1579 -0.3938 -0.9055
vn 0.3627 -0.2839 -0.8876
vn 0.2097 -0.9514 -0.2258
vn -0.7821 0.5388 -0.3130
vn -0.6620 0.6858 -0.3024
vn -0.5155 0.8064 -0.2897
vn -0.3485 0.8960 -0.2751
vn -0.1672 0.9512 -0.2593
vn -0.9449 -0.0000 -0.3272
vn -0.9449 -0.0000 -0.3273
vn 0.0869 -0.0000 -0.9962
vn 0.0869 0.0002 -0.9962
vn 0.0871 0.0001 -0.9962
vn 0.0870 0.0002 -0.9962
vn 0.0870 0.0003 -0.9962
vn 0.9689 -0.1892 -0.1596
vn 0.9138 -0.3711 -0.1647
vn 0.9688 -0.1892 -0.1600
vn 0.8246 -0.5388 -0.1725
vn 0.8246 -0.5388 -0.1724
vn 0.7044 -0.6858 -0.1829
vn 0.5580 -0.8064 -0.1958
vn 0.3910 -0.8960 -0.2104
vn -0.9420 0.1877 -0.2781
vn -0.9818 0.1693 -0.0859
vn 0.0859 0.1692 -0.9818
vn 0.3206 -0.8563 0.4050
vn 0.4802 -0.7706 0.4190
vn 0.6201 -0.6553 0.4313
vn 0.7350 -0.5149 0.4413
vn 0.8203 -0.3547 0.4488
vn 0.8728 -0.1808 0.4533
vn 0.8905 -0.0000 0.4549
vn 0.0327 0.9268 -0.3740
vn -0.2128 0.9090 0.3584
vn -0.0327 0.9268 0.3741
vn -0.1220 0.2143 -0.9691
vn 0.0870 -0.0000 -0.9962
vn -0.7547 0.1683 -0.6341
vn -0.5187 0.5731 -0.6344
vn -0.1227 0.8003 -0.5870
vn -0.9420 -0.1877 -0.2781
vn -0.7547 -0.1683 -0.6341
vn -0.9818 -0.1693 -0.0859
vn 0.7039 -0.6952 -0.1457
vn 0.1605 -0.9778 -0.1347
vn 0.9688 -0.1892 -0.1598
vn 0.9689 -0.1892 -0.1598
vn -0.3125 0.0783 -0.9467
vn -0.8728 0.1808 -0.4534
vn -0.2898 0.1537 -0.9447
vn -0.8203 0.3547 -0.4488
vn -0.7349 0.5149 -0.4413
vn -0.6201 0.6554 -0.4312
vn -0.2528 0.2231 -0.9414
vn -0.4802 0.7706 -0.4190
vn -0.2030 0.2840 -0.9371
vn -0.0733 0.3710 -0.9257
vn -0.3206 0.8563 -0.4050
vn 0.0018 0.3939 -0.9192
vn -0.1474 0.9090 -0.3899
vn 0.0798 0.4017 -0.9123
vn -0.1424 0.3339 -0.9318
vn 0.0213 0.9699 -0.2427
vn -0.1672 0.9512 -0.2591
vn -0.1673 0.9512 -0.2591
vn 0.7044 -0.6858 -0.1830
vn 0.5580 -0.8064 -0.1957
vn 0.5580 -0.8064 -0.1956
vn 0.3910 -0.8960 -0.2103
vn 0.3910 -0.8961 -0.2103
vn 0.2097 -0.9512 -0.2262
vn 0.0212 -0.9699 -0.2428
vn -0.9264 0.1892 -0.3255
vn -0.6619 0.6858 -0.3026
vn -0.5155 0.8064 -0.2898
vn 0.2230 -0.7985 -0.5592
vn -0.1720 -0.9655 -0.1956
vn 0.2033 -0.9658 -0.1610
vn -0.3861 0.8562 0.3432
vn -0.5457 0.7706 0.3293
vn -0.6856 0.6554 0.3170
vn -0.8004 0.5149 0.3070
vn -0.8857 0.3547 0.2995
vn -0.9383 0.1808 0.2949
vn 0.1474 0.9090 0.3899
vn 0.2860 -0.2116 -0.9346
vn 0.6201 -0.5709 -0.5381
vn -0.1347 -0.9778 -0.1605
vn -0.6671 -0.6950 -0.2682
vn -0.9264 -0.1892 -0.3256
vn 0.4721 0.0783 -0.8780
vn 0.9383 0.1808 -0.2949
vn 0.4494 0.1537 -0.8800
vn 0.8857 0.3547 -0.2995
vn 0.8004 0.5149 -0.3070
vn 0.4124 0.2231 -0.8832
vn 0.6856 0.6553 -0.3170
vn 0.3627 0.2839 -0.8876
vn 0.3021 0.3339 -0.8929
vn 0.5457 0.7706 -0.3292
vn 0.3861 0.8563 -0.3432
vn 0.2329 0.3710 -0.8989
vn 0.2128 0.9090 -0.3584
vn 0.1579 0.3939 -0.9055
vn 0.4798 -0.0000 -0.8774
vn 0.2097 0.9513 -0.2261
vn 0.0212 0.9699 -0.2427
vn -0.6620 -0.6858 -0.3024
vn -0.1672 -0.9512 -0.2593
vn 0.0869 -0.0002 -0.9962
vn 0.0871 -0.0001 -0.9962
vn 0.0870 -0.0003 -0.9962
vn 0.9689 0.1892 -0.1595
vn 0.9689 0.1892 -0.1596
vn 0.9139 0.3711 -0.1647
vn 0.7044 0.6858 -0.1829
vn 0.5580 0.8064 -0.1958
vn 0.3910 0.8960 -0.2104
vn 0.3206 0.8562 0.4051
vn 0.4802 0.7706 0.4190
vn 0.6201 0.6553 0.4313
vn 0.8203 0.3547 0.4488
vn 0.7350 0.5149 0.4413
vn 0.8728 0.1808 0.4533
vn -0.1218 -0.2142 -0.9692
vn -0.5187 -0.5733 -0.6343
vn 0.0232 -0.3067 -0.9515
vn -0.1227 -0.8003 -0.5870
vn -0.2466 -0.0661 -0.9669
vn 0.1419 -0.3031 -0.9424
vn 0.4066 -0.0651 -0.9113
vn 0.0231 0.3067 -0.9515
vn -0.2470 0.0662 -0.9668
vn 0.4066 0.0651 -0.9113
vn -0.1720 0.9655 -0.1956
vn 0.6678 0.6952 0.2658
vn 0.1347 0.9778 0.1605
vn 0.4522 0.7106 0.5390
vn 0.8714 0.3711 0.3208
vn 0.9264 0.1892 0.3255
vn -0.4721 -0.0783 0.8780
vn -0.4494 -0.1537 0.8800
vn -0.4125 -0.2231 0.8832
vn -0.3020 -0.3339 0.8929
vn -0.2329 -0.3710 0.8989
vn -0.1579 -0.3938 0.9055
vn -0.0872 -0.0000 0.9962
vn -0.0871 -0.0000 0.9962
vn -0.3627 -0.2840 0.8876
vn -0.0798 -0.4015 0.9124
vn -0.0212 -0.9699 0.2426
vn -0.2097 -0.9513 0.2261
vn -0.0212 -0.9699 0.2425
vn 0.7821 0.5388 0.3130
vn 0.6620 0.6858 0.3024
vn 0.5155 0.8064 0.2897
vn 0.3485 0.8960 0.2751
vn 0.1672 0.9512 0.2593
vn -0.0212 0.9698 0.2428
vn 0.9449 -0.0000 0.3272
vn -0.0873 -0.0000 0.9962
vn -0.0870 0.0001 0.9962
vn -0.0872 -0.0001 0.9962
vn -0.0874 -0.0002 0.9962
vn -0.0872 0.0001 0.9962
vn -0.9688 -0.1892 0.1598
vn -0.9874 -0.0000 0.1582
vn -0.9139 -0.3711 0.1647
vn -0.9138 -0.3711 0.1647
vn -0.8246 -0.5388 0.1725
vn -0.7044 -0.6858 0.1830
vn -0.5580 -0.8064 0.1958
vn -0.3910 -0.8961 0.2103
vn -0.3910 -0.8960 0.2103
vn -0.0873 -0.0001 0.9962
vn -0.0871 0.0001 0.9962
vn 0.9427 0.1878 0.2756
vn 0.9818 0.1693 0.0859
vn -0.5389 -0.7106 0.4523
vn -0.0859 -0.1694 0.9818
vn -0.0859 -0.1693 0.9818
vn 0.1194 0.2116 0.9700
vn 0.7525 0.1677 0.6369
vn 0.5171 0.5709 0.6377
vn 0.1225 0.7985 0.5894
vn 0.9427 -0.1878 0.2756
vn 0.7525 -0.1677 0.6369
vn 0.9818 -0.1693 0.0859
vn -0.5389 0.7106 0.4523
vn -0.1605 0.9778 0.1347
vn -0.2033 0.9655 0.1627
vn -0.0859 0.1694 0.9818
vn -0.7036 0.6950 0.1482
vn -0.9138 0.3711 0.1647
vn -0.9688 0.1892 0.1598
vn 0.3125 -0.0783 0.9467
vn 0.2898 -0.1537 0.9447
vn 0.2528 -0.2231 0.9414
vn 0.2030 -0.2839 0.9371
vn 0.1424 -0.3339 0.9318
vn 0.0733 -0.3710 0.9257
vn -0.0018 -0.3939 0.9192
vn 0.3202 -0.0000 0.9474
vn 0.1673 -0.9513 0.2591
vn -0.8246 0.5388 0.1725
vn -0.8246 0.5388 0.1724
vn -0.7044 0.6858 0.1829
vn -0.5580 0.8064 0.1957
vn -0.3910 0.8961 0.2103
vn -0.2097 0.9512 0.2263
vn -0.9689 0.1892 0.1598
vn -0.0869 -0.0001 0.9962
vn -0.0869 -0.0000 0.9962
vn -0.0875 0.0001 0.9962
vn -0.0872 0.0003 0.9962
vn 0.9264 -0.1892 0.3256
vn 0.8714 -0.3711 0.3209
vn 0.7821 -0.5388 0.3130
vn 0.6619 -0.6858 0.3026
vn 0.5155 -0.8064 0.2898
vn 0.3485 -0.8960 0.2751
vn -0.0870 -0.0001 0.9962
vn -0.0871 -0.0001 0.9962
vn -0.9760 0.1877 0.1101
vn -0.2885 0.2143 0.9332
vn -0.8535 0.1683 0.4932
vn -0.6210 0.5731 0.5348
vn -0.1423 0.3065 0.9412
vn -0.2228 0.8003 0.5567
vn -0.9760 -0.1877 0.1101
vn -0.8535 -0.1683 0.4932
vn -0.9818 -0.1694 -0.0859
vn 0.6678 -0.6952 0.2658
vn 0.1347 -0.9778 0.1605
vn 0.1724 -0.9658 0.1938
vn 0.9264 -0.1892 0.3255
vn 0.8714 -0.3711 0.3208
vn -0.4721 0.0783 0.8780
vn -0.4494 0.1537 0.8800
vn -0.4125 0.2231 0.8832
vn -0.3627 0.2840 0.8876
vn -0.3021 0.3339 0.8929
vn -0.2329 0.3710 0.8990
vn -0.1579 0.3938 0.9055
vn -0.0798 0.4016 0.9123
vn -0.4798 -0.0000 0.8774
vn -0.2097 0.9513 0.2261
vn -0.0213 0.9698 0.2428
vn 0.6620 -0.6858 0.3024
vn 0.5155 -0.8064 0.2897
vn 0.1672 -0.9512 0.2593
vn -0.0213 -0.9698 0.2428
vn -0.0212 -0.9698 0.2428
vn -0.9139 0.3711 0.1647
vn -0.7044 0.6858 0.1830
vn -0.5580 0.8064 0.1958
vn -0.3910 0.8960 0.2103
vn 0.1225 -0.7985 0.5894
vn -0.2033 -0.9655 0.1627
vn -0.2227 -0.8003 0.5568
vn 0.4522 -0.7106 0.5390
vn 0.1194 -0.2116 0.9700
vn 0.5171 -0.5708 0.6378
vn -0.0240 -0.3030 0.9527
vn -0.1605 -0.9778 0.1347
vn -0.7036 -0.6950 0.1482
vn -0.9689 -0.1892 0.1598
vn 0.3125 0.0783 0.9467
vn 0.2898 0.1537 0.9447
vn 0.2528 0.2231 0.9414
vn 0.2030 0.2839 0.9371
vn 0.0733 0.3710 0.9257
vn -0.0018 0.3939 0.9192
vn 0.1424 0.3339 0.9318
vn 0.1673 0.9513 0.2591
vn -0.8246 -0.5388 0.1724
vn -0.7044 -0.6858 0.1829
vn -0.5580 -0.8064 0.1957
vn -0.2097 -0.9512 0.2263
vn -0.0869 0.0001 0.9962
vn -0.0869 0.0002 0.9962
vn -0.0872 -0.0003 0.9962
vn 0.9264 0.1892 0.3256
vn 0.9449 -0.0000 0.3273
vn 0.8714 0.3711 0.3209
vn 0.6619 0.6858 0.3026
vn 0.5155 0.8064 0.2898
vn -0.2887 -0.2144 0.9331
vn -0.6210 -0.5730 0.5348
vn -0.1423 -0.3065 0.9412
vn -0.4109 -0.0661 0.9093
vn 0.2421 -0.0650 0.9681
vn -0.4109 0.0661 0.9093
vn -0.0240 0.3030 0.9527
vn 0.2421 0.0651 0.9681
vn 0.1724 0.9658 0.1938
vn 0.2097 -0.9513 -0.2261
vn 0.9139 -0.3711 -0.1647
vn -0.0859 0.1693 0.9818
vn -0.9818 0.1694 -0.0859
vt 0.379689 0.829033
vt 0.403578 0.843091
vt 0.377721 0.835684
vt 0.887447 0.267203
vt 0.890449 0.227626
vt 0.895905 0.265538
vt 0.162334 0.708300
vt 0.173278 0.753069
vt 0.162634 0.753138
vt 0.173819 0.798416
vt 0.162721 0.798581
vt 0.163704 0.845714
vt 0.175146 0.845299
vt 0.165951 0.895518
vt 0.178057 0.894511
vt 0.171102 0.950771
vt 0.184435 0.948462
vt 0.314953 0.708390
vt 0.296516 0.756793
vt 0.303504 0.707321
vt 0.306526 0.660230
vt 0.317706 0.660632
vt 0.307475 0.613677
vt 0.318683 0.613677
vt 0.224892 0.752655
vt 0.173087 0.708300
vt 0.226426 0.708300
vt 0.226916 0.796725
vt 0.229866 0.841675
vt 0.234692 0.887142
vt 0.251587 0.700585
vt 0.244089 0.741831
vt 0.254074 0.657758
vt 0.959309 0.116862
vt 0.969628 0.079282
vt 0.967763 0.116862
vt 0.905049 0.303046
vt 0.896802 0.305468
vt 0.917837 0.339812
vt 0.909688 0.343037
vt 0.934312 0.375580
vt 0.926289 0.379496
vt 0.963208 0.000352
vt 0.962486 0.039927
vt 0.953998 0.038307
vt 0.956898 0.078061
vt 0.948261 0.077259
vt 0.955014 0.116862
vt 0.946402 0.116862
vt 0.881956 0.228466
vt 0.888739 0.189924
vt 0.894533 0.227237
vt 0.892715 0.189924
vt 0.899978 0.264755
vt 0.909065 0.301868
vt 0.921792 0.338224
vt 0.975454 0.003964
vt 0.971454 0.002563
vt 0.966503 0.040703
vt 0.961051 0.078467
vt 0.900925 0.189924
vt 0.902864 0.226386
vt 0.908384 0.263104
vt 0.917260 0.299458
vt 0.929780 0.335015
vt 0.945697 0.369607
vt 0.938056 0.373376
vt 0.974810 0.042289
vt 0.194609 0.453308
vt 0.159003 0.465126
vt 0.159004 0.456809
vt 0.228848 0.442927
vt 0.196230 0.461465
vt 0.265023 0.432982
vt 0.232029 0.450611
vt 0.260403 0.426066
vt 0.293943 0.409255
vt 0.310764 0.375720
vt 0.288063 0.403373
vt 0.344054 0.799633
vt 0.346338 0.762228
vt 0.354018 0.765297
vt 0.339491 0.835311
vt 0.335956 0.797937
vt 0.338186 0.871467
vt 0.331220 0.834613
vt 0.123400 0.453297
vt 0.007268 0.375675
vt 0.383121 0.823017
vt 0.409517 0.838887
vt 0.721485 0.854887
vt 0.716090 0.922381
vt 0.715486 0.858876
vt 0.366218 0.821603
vt 0.399368 0.660582
vt 0.401028 0.708801
vt 0.308591 0.759311
vt 0.076881 0.894641
vt 0.069764 0.947846
vt 0.080682 0.845575
vt 0.083475 0.753336
vt 0.082691 0.798747
vt 0.084175 0.708300
vt 0.399368 0.566772
vt 0.398905 0.613677
vt 0.374887 0.814087
vt 0.369290 0.823752
vt 0.378829 0.820169
vt 0.373995 0.826150
vt 0.363185 0.834688
vt 0.366388 0.834549
vt 0.371862 0.834448
vt 0.364237 0.907295
vt 0.018992 0.308035
vt 0.299724 0.313489
vt 0.018287 0.313448
vt 0.299026 0.273373
vt 0.018997 0.273331
vt 0.403597 0.898562
vt 0.409025 0.902468
vt 0.019009 0.192034
vt 0.380676 0.912503
vt 0.555539 0.579789
vt 0.541589 0.616861
vt 0.547081 0.578124
vt 0.809339 0.198053
vt 0.798396 0.242822
vt 0.798696 0.197985
vt 0.809880 0.152707
vt 0.798783 0.152542
vt 0.799766 0.105409
vt 0.802013 0.055604
vt 0.811208 0.105824
vt 0.820497 0.002661
vt 0.807164 0.000352
vt 0.314953 0.518963
vt 0.296516 0.470560
vt 0.308591 0.468042
vt 0.317706 0.566722
vt 0.303504 0.520033
vt 0.306526 0.567124
vt 0.862488 0.242822
vt 0.860954 0.198468
vt 0.862978 0.154398
vt 0.865928 0.109448
vt 0.814118 0.056611
vt 0.870754 0.063981
vt 0.879447 0.018353
vt 0.251587 0.526768
vt 0.244089 0.485522
vt 0.254074 0.569595
vt 0.253760 0.613677
vt 0.961051 0.155258
vt 0.564682 0.542280
vt 0.556436 0.539858
vt 0.577471 0.505515
vt 0.569321 0.502289
vt 0.593945 0.469746
vt 0.585923 0.465830
vt 0.953998 0.195419
vt 0.971454 0.231163
vt 0.963208 0.233373
vt 0.948261 0.156466
vt 0.962486 0.193798
vt 0.956898 0.155664
vt 0.548373 0.655402
vt 0.539785 0.655402
vt 0.554166 0.618089
vt 0.552349 0.655402
vt 0.550083 0.617701
vt 0.559611 0.580572
vt 0.568698 0.543458
vt 0.581426 0.507102
vt 0.597689 0.471950
vt 0.966502 0.193022
vt 0.975454 0.229762
vt 0.560558 0.655402
vt 0.562497 0.618940
vt 0.576894 0.545868
vt 0.589414 0.510312
vt 0.605331 0.475719
vt 0.974810 0.191436
vt 0.159032 0.008669
vt 0.196258 0.004024
vt 0.194635 0.012181
vt 0.228869 0.022571
vt 0.265040 0.032526
vt 0.260419 0.039441
vt 0.293952 0.056261
vt 0.288071 0.062141
vt 0.317679 0.085181
vt 0.310763 0.089800
vt 0.357515 0.976167
vt 0.338517 0.944548
vt 0.346468 0.942585
vt 0.332522 0.908415
vt 0.340710 0.907435
vt 0.329878 0.871612
vt 0.017145 0.142124
vt 0.089190 0.022550
vt 0.384131 0.918266
vt 0.414963 0.906260
vt 0.367645 0.920138
vt 0.401029 0.518553
vt 0.406079 0.465830
vt 0.712942 0.056482
vt 0.705826 0.003277
vt 0.716743 0.105548
vt 0.718753 0.152376
vt 0.719536 0.197787
vt 0.720237 0.242822
vt 0.790560 0.633843
vt 0.709876 0.680748
vt 0.710339 0.633843
vt 0.370610 0.917930
vt 0.376396 0.927247
vt 0.380102 0.921122
vt 0.375223 0.915419
vt 0.372922 0.907306
vt 0.299748 0.152026
vt 0.019015 0.157331
vt 0.018311 0.151984
vt 0.299038 0.192076
vt 0.687522 0.932500
vt 0.710175 0.918362
vt 0.887447 0.112646
vt 0.890449 0.152223
vt 0.881956 0.151383
vt 0.173278 0.663531
vt 0.162634 0.663463
vt 0.173819 0.618185
vt 0.162721 0.618020
vt 0.163704 0.570887
vt 0.165951 0.521082
vt 0.175146 0.571302
vt 0.171102 0.465830
vt 0.178057 0.522090
vt 0.805740 0.727487
vt 0.800653 0.779478
vt 0.794290 0.728556
vt 0.802718 0.680396
vt 0.791538 0.680798
vt 0.801769 0.633843
vt 0.224892 0.663946
vt 0.226916 0.619876
vt 0.229866 0.574926
vt 0.234692 0.529459
vt 0.184435 0.468139
vt 0.243385 0.483831
vt 0.812727 0.776960
vt 0.857656 0.720752
vt 0.865154 0.761998
vt 0.855170 0.677925
vt 0.855483 0.633843
vt 0.945017 0.836233
vt 0.955336 0.873814
vt 0.946759 0.874629
vt 0.905049 0.076802
vt 0.896802 0.074380
vt 0.917837 0.040037
vt 0.909688 0.036811
vt 0.934312 0.004268
vt 0.926289 0.000352
vt 0.948194 0.913168
vt 0.948916 0.952744
vt 0.939706 0.914789
vt 0.942606 0.875035
vt 0.933968 0.875836
vt 0.940722 0.836233
vt 0.932109 0.836233
vt 0.880151 0.189924
vt 0.894533 0.152611
vt 0.899978 0.115094
vt 0.909065 0.077980
vt 0.921792 0.041624
vt 0.938055 0.006472
vt 0.961162 0.949132
vt 0.952210 0.912392
vt 0.908384 0.116745
vt 0.917260 0.080390
vt 0.929780 0.044834
vt 0.945697 0.010241
vt 0.960518 0.910807
vt 0.121776 0.461454
vt 0.089165 0.442906
vt 0.052992 0.432951
vt 0.057614 0.426036
vt 0.024079 0.409215
vt 0.029961 0.403335
vt 0.657364 0.999648
vt 0.653540 0.962821
vt 0.664815 0.996294
vt 0.645611 0.964839
vt 0.647537 0.927744
vt 0.639361 0.928786
vt 0.644722 0.891802
vt 0.679696 0.927400
vt 0.684002 0.855740
vt 0.685480 0.926050
vt 0.691030 0.938251
vt 0.721485 0.926119
vt 0.674540 0.940236
vt 0.671065 0.927443
vt 0.708215 0.728967
vt 0.703165 0.781689
vt 0.076881 0.521960
vt 0.069764 0.468755
vt 0.080682 0.571026
vt 0.082691 0.617854
vt 0.083475 0.663265
vt 0.709876 0.586938
vt 0.677486 0.938011
vt 0.683335 0.947284
vt 0.686963 0.941170
vt 0.682034 0.935495
vt 0.669430 0.854842
vt 0.710032 0.862937
vt 0.685917 0.849050
vt 0.541589 0.693944
vt 0.555539 0.731016
vt 0.547081 0.732681
vt 0.809339 0.287591
vt 0.798696 0.287659
vt 0.809880 0.332938
vt 0.798783 0.333103
vt 0.799766 0.380236
vt 0.811208 0.379821
vt 0.802013 0.430040
vt 0.814119 0.429033
vt 0.820497 0.482984
vt 0.807164 0.485292
vt 0.794290 0.539130
vt 0.812727 0.490726
vt 0.805740 0.540199
vt 0.791538 0.586888
vt 0.802718 0.587290
vt 0.809149 0.242822
vt 0.862978 0.331247
vt 0.860954 0.287177
vt 0.865928 0.376196
vt 0.870754 0.421664
vt 0.857656 0.546934
vt 0.865154 0.505688
vt 0.855170 0.589762
vt 0.946759 0.797837
vt 0.953471 0.836233
vt 0.564682 0.768524
vt 0.556436 0.770947
vt 0.577471 0.805290
vt 0.569321 0.808515
vt 0.593946 0.841058
vt 0.585923 0.844974
vt 0.939706 0.757677
vt 0.957162 0.721933
vt 0.948194 0.759297
vt 0.933968 0.796629
vt 0.942606 0.797431
vt 0.550083 0.693104
vt 0.554166 0.692716
vt 0.559611 0.730233
vt 0.568698 0.767347
vt 0.581426 0.803702
vt 0.952210 0.760073
vt 0.961162 0.723334
vt 0.562497 0.691865
vt 0.568018 0.728582
vt 0.576894 0.764936
vt 0.589414 0.800493
vt 0.605331 0.835086
vt 0.597689 0.838854
vt 0.960518 0.761659
vt 0.955336 0.798652
vt 0.121806 0.004013
vt 0.159033 0.000352
vt 0.123428 0.012170
vt 0.053016 0.032495
vt 0.086009 0.014866
vt 0.057635 0.039411
vt 0.024097 0.056221
vt 0.029977 0.062103
vt 0.000362 0.085134
vt 0.659826 0.785417
vt 0.641951 0.818219
vt 0.652116 0.782394
vt 0.650072 0.819864
vt 0.637456 0.854980
vt 0.645741 0.855618
vt 0.636414 0.892014
vt 0.689305 0.843028
vt 0.672404 0.841710
vt 0.708215 0.538719
vt 0.703165 0.485997
vt 0.712942 0.429162
vt 0.705826 0.482367
vt 0.718753 0.333269
vt 0.716744 0.380097
vt 0.719537 0.287858
vt 0.681037 0.834138
vt 0.675494 0.843843
vt 0.685055 0.840235
vt 0.680264 0.846240
vt 0.672667 0.854675
vt 0.678161 0.854552
vt 0.682447 0.836766
vt 0.674252 0.927470
vt 0.684600 0.944644
vt 0.367458 0.907352
vt 0.377679 0.924614
vt 0.376280 0.816722
vt 0.378692 0.906004
vt 0.300185 0.147106
vt 0.017871 0.147064
vt 0.300878 0.142166
vt 0.017845 0.318368
vt 0.017153 0.323308
vt 0.300170 0.318410
vt 0.300895 0.323350
vt 0.293900 0.912666
vt 0.317788 0.898608
vt 0.323728 0.902812
vt 0.881613 0.599955
vt 0.867663 0.637028
vt 0.873155 0.598290
vt 0.072830 0.753148
vt 0.071650 0.798379
vt 0.069367 0.844867
vt 0.056976 0.945163
vt 0.418627 0.759227
vt 0.406078 0.761523
vt 0.412724 0.708012
vt 0.410618 0.660336
vt 0.020284 0.708300
vt 0.021556 0.752321
vt 0.019181 0.795926
vt 0.015665 0.840110
vt 0.065066 0.893235
vt 0.010032 0.884389
vt 0.000352 0.928302
vt 0.465817 0.702154
vt 0.472830 0.744724
vt 0.463887 0.658464
vt 0.410114 0.613677
vt 0.464540 0.613677
vt 0.967763 0.350588
vt 0.961051 0.388984
vt 0.959309 0.350588
vt 0.890756 0.562447
vt 0.882510 0.560025
vt 0.903545 0.525681
vt 0.895395 0.522456
vt 0.920020 0.489913
vt 0.911997 0.485997
vt 0.953998 0.429144
vt 0.971454 0.464888
vt 0.963208 0.467099
vt 0.948261 0.390192
vt 0.962486 0.427524
vt 0.946402 0.350588
vt 0.956898 0.389390
vt 0.874447 0.675569
vt 0.865859 0.675569
vt 0.880240 0.638256
vt 0.878423 0.675569
vt 0.876157 0.637868
vt 0.885686 0.600739
vt 0.894772 0.563625
vt 0.907500 0.527269
vt 0.923763 0.492116
vt 0.975454 0.463487
vt 0.966502 0.426748
vt 0.886632 0.675569
vt 0.894092 0.602390
vt 0.902968 0.566035
vt 0.915488 0.530478
vt 0.931405 0.495885
vt 0.974810 0.425162
vt 0.477056 0.465126
vt 0.441450 0.453307
vt 0.477055 0.456809
vt 0.439829 0.461464
vt 0.407212 0.442925
vt 0.371037 0.432979
vt 0.375657 0.426063
vt 0.342118 0.409251
vt 0.347998 0.403369
vt 0.325298 0.375715
vt 0.260550 0.979471
vt 0.258265 0.942065
vt 0.268229 0.976401
vt 0.250167 0.943762
vt 0.253702 0.906388
vt 0.244089 0.870087
vt 0.252397 0.870231
vt 0.606100 0.403339
vt 0.297332 0.918682
vt 0.329174 0.906745
vt 0.801261 0.923165
vt 0.807260 0.855922
vt 0.807260 0.927155
vt 0.280429 0.920095
vt 0.277396 0.907011
vt 0.283501 0.917947
vt 0.289098 0.927611
vt 0.293039 0.921530
vt 0.288206 0.915549
vt 0.286073 0.907251
vt 0.278447 0.834403
vt 0.336340 0.313485
vt 0.617072 0.308039
vt 0.617777 0.313452
vt 0.337040 0.273368
vt 0.617068 0.273336
vt 0.323235 0.839231
vt 0.317808 0.843136
vt 0.292902 0.835694
vt 0.617059 0.192039
vt 0.294887 0.829195
vt 0.480830 0.732681
vt 0.483833 0.693104
vt 0.489288 0.731016
vt 0.708892 0.197975
vt 0.707712 0.152744
vt 0.705429 0.106256
vt 0.701128 0.057888
vt 0.693038 0.005960
vt 0.418627 0.468127
vt 0.412724 0.519342
vt 0.410618 0.567017
vt 0.657617 0.198801
vt 0.709440 0.242822
vt 0.656346 0.242822
vt 0.655243 0.155197
vt 0.651727 0.111012
vt 0.646094 0.066734
vt 0.465817 0.525199
vt 0.472830 0.482630
vt 0.463887 0.568889
vt 0.969628 0.313007
vt 0.498432 0.768524
vt 0.490185 0.770947
vt 0.511220 0.805290
vt 0.503071 0.808515
vt 0.527695 0.841058
vt 0.519672 0.844974
vt 0.963208 0.234078
vt 0.962486 0.273653
vt 0.953998 0.272032
vt 0.956898 0.311786
vt 0.948261 0.310984
vt 0.955014 0.350588
vt 0.475339 0.693944
vt 0.482122 0.655402
vt 0.487916 0.692716
vt 0.486098 0.655402
vt 0.493361 0.730233
vt 0.502448 0.767347
vt 0.515175 0.803702
vt 0.975454 0.237689
vt 0.971454 0.236289
vt 0.966503 0.274429
vt 0.961051 0.312192
vt 0.494308 0.655402
vt 0.496247 0.691865
vt 0.501767 0.728582
vt 0.510643 0.764936
vt 0.523163 0.800493
vt 0.531439 0.838854
vt 0.539080 0.835086
vt 0.974810 0.276014
vt 0.441439 0.012179
vt 0.477042 0.000352
vt 0.477043 0.008669
vt 0.407205 0.022569
vt 0.439816 0.004023
vt 0.371033 0.032523
vt 0.404021 0.014886
vt 0.375654 0.039437
vt 0.342120 0.056257
vt 0.325308 0.089795
vt 0.348001 0.062137
vt 0.260678 0.799113
vt 0.264244 0.762228
vt 0.271725 0.765531
vt 0.254921 0.834263
vt 0.252728 0.797150
vt 0.246733 0.833284
vt 0.578438 0.039414
vt 0.298341 0.823433
vt 0.281856 0.821561
vt 0.290607 0.814452
vt 0.284821 0.823769
vt 0.294312 0.820577
vt 0.289434 0.826280
vt 0.281668 0.834347
vt 0.287133 0.834393
vt 0.617055 0.157336
vt 0.336321 0.152021
vt 0.617758 0.151989
vt 0.337026 0.157368
vt 0.773297 0.849541
vt 0.795950 0.863679
vt 0.771255 0.855991
vt 0.867663 0.714110
vt 0.881613 0.751183
vt 0.873155 0.752848
vt 0.072830 0.663453
vt 0.071650 0.618222
vt 0.069367 0.571734
vt 0.065066 0.523366
vt 0.056976 0.471438
vt 0.690616 0.779393
vt 0.696519 0.728178
vt 0.698626 0.680502
vt 0.699129 0.633843
vt 0.073378 0.708300
vt 0.019181 0.620675
vt 0.021555 0.664279
vt 0.015665 0.576491
vt 0.010032 0.532212
vt 0.643427 0.722320
vt 0.636414 0.764890
vt 0.645357 0.678631
vt 0.644704 0.633843
vt 0.946759 0.564111
vt 0.953471 0.602507
vt 0.945017 0.602507
vt 0.890757 0.788691
vt 0.882510 0.791113
vt 0.903545 0.825456
vt 0.895395 0.828682
vt 0.920020 0.861225
vt 0.911997 0.865140
vt 0.939706 0.523951
vt 0.957162 0.488208
vt 0.948194 0.525572
vt 0.933968 0.562903
vt 0.942606 0.563705
vt 0.932109 0.602507
vt 0.940722 0.602507
vt 0.876157 0.713270
vt 0.880240 0.712882
vt 0.885686 0.750399
vt 0.894773 0.787513
vt 0.907500 0.823869
vt 0.961162 0.489608
vt 0.952210 0.526348
vt 0.888571 0.712031
vt 0.894092 0.748748
vt 0.902968 0.785103
vt 0.915488 0.820659
vt 0.931405 0.855252
vt 0.923763 0.859021
vt 0.960518 0.527933
vt 0.955336 0.564926
vt 0.512659 0.453298
vt 0.546895 0.442909
vt 0.514283 0.461455
vt 0.583068 0.432954
vt 0.550079 0.450592
vt 0.578446 0.426040
vt 0.628794 0.375680
vt 0.611982 0.409220
vt 0.739315 0.819220
vt 0.743140 0.782394
vt 0.750590 0.785747
vt 0.733312 0.854297
vt 0.731386 0.817202
vt 0.722189 0.890027
vt 0.725136 0.853256
vt 0.765471 0.854641
vt 0.769777 0.926301
vt 0.763936 0.927489
vt 0.776806 0.843790
vt 0.801865 0.859661
vt 0.760315 0.841805
vt 0.769110 0.834757
vt 0.763261 0.844031
vt 0.772738 0.840872
vt 0.767809 0.846546
vt 0.756840 0.854599
vt 0.760027 0.854571
vt 0.730497 0.890239
vt 0.755205 0.927199
vt 0.795807 0.919105
vt 0.771692 0.932991
vt 0.480830 0.578124
vt 0.483832 0.617701
vt 0.475339 0.616861
vt 0.708892 0.287670
vt 0.707712 0.332900
vt 0.705429 0.379389
vt 0.701128 0.427757
vt 0.696519 0.539508
vt 0.698626 0.587184
vt 0.657617 0.286843
vt 0.655243 0.330448
vt 0.651727 0.374632
vt 0.646094 0.418911
vt 0.693038 0.479685
vt 0.636414 0.462824
vt 0.690616 0.488293
vt 0.643427 0.545366
vt 0.636414 0.502796
vt 0.645357 0.589056
vt 0.955336 0.640088
vt 0.946759 0.640903
vt 0.498432 0.542280
vt 0.490185 0.539858
vt 0.511220 0.505515
vt 0.503071 0.502289
vt 0.527695 0.469746
vt 0.519672 0.465830
vt 0.948194 0.679443
vt 0.948916 0.719018
vt 0.939706 0.681063
vt 0.942606 0.641309
vt 0.933968 0.642111
vt 0.473534 0.655402
vt 0.487916 0.618089
vt 0.493361 0.580572
vt 0.502448 0.543458
vt 0.515175 0.507102
vt 0.531439 0.471950
vt 0.961162 0.715406
vt 0.952210 0.678667
vt 0.501767 0.582223
vt 0.510643 0.545868
vt 0.523163 0.510312
vt 0.960518 0.677081
vt 0.512646 0.012171
vt 0.514268 0.004014
vt 0.546883 0.022553
vt 0.583057 0.032499
vt 0.611976 0.056226
vt 0.606096 0.062107
vt 0.628795 0.089760
vt 0.737891 0.999648
vt 0.735847 0.962178
vt 0.745601 0.996624
vt 0.727726 0.963823
vt 0.731516 0.926424
vt 0.775080 0.939014
vt 0.758179 0.940331
vt 0.761269 0.938199
vt 0.766812 0.947903
vt 0.770830 0.941807
vt 0.766039 0.935801
vt 0.758442 0.927367
vt 0.768222 0.945275
vt 0.770375 0.837398
vt 0.291890 0.817084
vt 0.280599 0.907150
vt 0.290491 0.924976
vt 0.291932 0.906015
vt 0.618199 0.147069
vt 0.335885 0.147101
vt 0.335191 0.142161
vt 0.618924 0.142129
vt 0.618218 0.318372
vt 0.335893 0.318405
vt 0.618911 0.323312
vt 0.335169 0.323345
vt 0.243385 0.932770
vt 0.983642 0.006175
vt 0.317679 0.380342
vt 0.414963 0.834953
vt 0.299021 0.308076
vt 0.969628 0.154443
vt 0.568018 0.582223
vt 0.983642 0.227551
vt 0.232053 0.014888
vt 0.350034 0.979471
vt 0.007276 0.089755
vt 0.299043 0.157373
vt 0.895905 0.114311
vt 0.957162 0.950533
vt 0.902864 0.153462
vt 0.969350 0.946921
vt 0.085981 0.450590
vt 0.000352 0.380295
vt 0.800653 0.488208
vt 0.879447 0.467292
vt 0.948916 0.719722
vt 0.969350 0.725545
vt 0.969628 0.388169
vt 0.888571 0.639107
vt 0.983642 0.461276
vt 0.404030 0.450609
vt 0.318383 0.380337
vt 0.245431 0.907086
vt 0.337043 0.308071
vt 0.337030 0.192071
vt 0.636414 0.022821
vt 0.983642 0.239900
vt 0.318393 0.085175
vt 0.329174 0.835438
vt 0.000352 0.488299
vt 0.948916 0.485997
vt 0.969350 0.491819
vt 0.635710 0.380300
vt 0.489288 0.579789
vt 0.957162 0.716807
vt 0.496247 0.618940
vt 0.539080 0.475719
vt 0.969350 0.713195
vt 0.550065 0.014869
vt 0.635710 0.085139
vt 0.723231 0.927061
s 1
usemtl Mario_Coin
f 1/1/1 3/2/2 4/3/3
f 5/4/4 7/5/5 8/6/4
f 10/7/6 12/8/7 9/9/8
f 9/9/8 14/10/9 13/11/10
f 15/12/11 14/10/9 16/13/12
f 17/14/13 16/13/12 18/15/14
f 19/16/15 18/15/14 20/17/16
f 21/18/17 20/19/16 22/20/18
f 21/18/17 24/21/19 23/22/20
f 23/22/20 26/23/21 25/24/22
f 6/25/23 11/26/24 27/27/25
f 5/28/23 12/8/7 6/25/23
f 5/28/23 16/13/12 14/10/9
f 28/29/25 18/15/14 16/13/12
f 29/30/25 20/17/16 18/15/14
f 31/31/25 20/19/16 30/32/23
f 32/33/25 22/20/18 31/31/25
f 32/33/25 26/23/21 24/21/19
f 34/34/26 36/35/27 37/36/28
f 5/4/4 38/37/29 28/38/30
f 28/38/30 39/39/31 29/40/31
f 29/40/31 40/41/32 30/42/33
f 30/43/33 41/44/34 31/45/35
f 31/45/35 42/46/36 32/47/36
f 32/47/36 43/48/37 33/49/37
f 6/50/38 44/51/39 7/5/5
f 46/52/40 44/51/41 45/53/41
f 47/54/25 7/5/40 46/52/40
f 47/54/25 38/37/42 8/6/25
f 48/55/42 39/39/25 38/37/42
f 49/56/25 40/41/42 39/39/25
f 50/57/42 41/44/23 40/58/42
f 51/59/23 42/46/43 41/44/23
f 34/34/23 42/46/43 35/60/43
f 46/52/44 52/61/45 53/62/44
f 46/52/44 54/63/46 47/54/46
f 47/54/46 55/64/47 48/55/47
f 48/55/47 56/65/48 49/56/48
f 49/56/48 57/66/49 50/67/50
f 50/57/50 58/68/51 51/59/51
f 35/60/52 58/68/51 36/35/27
f 60/69/25 52/70/40 59/71/25
f 61/72/25 53/73/40 60/69/25
f 61/72/25 55/74/53 54/75/25
f 62/76/42 56/77/25 55/74/53
f 64/78/25 56/77/25 63/79/25
f 65/80/25 57/81/42 64/82/25
f 66/83/43 58/84/25 65/80/25
f 67/85/25 36/86/43 66/83/43
f 68/87/25 72/88/43 63/79/25
f 75/89/54 2/90/55 1/1/1
f 78/91/56 80/92/57 77/93/58
f 81/94/25 66/83/43 65/80/25
f 83/95/59 21/18/17 23/22/20
f 84/96/60 19/97/15 21/18/17
f 86/98/61 19/16/15 85/99/62
f 87/100/63 17/14/13 86/98/61
f 87/100/63 13/11/10 15/12/11
f 89/101/64 13/11/10 88/102/65
f 90/103/66 9/9/8 89/101/64
f 25/24/22 93/104/67 91/105/68
f 74/106/25 95/107/69 81/94/25
f 97/108/70 1/1/1 96/109/71
f 82/110/43 95/107/69 98/111/72
f 99/112/73 1/1/1 4/3/3
f 67/85/25 82/110/43 101/113/42
f 103/114/74 97/115/70 102/116/75
f 76/117/76 103/114/74 79/118/77
f 74/106/25 65/80/25 64/82/25
f 104/119/78 2/90/55 105/120/79
f 104/119/78 4/3/3 3/2/2
f 78/121/56 76/117/80 79/118/81
f 108/122/82 104/119/78 105/120/79
f 110/123/83 112/124/84 109/125/83
f 114/126/85 116/127/86 113/128/87
f 118/129/88 113/128/87 117/130/89
f 119/131/90 118/129/88 117/130/89
f 121/132/91 120/133/92 119/131/90
f 124/134/93 121/132/91 123/135/94
f 125/136/95 124/137/93 123/138/94
f 92/139/96 126/140/97 125/136/95
f 25/24/22 127/141/98 92/139/96
f 128/142/23 114/126/85 112/143/23
f 114/126/85 109/144/23 112/143/23
f 109/144/23 120/133/92 129/145/25
f 129/145/25 122/146/99 130/147/25
f 130/147/25 124/134/93 131/148/23
f 124/137/93 132/149/25 131/150/23
f 126/140/97 133/151/25 132/149/25
f 133/151/25 26/23/21 33/152/25
f 37/36/28 135/153/100 34/34/26
f 136/154/101 109/125/83 129/155/101
f 137/156/102 129/155/101 130/157/102
f 138/158/103 130/157/102 131/159/103
f 132/160/104 138/161/103 131/162/103
f 133/163/105 139/164/104 132/160/104
f 33/49/37 140/165/105 133/163/105
f 112/124/84 141/166/106 128/167/107
f 141/166/108 143/168/40 142/169/108
f 111/170/40 144/171/25 143/168/40
f 144/171/25 136/154/109 145/172/23
f 145/172/23 137/156/110 146/173/110
f 146/173/110 138/158/111 147/174/112
f 138/161/111 148/175/23 147/176/112
f 139/164/23 135/153/110 148/175/23
f 140/165/110 34/34/23 135/153/110
f 143/168/113 150/177/39 142/169/39
f 144/171/114 149/178/115 143/168/113
f 152/179/116 144/171/114 145/172/117
f 153/180/118 145/172/117 146/173/118
f 154/181/119 146/173/118 147/174/119
f 155/182/120 147/176/119 148/175/120
f 135/153/100 155/182/120 148/175/120
f 156/183/25 149/184/23 157/185/25
f 149/184/23 158/186/25 157/185/25
f 158/186/25 152/187/23 159/188/43
f 159/188/43 153/189/23 160/190/25
f 160/190/25 154/191/43 161/192/25
f 161/193/25 155/194/23 162/195/23
f 162/195/23 134/196/110 100/197/42
f 100/197/42 37/198/25 67/85/25
f 164/199/25 168/200/25 158/186/25
f 170/201/121 105/120/79 107/202/122
f 2/90/55 107/202/123 105/120/79
f 171/203/43 100/197/42 101/113/42
f 92/139/96 172/204/124 93/104/67
f 125/136/95 173/205/125 172/204/124
f 123/135/94 174/206/126 173/207/125
f 174/206/126 119/131/90 175/208/127
f 119/131/90 176/209/128 175/208/127
f 117/130/89 177/210/129 176/209/128
f 177/210/129 116/127/86 178/211/130
f 180/212/131 182/213/132 179/214/133
f 183/215/134 163/216/135 171/203/43
f 108/122/82 186/217/136 185/218/137
f 101/113/42 183/215/134 171/203/43
f 188/219/138 108/122/82 185/218/137
f 186/220/136 190/221/139 189/222/140
f 190/221/139 107/223/122 78/121/141
f 163/216/135 162/195/23 171/203/43
f 191/224/142 193/225/143 80/92/57
f 194/226/114 196/227/144 197/228/145
f 199/229/146 10/7/6 198/230/147
f 201/231/148 198/230/147 200/232/149
f 202/233/150 201/231/148 200/232/149
f 204/234/151 203/235/152 202/233/150
f 206/236/153 205/237/154 204/234/151
f 209/238/155 206/239/153 208/240/156
f 210/241/157 208/240/156 181/242/158
f 211/243/159 181/242/158 180/212/131
f 11/26/24 197/244/23 27/27/25
f 199/229/146 194/245/23 197/244/23
f 194/245/23 203/235/152 212/246/25
f 212/246/25 205/237/154 213/247/25
f 213/247/25 207/248/160 214/249/23
f 207/250/160 215/251/25 214/252/23
f 209/238/155 216/253/25 215/251/25
f 210/241/157 217/254/25 216/253/25
f 218/255/161 220/256/162 221/257/163
f 222/258/116 194/226/114 212/259/117
f 223/260/164 212/259/117 213/261/164
f 224/262/165 213/261/164 214/263/166
f 225/264/167 214/265/166 215/266/168
f 226/267/169 215/266/168 216/268/169
f 227/269/170 216/268/169 217/270/170
f 197/228/145 44/51/39 27/271/39
f 44/51/41 228/272/40 45/53/41
f 196/227/40 229/273/25 228/272/40
f 229/273/25 222/258/43 230/274/43
f 230/274/43 223/260/25 231/275/25
f 231/275/25 224/262/43 232/276/43
f 232/277/43 225/264/23 233/278/23
f 233/278/23 226/267/42 221/257/42
f 226/267/42 218/255/23 221/257/42
f 228/272/171 52/61/45 45/53/45
f 235/279/83 228/272/171 229/273/83
f 236/280/101 229/273/83 230/274/101
f 237/281/172 230/274/101 231/275/172
f 238/282/173 231/275/172 232/276/103
f 239/283/104 232/277/103 233/278/104
f 221/257/163 239/283/104 233/278/104
f 52/70/40 68/87/25 59/71/25
f 234/284/40 69/285/23 68/87/25
f 69/285/23 236/286/41 70/287/23
f 70/287/23 237/288/25 71/289/110
f 237/288/25 72/88/43 71/289/110
f 238/290/43 240/291/25 72/292/43
f 239/293/25 241/294/42 240/291/25
f 220/295/42 242/296/25 241/294/42
f 243/297/174 245/298/175 192/299/176
f 103/300/74 80/92/57 79/301/77
f 246/302/25 241/294/42 247/303/42
f 182/213/132 208/240/156 248/304/177
f 248/304/177 206/239/153 249/305/178
f 206/236/153 250/306/179 249/307/178
f 204/234/151 251/308/180 250/306/179
f 251/308/180 200/232/149 252/309/181
f 200/232/149 253/310/182 252/309/181
f 198/230/147 90/103/66 253/310/182
f 254/311/183 180/212/131 179/214/133
f 256/312/184 73/313/25 246/302/25
f 191/224/142 102/314/75 258/315/185
f 247/303/42 256/312/184 246/302/25
f 243/297/174 191/224/142 258/315/185
f 261/316/43 241/294/42 242/296/25
f 73/313/25 240/291/25 246/302/25
f 262/317/186 80/92/57 193/225/143
f 192/299/176 262/317/186 193/225/143
f 263/318/187 262/317/186 245/298/175
f 265/319/188 267/320/46 264/321/46
f 116/127/86 269/322/189 268/323/190
f 268/323/190 271/324/191 270/325/192
f 272/326/193 271/324/191 273/327/194
f 274/328/195 273/327/194 275/329/196
f 274/328/195 277/330/197 276/331/198
f 278/332/199 277/333/197 279/334/200
f 255/335/201 279/334/200 280/336/202
f 180/212/131 280/336/202 211/243/159
f 128/142/23 269/322/189 115/337/203
f 264/338/23 269/322/189 265/339/23
f 264/338/23 273/327/194 271/324/191
f 281/340/25 275/329/196 273/327/194
f 282/341/25 277/330/197 275/329/196
f 284/342/25 277/333/197 283/343/23
f 285/344/25 279/334/200 284/342/25
f 217/254/25 280/336/202 285/344/25
f 286/345/204 219/346/205 218/255/161
f 264/321/46 288/347/47 281/348/47
f 281/348/47 289/349/206 282/350/206
f 282/350/206 290/351/50 283/352/50
f 284/353/51 290/354/50 291/355/51
f 285/356/207 291/355/51 292/357/207
f 217/270/170 292/357/207 227/269/170
f 265/319/188 141/166/106 266/358/188
f 293/359/40 141/166/108 142/169/108
f 294/360/25 266/358/40 293/359/40
f 294/360/25 288/347/208 267/320/25
f 295/361/25 289/349/209 288/347/208
f 296/362/209 290/351/25 289/349/209
f 298/363/23 290/354/25 297/364/210
f 286/345/209 291/355/23 298/363/23
f 218/255/23 292/357/209 286/345/209
f 293/359/211 150/177/39 299/365/212
f 294/360/4 299/365/212 300/366/213
f 294/360/4 301/367/29 295/361/30
f 295/361/30 302/368/214 296/362/214
f 296/362/214 303/369/215 297/370/215
f 297/364/215 304/371/216 298/363/216
f 286/345/204 304/371/216 287/372/204
f 156/183/25 299/373/23 150/374/40
f 168/200/25 299/373/23 169/375/25
f 168/200/25 301/376/23 300/377/25
f 167/378/42 302/379/23 301/376/23
f 166/380/23 303/381/42 302/379/23
f 165/382/25 304/383/23 303/384/42
f 305/385/23 287/386/209 304/383/23
f 260/387/43 219/388/25 287/386/209
f 190/389/139 77/93/58 263/318/187
f 306/390/25 260/387/43 305/385/23
f 307/391/217 255/335/201 254/311/183
f 308/392/218 278/332/199 307/391/217
f 309/393/219 276/331/198 308/394/218
f 309/393/219 272/326/193 274/328/195
f 311/395/220 272/326/193 310/396/221
f 312/397/222 270/325/192 311/395/220
f 312/397/222 116/127/86 268/323/190
f 164/398/25 314/399/223 306/390/25
f 189/400/140 263/318/187 315/401/224
f 261/316/43 314/399/223 316/402/225
f 244/403/226 263/318/187 245/298/175
f 164/398/25 305/385/23 165/382/25
f 314/399/223 244/403/226 316/402/225
f 313/404/227 315/401/224 314/399/223
f 243/297/174 256/312/184 259/405/228
f 258/315/185 257/406/229 256/312/184
f 188/219/138 183/215/134 187/407/230
f 185/218/137 184/408/231 183/215/134
f 95/107/69 99/112/73 98/111/72
f 94/409/232 96/109/71 95/107/69
f 106/410/233 99/112/73 4/3/3
f 184/411/231 189/222/140 313/412/227
f 163/413/135 313/412/227 164/199/25
f 99/112/73 187/407/230 98/111/72
f 187/407/230 82/110/43 98/111/72
f 97/115/70 257/414/229 102/116/75
f 73/415/25 94/416/232 74/417/25
f 316/402/225 243/297/174 259/405/228
f 247/303/42 316/402/225 259/405/228
f 317/418/234 319/419/235 320/420/236
f 322/421/237 324/422/238 321/423/237
f 325/424/239 90/103/66 89/101/64
f 327/425/240 89/101/64 88/102/65
f 87/100/63 327/425/240 88/102/65
f 86/98/61 328/426/241 87/100/63
f 330/427/242 86/98/61 85/99/62
f 84/96/60 330/428/242 85/429/62
f 83/95/59 331/430/243 84/96/60
f 91/105/68 332/431/244 83/95/59
f 334/432/245 325/424/239 324/433/245
f 325/424/239 321/434/245 324/433/245
f 321/434/245 328/426/241 335/435/246
f 335/435/246 329/436/247 336/437/246
f 336/437/246 330/427/242 337/438/246
f 330/428/242 338/439/245 337/440/246
f 331/430/243 339/441/245 338/439/245
f 339/441/245 333/442/248 340/443/245
f 342/444/249 344/445/250 341/446/251
f 345/447/252 321/423/237 335/448/252
f 346/449/253 335/448/252 336/450/253
f 347/451/254 336/450/253 337/452/254
f 338/453/255 347/454/254 337/455/254
f 339/456/256 348/457/255 338/453/255
f 340/458/257 349/459/256 339/456/256
f 324/422/238 351/460/258 334/461/258
f 351/460/259 353/462/260 352/463/259
f 323/464/259 354/465/259 353/462/260
f 354/465/259 345/447/261 355/466/261
f 355/466/261 346/449/262 356/467/262
f 356/467/262 347/451/261 357/468/245
f 357/469/245 348/457/245 358/470/245
f 348/457/245 344/445/263 358/470/245
f 349/459/263 341/446/245 344/445/263
f 353/462/264 360/471/265 352/463/265
f 361/472/266 353/462/264 354/465/267
f 362/473/268 354/465/267 355/466/268
f 363/474/269 355/466/268 356/467/269
f 364/475/270 356/467/269 357/468/270
f 365/476/271 357/469/270 358/470/272
f 344/445/250 365/476/271 358/470/272
f 360/477/246 367/478/246 366/479/246
f 359/480/246 368/481/245 367/478/246
f 368/481/245 362/482/273 369/483/245
f 369/483/245 363/484/246 370/485/245
f 363/484/246 371/486/274 370/485/245
f 364/487/274 372/488/246 371/489/274
f 365/490/246 373/491/246 372/488/246
f 373/491/246 342/492/245 374/493/245
f 367/478/246 371/486/274 378/494/246
f 382/495/275 320/420/236 383/496/276
f 384/497/277 386/498/278 387/499/279
f 388/500/274 373/491/246 389/501/261
f 390/502/280 375/503/245 388/500/274
f 317/418/234 393/504/281 392/505/282
f 389/501/261 390/502/280 388/500/274
f 395/506/283 317/418/234 392/505/282
f 397/507/261 373/491/246 374/493/245
f 393/508/281 399/509/284 398/510/285
f 399/509/284 383/511/276 386/512/286
f 375/503/245 372/488/246 388/500/274
f 401/513/287 319/419/235 400/514/288
f 319/419/235 402/515/289 400/514/288
f 383/511/290 387/516/279 386/512/278
f 404/517/291 400/514/288 402/515/289
f 405/518/292 407/519/293 408/520/292
f 178/211/130 410/521/294 177/210/129
f 177/210/129 411/522/295 176/209/128
f 175/208/127 411/522/295 412/523/296
f 174/206/126 412/523/296 413/524/297
f 173/207/125 413/524/297 414/525/298
f 172/204/124 414/526/298 415/527/299
f 172/204/124 416/528/300 93/104/67
f 93/104/67 333/442/248 91/105/68
f 406/529/245 409/530/301 417/531/246
f 405/532/245 410/521/294 406/529/245
f 405/532/245 412/523/296 411/522/295
f 418/533/246 413/524/297 412/523/296
f 419/534/245 414/525/298 413/524/297
f 421/535/245 414/526/298 420/536/245
f 422/537/245 415/527/299 421/535/245
f 422/537/245 333/442/248 416/528/300
f 341/446/251 424/538/302 342/444/249
f 405/518/292 425/539/303 418/540/304
f 418/540/304 426/541/305 419/542/305
f 419/542/305 427/543/306 420/544/306
f 420/545/306 428/546/307 421/547/307
f 421/547/307 429/548/308 422/549/308
f 422/549/308 350/550/257 340/458/257
f 406/551/309 430/552/265 407/519/293
f 432/553/310 430/552/311 431/554/311
f 433/555/245 407/519/310 432/553/310
f 433/555/245 425/539/245 408/520/312
f 434/556/245 426/541/246 425/539/245
f 435/557/246 427/543/263 426/541/246
f 436/558/263 428/546/246 427/559/263
f 437/560/246 429/548/273 428/546/246
f 341/446/245 429/548/273 423/561/313
f 432/553/314 438/562/258 439/563/314
f 432/553/314 440/564/315 433/555/315
f 433/555/315 441/565/316 434/556/316
f 434/556/316 442/566/317 435/557/317
f 436/567/318 442/566/317 443/568/318
f 436/558/318 444/569/319 437/560/319
f 423/561/302 444/569/319 424/538/302
f 446/570/245 438/571/246 445/572/246
f 447/573/246 439/574/246 446/570/245
f 447/573/246 441/575/320 440/576/320
f 448/577/246 442/578/246 441/575/320
f 450/579/245 442/578/246 449/580/321
f 451/581/246 443/582/263 450/583/245
f 396/584/245 444/585/245 451/581/246
f 396/584/245 342/492/245 424/586/263
f 450/579/245 446/570/245 455/587/246
f 459/588/322 401/513/287 404/517/291
f 401/513/287 383/496/290 320/420/236
f 460/589/245 396/584/245 451/581/246
f 452/590/245 462/591/323 460/589/245
f 464/592/324 404/517/291 463/593/325
f 397/507/261 462/591/323 465/594/326
f 466/595/327 404/517/291 402/515/289
f 468/596/328 464/597/324 467/598/329
f 387/516/330 459/599/322 468/596/328
f 452/590/245 451/581/246 450/583/245
f 469/600/331 470/601/332 471/602/333
f 473/603/334 475/604/335 472/605/335
f 90/103/66 476/606/336 253/310/182
f 253/310/182 477/607/337 252/309/181
f 251/308/180 477/607/337 478/608/338
f 250/306/179 478/608/338 479/609/339
f 250/306/179 480/610/340 249/307/178
f 248/304/177 480/611/340 481/612/341
f 182/213/132 481/612/341 482/613/342
f 179/214/133 482/613/342 483/614/343
f 334/432/245 476/606/336 326/615/344
f 472/616/245 476/606/336 473/617/245
f 472/616/245 478/608/338 477/607/337
f 484/618/246 479/609/339 478/608/338
f 485/619/246 480/610/340 479/609/339
f 487/620/245 480/611/340 486/621/246
f 488/622/245 481/612/341 487/620/245
f 489/623/245 482/613/342 488/622/245
f 491/624/345 493/625/346 490/626/346
f 472/605/335 494/627/316 484/628/316
f 484/628/316 495/629/347 485/630/347
f 485/630/347 496/631/348 486/632/348
f 487/633/319 496/634/348 497/635/319
f 488/636/349 497/635/319 498/637/349
f 489/638/350 498/637/349 499/639/351
f 473/603/334 351/460/258 474/640/334
f 500/641/259 351/460/259 352/463/259
f 501/642/259 474/640/259 500/641/259
f 501/642/259 494/627/263 475/604/259
f 502/643/263 495/629/245 494/627/263
f 503/644/245 496/631/263 495/629/245
f 504/645/245 497/635/245 496/634/263
f 491/624/261 497/635/245 505/646/245
f 490/626/245 498/637/261 491/624/261
f 500/641/293 360/471/265 506/647/293
f 500/641/293 507/648/352 501/642/292
f 501/642/292 508/649/303 502/643/303
f 502/643/303 509/650/353 503/644/353
f 503/644/353 510/651/354 504/652/354
f 504/645/354 511/653/307 505/646/355
f 491/624/345 511/653/307 492/654/345
f 381/655/246 360/477/246 366/479/246
f 380/656/245 506/657/246 381/655/246
f 380/656/245 508/658/263 507/659/245
f 378/494/246 508/658/263 379/660/246
f 377/661/321 509/662/246 378/494/246
f 512/663/246 510/664/321 377/665/321
f 513/666/246 511/667/246 512/663/246
f 513/666/246 493/668/245 492/669/321
f 515/670/356 516/671/357 517/672/358
f 399/673/284 385/674/359 469/600/331
f 518/675/321 513/666/246 512/663/246
f 376/676/245 521/677/360 518/675/321
f 398/678/285 469/600/331 522/679/361
f 519/680/263 521/677/360 523/681/362
f 515/670/356 469/600/331 471/602/333
f 514/682/245 519/680/263 525/683/263
f 376/676/245 512/663/246 377/665/321
f 470/601/332 384/497/277 526/684/363
f 470/601/332 516/671/357 471/602/333
f 527/685/364 526/684/363 384/497/277
f 528/686/267 530/687/264 531/688/365
f 532/689/366 178/211/130 312/397/222
f 533/690/367 312/397/222 311/395/220
f 310/396/221 533/690/367 311/395/220
f 309/393/219 534/691/368 310/396/221
f 308/394/218 535/692/369 309/393/219
f 537/693/370 308/392/218 307/391/217
f 538/694/371 307/391/217 254/311/183
f 483/614/343 254/311/183 179/214/133
f 409/530/301 531/695/245 417/531/246
f 532/689/366 528/696/245 531/695/245
f 528/696/245 534/691/368 539/697/246
f 539/697/246 535/692/369 540/698/245
f 540/698/245 536/699/372 541/700/245
f 536/701/372 542/702/245 541/703/245
f 537/693/370 543/704/245 542/702/245
f 538/694/371 489/623/245 543/704/245
f 490/626/346 544/705/373 545/706/373
f 546/707/268 528/686/267 539/708/374
f 547/709/375 539/708/374 540/710/375
f 548/711/376 540/710/375 541/712/376
f 549/713/271 541/714/376 542/715/271
f 550/716/377 542/715/271 543/717/377
f 499/639/351 543/717/377 489/638/350
f 531/688/365 430/552/265 417/718/265
f 430/552/311 551/719/378 431/554/311
f 530/687/378 552/720/245 551/719/378
f 552/720/245 546/707/379 553/721/379
f 553/721/379 547/709/246 554/722/246
f 554/722/246 548/711/261 555/723/261
f 555/724/261 549/713/246 556/725/246
f 556/725/246 550/716/380 545/706/380
f 550/716/380 490/626/245 545/706/380
f 551/719/381 438/562/258 431/554/382
f 558/726/383 551/719/381 552/720/383
f 559/727/252 552/720/383 553/721/252
f 560/728/384 553/721/252 554/722/384
f 555/723/385 560/728/384 554/722/384
f 562/729/255 555/724/385 556/725/255
f 545/706/373 562/729/255 556/725/255
f 438/571/246 453/730/246 445/572/246
f 557/731/246 454/732/246 453/730/246
f 454/732/246 559/733/260 455/587/246
f 455/587/246 560/734/246 456/735/274
f 560/734/246 457/736/245 456/735/274
f 561/737/261 563/738/246 457/739/245
f 562/740/245 524/741/245 563/738/246
f 524/741/245 493/668/245 514/682/245
f 468/742/328 384/497/277 387/499/330
f 564/743/245 524/741/245 525/683/263
f 565/744/386 458/745/245 564/743/245
f 527/685/364 467/746/329 567/747/387
f 525/683/263 565/744/386 564/743/245
f 517/672/358 527/685/364 567/747/387
f 458/745/245 563/738/246 564/743/245
f 517/672/358 565/744/386 568/748/388
f 567/747/387 566/749/389 565/744/386
f 521/677/360 515/670/356 523/681/362
f 520/750/390 522/679/361 521/677/360
f 462/591/323 466/595/327 465/594/326
f 461/751/391 463/593/325 462/591/323
f 395/506/283 390/502/280 394/752/392
f 392/505/282 391/753/393 390/502/280
f 395/506/283 402/515/289 318/754/394
f 566/755/389 464/597/324 461/756/391
f 566/755/389 452/757/245 458/758/245
f 395/506/283 465/594/326 466/595/327
f 394/752/392 397/507/261 465/594/326
f 520/759/390 393/508/281 398/510/285
f 391/760/393 376/761/245 375/762/245
f 515/670/356 568/748/388 523/681/362
f 523/681/362 525/683/263 519/680/263
f 83/95/59 25/24/22 91/105/68
f 1/1/1 2/90/55 3/2/2
f 5/4/4 6/50/38 7/5/5
f 10/7/6 11/26/24 12/8/7
f 9/9/8 12/8/7 14/10/9
f 15/12/11 13/11/10 14/10/9
f 17/14/13 15/12/11 16/13/12
f 19/16/15 17/14/13 18/15/14
f 21/18/17 19/97/15 20/19/16
f 21/18/17 22/20/18 24/21/19
f 23/22/20 24/21/19 26/23/21
f 6/25/23 12/8/7 11/26/24
f 5/28/23 14/10/9 12/8/7
f 5/28/23 28/29/25 16/13/12
f 28/29/25 29/30/25 18/15/14
f 29/30/25 30/763/23 20/17/16
f 31/31/25 22/20/18 20/19/16
f 32/33/25 24/21/19 22/20/18
f 32/33/25 33/152/25 26/23/21
f 34/34/26 35/60/52 36/35/27
f 5/4/4 8/6/4 38/37/29
f 28/38/30 38/37/29 39/39/31
f 29/40/31 39/39/31 40/41/32
f 30/43/33 40/58/32 41/44/34
f 31/45/35 41/44/34 42/46/36
f 32/47/36 42/46/36 43/48/37
f 6/50/38 27/271/39 44/51/39
f 46/52/40 7/5/40 44/51/41
f 47/54/25 8/6/25 7/5/40
f 47/54/25 48/55/42 38/37/42
f 48/55/42 49/56/25 39/39/25
f 49/56/25 50/67/42 40/41/42
f 50/57/42 51/59/23 41/44/23
f 51/59/23 35/60/43 42/46/43
f 34/34/23 43/48/23 42/46/43
f 46/52/44 45/53/45 52/61/45
f 46/52/44 53/62/44 54/63/46
f 47/54/46 54/63/46 55/64/47
f 48/55/47 55/64/47 56/65/48
f 49/56/48 56/65/48 57/66/49
f 50/57/50 57/764/49 58/68/51
f 35/60/52 51/59/51 58/68/51
f 60/69/25 53/73/40 52/70/40
f 61/72/25 54/75/25 53/73/40
f 61/72/25 62/76/42 55/74/53
f 62/76/42 63/79/25 56/77/25
f 64/78/25 57/765/42 56/77/25
f 65/80/25 58/84/25 57/81/42
f 66/83/43 36/86/43 58/84/25
f 67/85/25 37/198/25 36/86/43
f 60/69/25 59/71/25 68/87/25
f 68/87/25 69/285/23 70/287/23
f 70/287/23 71/289/110 72/88/43
f 72/88/43 73/415/25 74/417/25
f 74/417/25 64/78/25 63/79/25
f 63/79/25 62/76/42 61/72/25
f 61/72/25 60/69/25 68/87/25
f 68/87/25 70/287/23 72/88/43
f 72/88/43 74/417/25 63/79/25
f 63/79/25 61/72/25 68/87/25
f 75/89/54 76/766/76 2/90/55
f 78/91/56 79/301/81 80/92/57
f 81/94/25 82/110/43 66/83/43
f 83/95/59 84/96/60 21/18/17
f 84/96/60 85/429/62 19/97/15
f 86/98/61 17/14/13 19/16/15
f 87/100/63 15/12/11 17/14/13
f 87/100/63 88/102/65 13/11/10
f 89/101/64 9/9/8 13/11/10
f 90/103/66 10/7/6 9/9/8
f 25/24/22 92/139/96 93/104/67
f 74/106/25 94/409/232 95/107/69
f 97/108/70 75/89/54 1/1/1
f 82/110/43 81/94/25 95/107/69
f 99/112/73 96/109/71 1/1/1
f 101/113/42 100/197/42 67/85/25
f 67/85/25 66/83/43 82/110/43
f 103/114/74 75/767/54 97/115/70
f 76/117/76 75/767/54 103/114/74
f 74/106/25 81/94/25 65/80/25
f 104/119/78 3/2/2 2/90/55
f 104/119/78 106/410/233 4/3/3
f 78/121/56 107/223/123 76/117/80
f 108/122/82 106/410/233 104/119/78
f 110/123/83 111/170/84 112/124/84
f 114/126/85 115/337/203 116/127/86
f 118/129/88 114/126/85 113/128/87
f 119/131/90 120/133/92 118/129/88
f 121/132/91 122/146/99 120/133/92
f 124/134/93 122/146/99 121/132/91
f 125/136/95 126/140/97 124/137/93
f 92/139/96 127/141/98 126/140/97
f 25/24/22 26/23/21 127/141/98
f 128/142/23 115/337/203 114/126/85
f 114/126/85 118/129/88 109/144/23
f 109/144/23 118/129/88 120/133/92
f 129/145/25 120/133/92 122/146/99
f 130/147/25 122/146/99 124/134/93
f 124/137/93 126/140/97 132/149/25
f 126/140/97 127/141/98 133/151/25
f 133/151/25 127/141/98 26/23/21
f 37/36/28 134/768/395 135/153/100
f 136/154/101 110/123/83 109/125/83
f 137/156/102 136/154/101 129/155/101
f 138/158/103 137/156/102 130/157/102
f 132/160/104 139/164/104 138/161/103
f 133/163/105 140/165/105 139/164/104
f 33/49/37 43/48/37 140/165/105
f 112/124/84 111/170/84 141/166/106
f 141/166/108 111/170/40 143/168/40
f 111/170/40 110/123/25 144/171/25
f 144/171/25 110/123/25 136/154/109
f 145/172/23 136/154/109 137/156/110
f 146/173/110 137/156/110 138/158/111
f 138/161/111 139/164/23 148/175/23
f 139/164/23 140/165/110 135/153/110
f 140/165/110 43/48/23 34/34/23
f 143/168/113 149/178/115 150/177/39
f 144/171/114 151/769/396 149/178/115
f 152/179/116 151/769/396 144/171/114
f 153/180/118 152/179/116 145/172/117
f 154/181/119 153/180/118 146/173/118
f 155/182/120 154/770/119 147/176/119
f 135/153/100 134/768/395 155/182/120
f 156/183/25 150/374/40 149/184/23
f 149/184/23 151/771/25 158/186/25
f 158/186/25 151/771/25 152/187/23
f 159/188/43 152/187/23 153/189/23
f 160/190/25 153/189/23 154/191/43
f 161/193/25 154/772/43 155/194/23
f 162/195/23 155/194/23 134/196/110
f 100/197/42 134/196/110 37/198/25
f 161/192/25 163/413/135 164/199/25
f 164/199/25 165/773/25 166/380/23
f 166/380/23 167/378/42 168/200/25
f 168/200/25 169/375/25 156/183/25
f 156/183/25 157/185/25 158/186/25
f 158/186/25 159/188/43 160/190/25
f 160/190/25 161/192/25 164/199/25
f 164/199/25 166/380/23 168/200/25
f 168/200/25 156/183/25 158/186/25
f 158/186/25 160/190/25 164/199/25
f 170/201/121 108/122/82 105/120/79
f 2/90/55 76/766/80 107/202/123
f 171/203/43 162/195/23 100/197/42
f 92/139/96 125/136/95 172/204/124
f 125/136/95 123/138/94 173/205/125
f 123/135/94 121/132/91 174/206/126
f 174/206/126 121/132/91 119/131/90
f 119/131/90 117/130/89 176/209/128
f 117/130/89 113/128/87 177/210/129
f 177/210/129 113/128/87 116/127/86
f 180/212/131 181/242/158 182/213/132
f 183/215/134 184/408/231 163/216/135
f 108/122/82 170/201/121 186/217/136
f 101/113/42 187/407/230 183/215/134
f 188/219/138 106/410/233 108/122/82
f 186/220/136 170/774/121 190/221/139
f 190/221/139 170/774/121 107/223/122
f 163/216/135 161/193/25 162/195/23
f 191/224/142 192/299/176 193/225/143
f 194/226/114 195/775/114 196/227/144
f 199/229/146 11/26/24 10/7/6
f 201/231/148 199/229/146 198/230/147
f 202/233/150 203/235/152 201/231/148
f 204/234/151 205/237/154 203/235/152
f 206/236/153 207/248/160 205/237/154
f 209/238/155 207/250/160 206/239/153
f 210/241/157 209/238/155 208/240/156
f 211/243/159 210/241/157 181/242/158
f 11/26/24 199/229/146 197/244/23
f 199/229/146 201/231/148 194/245/23
f 194/245/23 201/231/148 203/235/152
f 212/246/25 203/235/152 205/237/154
f 213/247/25 205/237/154 207/248/160
f 207/250/160 209/238/155 215/251/25
f 209/238/155 210/241/157 216/253/25
f 210/241/157 211/243/159 217/254/25
f 218/255/161 219/346/205 220/256/162
f 222/258/116 195/775/114 194/226/114
f 223/260/164 222/258/116 212/259/117
f 224/262/165 223/260/164 213/261/164
f 225/264/167 224/776/165 214/265/166
f 226/267/169 225/264/167 215/266/168
f 227/269/170 226/267/169 216/268/169
f 197/228/145 196/227/144 44/51/39
f 44/51/41 196/227/40 228/272/40
f 196/227/40 195/775/25 229/273/25
f 229/273/25 195/775/25 222/258/43
f 230/274/43 222/258/43 223/260/25
f 231/275/25 223/260/25 224/262/43
f 232/277/43 224/776/43 225/264/23
f 233/278/23 225/264/23 226/267/42
f 226/267/42 227/269/23 218/255/23
f 228/272/171 234/777/171 52/61/45
f 235/279/83 234/777/171 228/272/171
f 236/280/101 235/279/83 229/273/83
f 237/281/172 236/280/101 230/274/101
f 238/282/173 237/281/172 231/275/172
f 239/283/104 238/778/173 232/277/103
f 221/257/163 220/256/162 239/283/104
f 52/70/40 234/284/40 68/87/25
f 234/284/40 235/779/25 69/285/23
f 69/285/23 235/779/25 236/286/41
f 70/287/23 236/286/41 237/288/25
f 237/288/25 238/780/43 72/88/43
f 238/290/43 239/293/25 240/291/25
f 239/293/25 220/295/42 241/294/42
f 220/295/42 219/388/25 242/296/25
f 243/297/174 244/403/226 245/298/175
f 103/300/74 191/224/142 80/92/57
f 246/302/25 240/291/25 241/294/42
f 182/213/132 181/242/158 208/240/156
f 248/304/177 208/240/156 206/239/153
f 206/236/153 204/234/151 250/306/179
f 204/234/151 202/233/150 251/308/180
f 251/308/180 202/233/150 200/232/149
f 200/232/149 198/230/147 253/310/182
f 198/230/147 10/7/6 90/103/66
f 254/311/183 255/335/201 180/212/131
f 256/312/184 257/406/229 73/313/25
f 191/224/142 103/300/74 102/314/75
f 247/303/42 259/405/228 256/312/184
f 243/297/174 192/299/176 191/224/142
f 242/296/25 260/387/43 261/316/43
f 261/316/43 247/303/42 241/294/42
f 73/313/25 72/292/43 240/291/25
f 262/317/186 77/93/58 80/92/57
f 192/299/176 245/298/175 262/317/186
f 263/318/187 77/93/58 262/317/186
f 265/319/188 266/358/188 267/320/46
f 116/127/86 115/337/203 269/322/189
f 268/323/190 269/322/189 271/324/191
f 272/326/193 270/325/192 271/324/191
f 274/328/195 272/326/193 273/327/194
f 274/328/195 275/329/196 277/330/197
f 278/332/199 276/781/198 277/333/197
f 255/335/201 278/332/199 279/334/200
f 180/212/131 255/335/201 280/336/202
f 128/142/23 265/339/23 269/322/189
f 264/338/23 271/324/191 269/322/189
f 264/338/23 281/340/25 273/327/194
f 281/340/25 282/341/25 275/329/196
f 282/341/25 283/782/23 277/330/197
f 284/342/25 279/334/200 277/333/197
f 285/344/25 280/336/202 279/334/200
f 217/254/25 211/243/159 280/336/202
f 286/345/204 287/372/204 219/346/205
f 264/321/46 267/320/46 288/347/47
f 281/348/47 288/347/47 289/349/206
f 282/350/206 289/349/206 290/351/50
f 284/353/51 283/783/50 290/354/50
f 285/356/207 284/353/51 291/355/51
f 217/270/170 285/356/207 292/357/207
f 265/319/188 128/167/107 141/166/106
f 293/359/40 266/358/40 141/166/108
f 294/360/25 267/320/25 266/358/40
f 294/360/25 295/361/25 288/347/208
f 295/361/25 296/362/209 289/349/209
f 296/362/209 297/370/210 290/351/25
f 298/363/23 291/355/23 290/354/25
f 286/345/209 292/357/209 291/355/23
f 218/255/23 227/269/23 292/357/209
f 293/359/211 142/169/39 150/177/39
f 294/360/4 293/359/211 299/365/212
f 294/360/4 300/366/213 301/367/29
f 295/361/30 301/367/29 302/368/214
f 296/362/214 302/368/214 303/369/215
f 297/364/215 303/784/215 304/371/216
f 286/345/204 298/363/216 304/371/216
f 156/183/25 169/375/25 299/373/23
f 168/200/25 300/377/25 299/373/23
f 168/200/25 167/378/42 301/376/23
f 167/378/42 166/380/23 302/379/23
f 166/380/23 165/773/25 303/381/42
f 165/382/25 305/385/23 304/383/23
f 305/385/23 260/387/43 287/386/209
f 260/387/43 242/296/25 219/388/25
f 190/389/139 78/91/141 77/93/58
f 306/390/25 261/316/43 260/387/43
f 307/391/217 278/332/199 255/335/201
f 308/392/218 276/781/198 278/332/199
f 309/393/219 274/328/195 276/331/198
f 309/393/219 310/396/221 272/326/193
f 311/395/220 270/325/192 272/326/193
f 312/397/222 268/323/190 270/325/192
f 312/397/222 178/211/130 116/127/86
f 164/398/25 313/404/227 314/399/223
f 189/400/140 190/389/139 263/318/187
f 261/316/43 306/390/25 314/399/223
f 244/403/226 315/401/224 263/318/187
f 164/398/25 306/390/25 305/385/23
f 314/399/223 315/401/224 244/403/226
f 313/404/227 189/400/140 315/401/224
f 243/297/174 258/315/185 256/312/184
f 258/315/185 102/314/75 257/406/229
f 188/219/138 185/218/137 183/215/134
f 185/218/137 186/217/136 184/408/231
f 95/107/69 96/109/71 99/112/73
f 94/409/232 97/108/70 96/109/71
f 106/410/233 188/219/138 99/112/73
f 184/411/231 186/220/136 189/222/140
f 163/413/135 184/411/231 313/412/227
f 99/112/73 188/219/138 187/407/230
f 187/407/230 101/113/42 82/110/43
f 97/115/70 94/416/232 257/414/229
f 73/415/25 257/414/229 94/416/232
f 316/402/225 244/403/226 243/297/174
f 247/303/42 261/316/43 316/402/225
f 317/418/234 318/754/394 319/419/235
f 322/421/237 323/464/238 324/422/238
f 325/424/239 326/615/344 90/103/66
f 327/425/240 325/424/239 89/101/64
f 87/100/63 328/426/241 327/425/240
f 86/98/61 329/436/247 328/426/241
f 330/427/242 329/436/247 86/98/61
f 84/96/60 331/430/243 330/428/242
f 83/95/59 332/431/244 331/430/243
f 91/105/68 333/442/248 332/431/244
f 334/432/245 326/615/344 325/424/239
f 325/424/239 327/425/240 321/434/245
f 321/434/245 327/425/240 328/426/241
f 335/435/246 328/426/241 329/436/247
f 336/437/246 329/436/247 330/427/242
f 330/428/242 331/430/243 338/439/245
f 331/430/243 332/431/244 339/441/245
f 339/441/245 332/431/244 333/442/248
f 342/444/249 343/785/250 344/445/250
f 345/447/252 322/421/237 321/423/237
f 346/449/253 345/447/252 335/448/252
f 347/451/254 346/449/253 336/450/253
f 338/453/255 348/457/255 347/454/254
f 339/456/256 349/459/256 348/457/255
f 340/458/257 350/550/257 349/459/256
f 324/422/238 323/464/238 351/460/258
f 351/460/259 323/464/259 353/462/260
f 323/464/259 322/421/259 354/465/259
f 354/465/259 322/421/259 345/447/261
f 355/466/261 345/447/261 346/449/262
f 356/467/262 346/449/262 347/451/261
f 357/469/245 347/454/261 348/457/245
f 348/457/245 349/459/263 344/445/263
f 349/459/263 350/550/245 341/446/245
f 353/462/264 359/786/264 360/471/265
f 361/472/266 359/786/264 353/462/264
f 362/473/268 361/472/266 354/465/267
f 363/474/269 362/473/268 355/466/268
f 364/475/270 363/474/269 356/467/269
f 365/476/271 364/787/270 357/469/270
f 344/445/250 343/785/250 365/476/271
f 360/477/246 359/480/246 367/478/246
f 359/480/246 361/788/245 368/481/245
f 368/481/245 361/788/245 362/482/273
f 369/483/245 362/482/273 363/484/246
f 363/484/246 364/789/274 371/486/274
f 364/487/274 365/490/246 372/488/246
f 365/490/246 343/790/274 373/491/246
f 373/491/246 343/790/274 342/492/245
f 381/655/246 366/479/246 367/478/246
f 367/478/246 368/481/245 369/483/245
f 369/483/245 370/485/245 371/486/274
f 371/486/274 375/762/245 376/761/245
f 376/761/245 377/661/321 378/494/246
f 378/494/246 379/660/246 380/656/245
f 380/656/245 381/655/246 367/478/246
f 367/478/246 369/483/245 371/486/274
f 371/486/274 376/761/245 378/494/246
f 378/494/246 380/656/245 367/478/246
f 382/495/275 317/418/234 320/420/236
f 384/497/277 385/674/359 386/498/278
f 388/500/274 372/488/246 373/491/246
f 390/502/280 391/753/393 375/503/245
f 317/418/234 382/495/275 393/504/281
f 389/501/261 394/752/392 390/502/280
f 395/506/283 318/754/394 317/418/234
f 374/493/245 396/584/245 397/507/261
f 397/507/261 389/501/261 373/491/246
f 393/508/281 382/791/275 399/509/284
f 399/509/284 382/791/275 383/511/276
f 375/503/245 371/489/274 372/488/246
f 401/513/287 320/420/236 319/419/235
f 319/419/235 318/754/394 402/515/289
f 383/511/290 403/792/397 387/516/279
f 404/517/291 401/513/287 400/514/288
f 405/518/292 406/551/309 407/519/293
f 178/211/130 409/530/301 410/521/294
f 177/210/129 410/521/294 411/522/295
f 175/208/127 176/209/128 411/522/295
f 174/206/126 175/208/127 412/523/296
f 173/207/125 174/206/126 413/524/297
f 172/204/124 173/205/125 414/526/298
f 172/204/124 415/527/299 416/528/300
f 93/104/67 416/528/300 333/442/248
f 406/529/245 410/521/294 409/530/301
f 405/532/245 411/522/295 410/521/294
f 405/532/245 418/533/246 412/523/296
f 418/533/246 419/534/245 413/524/297
f 419/534/245 420/793/245 414/525/298
f 421/535/245 415/527/299 414/526/298
f 422/537/245 416/528/300 415/527/299
f 422/537/245 340/443/245 333/442/248
f 341/446/251 423/561/302 424/538/302
f 405/518/292 408/520/292 425/539/303
f 418/540/304 425/539/303 426/541/305
f 419/542/305 426/541/305 427/543/306
f 420/545/306 427/559/306 428/546/307
f 421/547/307 428/546/307 429/548/308
f 422/549/308 429/548/308 350/550/257
f 406/551/309 417/718/265 430/552/265
f 432/553/310 407/519/310 430/552/311
f 433/555/245 408/520/312 407/519/310
f 433/555/245 434/556/245 425/539/245
f 434/556/245 435/557/246 426/541/246
f 435/557/246 436/567/263 427/543/263
f 436/558/263 437/560/246 428/546/246
f 437/560/246 423/561/313 429/548/273
f 341/446/245 350/550/245 429/548/273
f 432/553/314 431/554/382 438/562/258
f 432/553/314 439/563/314 440/564/315
f 433/555/315 440/564/315 441/565/316
f 434/556/316 441/565/316 442/566/317
f 436/567/318 435/557/317 442/566/317
f 436/558/318 443/794/318 444/569/319
f 423/561/302 437/560/319 444/569/319
f 446/570/245 439/574/246 438/571/246
f 447/573/246 440/576/320 439/574/246
f 447/573/246 448/577/246 441/575/320
f 448/577/246 449/580/321 442/578/246
f 450/579/245 443/795/263 442/578/246
f 451/581/246 444/585/245 443/582/263
f 396/584/245 424/586/263 444/585/245
f 396/584/245 374/493/245 342/492/245
f 458/758/245 452/757/245 450/579/245
f 450/579/245 449/580/321 448/577/246
f 448/577/246 447/573/246 446/570/245
f 446/570/245 445/572/246 453/730/246
f 453/730/246 454/732/246 455/587/246
f 455/587/246 456/735/274 457/736/245
f 457/736/245 458/758/245 450/579/245
f 450/579/245 448/577/246 446/570/245
f 446/570/245 453/730/246 455/587/246
f 455/587/246 457/736/245 450/579/245
f 459/588/322 403/796/398 401/513/287
f 401/513/287 403/796/397 383/496/290
f 460/589/245 397/507/261 396/584/245
f 452/590/245 461/751/391 462/591/323
f 464/592/324 459/588/322 404/517/291
f 397/507/261 460/589/245 462/591/323
f 466/595/327 463/593/325 404/517/291
f 468/596/328 459/599/322 464/597/324
f 387/516/330 403/792/398 459/599/322
f 452/590/245 460/589/245 451/581/246
f 469/600/331 385/674/359 470/601/332
f 473/603/334 474/640/334 475/604/335
f 90/103/66 326/615/344 476/606/336
f 253/310/182 476/606/336 477/607/337
f 251/308/180 252/309/181 477/607/337
f 250/306/179 251/308/180 478/608/338
f 250/306/179 479/609/339 480/610/340
f 248/304/177 249/305/178 480/611/340
f 182/213/132 248/304/177 481/612/341
f 179/214/133 182/213/132 482/613/342
f 334/432/245 473/617/245 476/606/336
f 472/616/245 477/607/337 476/606/336
f 472/616/245 484/618/246 478/608/338
f 484/618/246 485/619/246 479/609/339
f 485/619/246 486/797/246 480/610/340
f 487/620/245 481/612/341 480/611/340
f 488/622/245 482/613/342 481/612/341
f 489/623/245 483/614/343 482/613/342
f 491/624/345 492/654/345 493/625/346
f 472/605/335 475/604/335 494/627/316
f 484/628/316 494/627/316 495/629/347
f 485/630/347 495/629/347 496/631/348
f 487/633/319 486/798/348 496/634/348
f 488/636/349 487/633/319 497/635/319
f 489/638/350 488/636/349 498/637/349
f 473/603/334 334/461/258 351/460/258
f 500/641/259 474/640/259 351/460/259
f 501/642/259 475/604/259 474/640/259
f 501/642/259 502/643/263 494/627/263
f 502/643/263 503/644/245 495/629/245
f 503/644/245 504/652/245 496/631/263
f 504/645/245 505/646/245 497/635/245
f 491/624/261 498/637/261 497/635/245
f 490/626/245 499/639/245 498/637/261
f 500/641/293 352/463/265 360/471/265
f 500/641/293 506/647/293 507/648/352
f 501/642/292 507/648/352 508/649/303
f 502/643/303 508/649/303 509/650/353
f 503/644/353 509/650/353 510/651/354
f 504/645/354 510/799/354 511/653/307
f 491/624/345 505/646/355 511/653/307
f 381/655/246 506/657/246 360/477/246
f 380/656/245 507/659/245 506/657/246
f 380/656/245 379/660/246 508/658/263
f 378/494/246 509/662/246 508/658/263
f 377/661/321 510/800/321 509/662/246
f 512/663/246 511/667/246 510/664/321
f 513/666/246 492/669/321 511/667/246
f 513/666/246 514/682/245 493/668/245
f 515/670/356 471/602/333 516/671/357
f 399/673/284 386/498/286 385/674/359
f 518/675/321 519/680/263 513/666/246
f 376/676/245 520/750/390 521/677/360
f 398/678/285 399/673/284 469/600/331
f 519/680/263 518/675/321 521/677/360
f 515/670/356 522/679/361 469/600/331
f 525/683/263 524/741/245 514/682/245
f 514/682/245 513/666/246 519/680/263
f 376/676/245 518/675/321 512/663/246
f 470/601/332 385/674/359 384/497/277
f 470/601/332 526/684/363 516/671/357
f 527/685/364 516/671/357 526/684/363
f 528/686/267 529/801/267 530/687/264
f 532/689/366 409/530/301 178/211/130
f 533/690/367 532/689/366 312/397/222
f 310/396/221 534/691/368 533/690/367
f 309/393/219 535/692/369 534/691/368
f 308/394/218 536/699/372 535/692/369
f 537/693/370 536/701/372 308/392/218
f 538/694/371 537/693/370 307/391/217
f 483/614/343 538/694/371 254/311/183
f 409/530/301 532/689/366 531/695/245
f 532/689/366 533/690/367 528/696/245
f 528/696/245 533/690/367 534/691/368
f 539/697/246 534/691/368 535/692/369
f 540/698/245 535/692/369 536/699/372
f 536/701/372 537/693/370 542/702/245
f 537/693/370 538/694/371 543/704/245
f 538/694/371 483/614/343 489/623/245
f 490/626/346 493/625/346 544/705/373
f 546/707/268 529/801/267 528/686/267
f 547/709/375 546/707/268 539/708/374
f 548/711/376 547/709/375 540/710/375
f 549/713/271 548/802/376 541/714/376
f 550/716/377 549/713/271 542/715/271
f 499/639/351 550/716/377 543/717/377
f 531/688/365 530/687/264 430/552/265
f 430/552/311 530/687/378 551/719/378
f 530/687/378 529/801/245 552/720/245
f 552/720/245 529/801/245 546/707/379
f 553/721/379 546/707/379 547/709/246
f 554/722/246 547/709/246 548/711/261
f 555/724/261 548/802/261 549/713/246
f 556/725/246 549/713/246 550/716/380
f 550/716/380 499/639/245 490/626/245
f 551/719/381 557/803/381 438/562/258
f 558/726/383 557/803/381 551/719/381
f 559/727/252 558/726/383 552/720/383
f 560/728/384 559/727/252 553/721/252
f 555/723/385 561/804/385 560/728/384
f 562/729/255 561/805/385 555/724/385
f 545/706/373 544/705/373 562/729/255
f 438/571/246 557/731/246 453/730/246
f 557/731/246 558/806/260 454/732/246
f 454/732/246 558/806/260 559/733/260
f 455/587/246 559/733/260 560/734/246
f 560/734/246 561/807/261 457/736/245
f 561/737/261 562/740/245 563/738/246
f 562/740/245 544/808/261 524/741/245
f 524/741/245 544/808/261 493/668/245
f 468/742/328 527/685/364 384/497/277
f 564/743/245 563/738/246 524/741/245
f 565/744/386 566/749/389 458/745/245
f 527/685/364 468/742/328 467/746/329
f 525/683/263 568/748/388 565/744/386
f 517/672/358 516/671/357 527/685/364
f 458/745/245 457/739/245 563/738/246
f 517/672/358 567/747/387 565/744/386
f 567/747/387 467/746/329 566/749/389
f 521/677/360 522/679/361 515/670/356
f 520/750/390 398/678/285 522/679/361
f 462/591/323 463/593/325 466/595/327
f 461/751/391 464/592/324 463/593/325
f 395/506/283 392/505/282 390/502/280
f 392/505/282 393/504/281 391/753/393
f 395/506/283 466/595/327 402/515/289
f 566/755/389 467/598/329 464/597/324
f 566/755/389 461/756/391 452/757/245
f 395/506/283 394/752/392 465/594/326
f 394/752/392 389/501/261 397/507/261
f 520/759/390 391/760/393 393/508/281
f 391/760/393 520/759/390 376/761/245
f 515/670/356 517/672/358 568/748/388
f 523/681/362 568/748/388 525/683/263
f 83/95/59 23/22/20 25/24/22
